{"glyphs":{"0":{"ha":833,"x_min":69,"x_max":765,"o":"m 417 987 q 677 854 589 987 q 765 483 765 721 q 677 111 765 245 q 417 -24 589 -24 q 156 111 243 -24 q 69 483 69 245 q 156 854 69 721 q 417 987 243 987 m 417 828 q 309 749 343 828 q 275 483 275 670 q 277 375 275 422 q 283 290 279 327 l 518 781 q 477 818 501 808 q 417 828 452 828 m 557 483 q 553 618 557 563 l 332 160 q 368 140 347 146 q 417 135 390 135 q 497 168 466 135 q 542 278 528 201 q 557 483 557 355 z "},"1":{"ha":833,"x_min":81,"x_max":765,"o":"m 765 166 l 765 0 l 140 0 l 140 166 l 372 166 l 372 747 l 174 623 l 81 774 l 391 963 l 585 963 l 585 166 l 765 166 z "},"2":{"ha":833,"x_min":55,"x_max":738,"o":"m 383 987 q 567 949 493 987 q 678 848 641 910 q 715 711 715 785 q 695 597 715 653 q 631 479 676 541 q 511 341 585 417 q 326 167 436 265 l 738 167 l 714 0 l 74 0 l 74 156 q 273 353 193 270 q 402 495 353 435 q 471 602 450 556 q 492 692 492 649 q 458 784 492 750 q 363 818 424 818 q 267 795 308 818 q 190 721 227 772 l 55 822 q 188 942 109 897 q 383 987 267 987 z "},"3":{"ha":833,"x_min":25,"x_max":736,"o":"m 378 987 q 555 953 482 987 q 667 864 628 919 q 706 740 706 808 q 652 592 706 649 q 509 510 598 535 q 672 442 608 497 q 736 271 736 388 q 691 123 736 190 q 563 16 647 56 q 364 -24 480 -24 q 171 14 256 -24 q 25 121 85 52 l 149 236 q 241 166 190 188 q 349 144 292 144 q 466 181 421 144 q 511 286 511 217 q 468 396 511 363 q 348 430 426 430 l 260 430 l 285 581 l 348 581 q 452 613 412 581 q 493 707 493 644 q 454 792 493 761 q 353 824 415 824 q 249 801 296 824 q 161 740 202 779 l 49 857 q 197 954 115 921 q 378 987 278 987 z "},"4":{"ha":833,"x_min":62,"x_max":769,"o":"m 672 599 l 672 367 l 769 367 l 769 202 l 672 202 l 672 0 l 462 0 l 460 202 l 62 202 l 62 348 l 329 987 l 516 918 l 288 367 l 461 367 l 487 599 l 672 599 z "},"5":{"ha":833,"x_min":54,"x_max":751,"o":"m 715 963 l 691 806 l 339 806 l 339 598 q 412 622 374 615 q 481 628 449 628 q 617 591 556 628 q 715 483 678 553 q 751 316 751 413 q 704 142 751 219 q 572 20 656 65 q 374 -24 487 -24 q 188 16 269 -24 q 54 120 108 55 l 181 235 q 261 168 215 191 q 356 144 306 144 q 479 191 433 144 q 525 313 525 238 q 489 439 525 401 q 395 477 453 477 q 339 470 369 477 q 277 445 309 463 l 129 445 l 129 963 l 715 963 z "},"6":{"ha":833,"x_min":69,"x_max":769,"o":"m 487 987 q 603 970 551 987 q 696 925 656 953 l 613 792 q 553 821 585 812 q 491 831 522 831 q 359 760 413 831 q 298 558 306 690 q 395 624 341 603 q 500 645 449 645 q 636 608 575 645 q 733 500 697 571 q 769 326 769 428 q 728 150 769 230 q 609 24 686 71 q 428 -24 533 -24 q 264 13 332 -24 q 153 113 196 49 q 90 259 110 176 q 69 435 69 342 q 120 722 69 598 q 264 917 170 847 q 487 987 357 987 m 443 494 q 298 420 362 494 q 328 205 300 276 q 431 133 357 133 q 521 186 492 133 q 550 314 550 239 q 522 453 550 413 q 443 494 494 494 z "},"7":{"ha":833,"x_min":94,"x_max":740,"o":"m 367 -22 l 158 42 l 517 797 l 94 797 l 94 963 l 740 963 l 740 814 l 367 -22 z "},"8":{"ha":833,"x_min":59,"x_max":774,"o":"m 737 732 q 701 616 737 665 q 588 524 665 567 q 730 409 685 475 q 774 261 774 342 q 734 122 774 187 q 613 17 693 57 q 413 -24 533 -24 q 216 15 295 -24 q 98 118 138 54 q 59 256 59 181 q 107 399 59 338 q 236 496 155 460 q 130 592 163 543 q 97 721 97 641 q 139 863 97 803 q 254 955 181 922 q 418 987 326 987 q 584 956 512 987 q 696 868 656 925 q 737 732 737 810 m 306 721 q 340 637 306 670 q 446 577 374 604 q 510 645 493 612 q 528 719 528 679 q 500 804 528 771 q 418 838 473 838 q 335 808 365 838 q 306 721 306 778 m 555 263 q 536 340 555 310 q 476 392 517 370 q 371 437 436 414 q 303 368 328 410 q 278 269 278 326 q 314 171 278 209 q 418 133 349 133 q 522 172 490 133 q 555 263 555 210 z "},"9":{"ha":833,"x_min":60,"x_max":765,"o":"m 411 987 q 608 938 529 987 q 726 803 686 890 q 765 603 765 717 q 703 290 765 418 q 510 81 640 162 q 178 -42 381 0 l 133 113 q 400 226 303 156 q 529 411 497 297 q 440 353 487 374 q 333 333 393 333 q 195 371 257 333 q 97 478 133 409 q 60 641 60 548 q 107 823 60 745 q 232 944 153 901 q 411 987 312 987 m 281 647 q 316 522 281 558 q 401 486 351 486 q 474 500 440 486 q 539 542 507 515 q 516 759 540 688 q 410 831 492 831 q 316 786 351 831 q 281 647 281 742 z "},"A":{"ha":833,"x_min":-15,"x_max":850,"o":"m 556 208 l 274 208 l 223 0 l -15 0 l 279 963 l 556 963 l 850 0 l 606 0 l 556 208 m 310 373 l 518 373 l 414 799 l 310 373 z "},"Á":{"ha":833,"x_min":-15,"x_max":850,"o":"m 556 208 l 274 208 l 223 0 l -15 0 l 279 963 l 556 963 l 850 0 l 606 0 l 556 208 m 310 373 l 518 373 l 414 799 l 310 373 m 525 1323 l 608 1160 l 278 1043 l 226 1154 l 525 1323 z "},"Ă":{"ha":833,"x_min":-15,"x_max":850,"o":"m 556 208 l 274 208 l 223 0 l -15 0 l 279 963 l 556 963 l 850 0 l 606 0 l 556 208 m 310 373 l 518 373 l 414 799 l 310 373 m 417 1043 q 245 1106 302 1043 q 177 1258 188 1168 l 299 1279 q 417 1196 324 1196 q 535 1279 509 1196 l 656 1258 q 589 1106 647 1168 q 417 1043 531 1043 z "},"Â":{"ha":833,"x_min":-15,"x_max":850,"o":"m 556 208 l 274 208 l 223 0 l -15 0 l 279 963 l 556 963 l 850 0 l 606 0 l 556 208 m 310 373 l 518 373 l 414 799 l 310 373 m 484 1310 l 680 1128 l 601 1040 l 417 1157 l 232 1040 l 152 1128 l 349 1310 l 484 1310 z "},"Ä":{"ha":833,"x_min":-15,"x_max":850,"o":"m 556 208 l 274 208 l 223 0 l -15 0 l 279 963 l 556 963 l 850 0 l 606 0 l 556 208 m 310 373 l 518 373 l 414 799 l 310 373 z "},"À":{"ha":833,"x_min":-15,"x_max":850,"o":"m 556 208 l 274 208 l 223 0 l -15 0 l 279 963 l 556 963 l 850 0 l 606 0 l 556 208 m 310 373 l 518 373 l 414 799 l 310 373 m 308 1324 l 608 1154 l 555 1043 l 226 1160 l 308 1324 z "},"Ā":{"ha":833,"x_min":-15,"x_max":850,"o":"m 556 208 l 274 208 l 223 0 l -15 0 l 279 963 l 556 963 l 850 0 l 606 0 l 556 208 m 310 373 l 518 373 l 414 799 l 310 373 z "},"Ą":{"ha":833,"x_min":-15,"x_max":850,"o":"m 556 208 l 274 208 l 223 0 l -15 0 l 279 963 l 556 963 l 850 0 l 606 0 l 556 208 m 310 373 l 518 373 l 414 799 l 310 373 m 716 72 l 740 0 q 612 -72 644 -34 q 581 -153 581 -110 q 602 -204 581 -187 q 661 -221 624 -221 q 701 -218 683 -221 q 736 -211 719 -215 l 719 -341 q 681 -349 701 -346 q 638 -352 662 -352 q 489 -308 549 -352 q 428 -181 428 -263 q 466 -61 428 -108 q 570 17 504 -14 q 716 72 635 47 z "},"Å":{"ha":833,"x_min":-15,"x_max":850,"o":"m 556 208 l 274 208 l 223 0 l -15 0 l 279 963 l 556 963 l 850 0 l 606 0 l 556 208 m 310 373 l 518 373 l 414 799 l 310 373 z "},"Ã":{"ha":833,"x_min":-15,"x_max":850,"o":"m 556 208 l 274 208 l 223 0 l -15 0 l 279 963 l 556 963 l 850 0 l 606 0 l 556 208 m 310 373 l 518 373 l 414 799 l 310 373 z "},"Æ":{"ha":833,"x_min":-17,"x_max":838,"o":"m 435 212 l 240 212 l 201 0 l -17 0 l 226 963 l 785 963 l 761 808 l 508 808 l 554 565 l 772 565 l 772 410 l 582 410 l 631 154 l 838 154 l 838 0 l 469 0 l 435 212 m 265 367 l 412 367 l 340 810 l 265 367 z "},"Ǽ":{"ha":833,"x_min":-17,"x_max":838,"o":"m 435 212 l 240 212 l 201 0 l -17 0 l 226 963 l 785 963 l 761 808 l 508 808 l 554 565 l 772 565 l 772 410 l 582 410 l 631 154 l 838 154 l 838 0 l 469 0 l 435 212 m 265 367 l 412 367 l 340 810 l 265 367 m 595 1323 l 678 1160 l 348 1043 l 296 1154 l 595 1323 z "},"B":{"ha":833,"x_min":78,"x_max":793,"o":"m 793 282 q 761 144 793 199 q 674 58 729 89 q 547 13 618 26 q 397 0 476 0 l 78 0 l 78 963 l 383 963 q 566 940 482 963 q 700 864 649 918 q 751 717 751 810 q 699 579 751 631 q 575 510 646 528 q 677 477 626 501 q 760 406 727 453 q 793 282 793 359 m 522 694 q 486 776 522 751 q 376 801 451 801 l 306 801 l 306 578 l 383 578 q 489 606 456 578 q 522 694 522 633 m 558 291 q 515 397 558 367 q 399 426 472 426 l 306 426 l 306 166 l 390 166 q 473 175 434 166 q 535 212 511 185 q 558 291 558 239 z "},"C":{"ha":833,"x_min":47,"x_max":819,"o":"m 497 987 q 673 959 601 987 q 806 882 746 932 l 694 747 q 607 799 655 780 q 503 818 559 818 q 392 784 442 818 q 313 675 342 749 q 283 483 283 601 q 345 231 283 310 q 507 152 408 152 q 627 179 579 152 q 715 238 675 206 l 819 106 q 685 15 765 53 q 494 -24 606 -24 q 263 34 364 -24 q 105 205 162 92 q 47 483 47 318 q 107 757 47 644 q 268 928 166 869 q 497 987 370 987 z "},"Ć":{"ha":833,"x_min":47,"x_max":819,"o":"m 497 987 q 673 959 601 987 q 806 882 746 932 l 694 747 q 607 799 655 780 q 503 818 559 818 q 392 784 442 818 q 313 675 342 749 q 283 483 283 601 q 345 231 283 310 q 507 152 408 152 q 627 179 579 152 q 715 238 675 206 l 819 106 q 685 15 765 53 q 494 -24 606 -24 q 263 34 364 -24 q 105 205 162 92 q 47 483 47 318 q 107 757 47 644 q 268 928 166 869 q 497 987 370 987 m 610 1323 l 692 1160 l 363 1043 l 310 1154 l 610 1323 z "},"Č":{"ha":833,"x_min":47,"x_max":819,"o":"m 497 987 q 673 959 601 987 q 806 882 746 932 l 694 747 q 607 799 655 780 q 503 818 559 818 q 392 784 442 818 q 313 675 342 749 q 283 483 283 601 q 345 231 283 310 q 507 152 408 152 q 627 179 579 152 q 715 238 675 206 l 819 106 q 685 15 765 53 q 494 -24 606 -24 q 263 34 364 -24 q 105 205 162 92 q 47 483 47 318 q 107 757 47 644 q 268 928 166 869 q 497 987 370 987 m 686 1314 l 765 1224 l 569 1043 l 434 1043 l 237 1224 l 317 1314 l 501 1196 l 686 1314 z "},"Ç":{"ha":833,"x_min":47,"x_max":819,"o":"m 497 987 q 673 959 601 987 q 806 882 746 932 l 694 747 q 607 799 655 780 q 503 818 559 818 q 392 784 442 818 q 313 675 342 749 q 283 483 283 601 q 345 231 283 310 q 507 152 408 152 q 627 179 579 152 q 715 238 675 206 l 819 106 q 685 15 765 53 q 494 -24 606 -24 q 263 34 364 -24 q 105 205 162 92 q 47 483 47 318 q 107 757 47 644 q 268 928 166 869 q 497 987 370 987 z "},"Ĉ":{"ha":833,"x_min":47,"x_max":819,"o":"m 497 987 q 673 959 601 987 q 806 882 746 932 l 694 747 q 607 799 655 780 q 503 818 559 818 q 392 784 442 818 q 313 675 342 749 q 283 483 283 601 q 345 231 283 310 q 507 152 408 152 q 627 179 579 152 q 715 238 675 206 l 819 106 q 685 15 765 53 q 494 -24 606 -24 q 263 34 364 -24 q 105 205 162 92 q 47 483 47 318 q 107 757 47 644 q 268 928 166 869 q 497 987 370 987 m 569 1310 l 765 1128 l 686 1040 l 501 1157 l 317 1040 l 237 1128 l 434 1310 l 569 1310 z "},"Ċ":{"ha":833,"x_min":47,"x_max":819,"o":"m 497 987 q 673 959 601 987 q 806 882 746 932 l 694 747 q 607 799 655 780 q 503 818 559 818 q 392 784 442 818 q 313 675 342 749 q 283 483 283 601 q 345 231 283 310 q 507 152 408 152 q 627 179 579 152 q 715 238 675 206 l 819 106 q 685 15 765 53 q 494 -24 606 -24 q 263 34 364 -24 q 105 205 162 92 q 47 483 47 318 q 107 757 47 644 q 268 928 166 869 q 497 987 370 987 z "},"D":{"ha":833,"x_min":72,"x_max":798,"o":"m 798 486 q 759 244 798 340 q 655 96 721 149 q 505 22 589 43 q 332 0 422 0 l 72 0 l 72 963 l 315 963 q 494 943 408 963 q 649 873 581 924 q 758 729 717 822 q 798 486 798 635 m 562 486 q 534 683 562 616 q 457 773 506 749 q 349 797 409 797 l 300 797 l 300 165 l 349 165 q 460 192 412 165 q 535 290 508 219 q 562 486 562 360 z "},"Ð":{"ha":833,"x_min":13,"x_max":816,"o":"m 816 486 q 777 244 816 340 q 673 96 739 149 q 523 22 607 43 q 350 0 440 0 l 90 0 l 90 422 l 13 422 l 13 559 l 90 559 l 90 963 l 333 963 q 512 943 426 963 q 667 873 599 924 q 776 729 735 822 q 816 486 816 635 m 484 559 l 484 422 l 318 422 l 318 165 l 367 165 q 478 192 430 165 q 553 290 526 219 q 580 486 580 360 q 552 683 580 616 q 475 773 524 749 q 367 797 427 797 l 318 797 l 318 559 l 484 559 z "},"Ď":{"ha":833,"x_min":72,"x_max":798,"o":"m 798 486 q 759 244 798 340 q 655 96 721 149 q 505 22 589 43 q 332 0 422 0 l 72 0 l 72 963 l 315 963 q 494 943 408 963 q 649 873 581 924 q 758 729 717 822 q 798 486 798 635 m 562 486 q 534 683 562 616 q 457 773 506 749 q 349 797 409 797 l 300 797 l 300 165 l 349 165 q 460 192 412 165 q 535 290 508 219 q 562 486 562 360 m 583 1314 l 662 1224 l 466 1043 l 331 1043 l 134 1224 l 214 1314 l 399 1196 l 583 1314 z "},"Đ":{"ha":833,"x_min":13,"x_max":816,"o":"m 816 486 q 777 244 816 340 q 673 96 739 149 q 523 22 607 43 q 350 0 440 0 l 90 0 l 90 422 l 13 422 l 13 559 l 90 559 l 90 963 l 333 963 q 512 943 426 963 q 667 873 599 924 q 776 729 735 822 q 816 486 816 635 m 484 559 l 484 422 l 318 422 l 318 165 l 367 165 q 478 192 430 165 q 553 290 526 219 q 580 486 580 360 q 552 683 580 616 q 475 773 524 749 q 367 797 427 797 l 318 797 l 318 559 l 484 559 z "},"E":{"ha":833,"x_min":129,"x_max":759,"o":"m 357 800 l 357 569 l 690 569 l 690 409 l 357 409 l 357 163 l 759 163 l 759 0 l 129 0 l 129 963 l 758 963 l 735 800 l 357 800 z "},"É":{"ha":833,"x_min":129,"x_max":759,"o":"m 357 800 l 357 569 l 690 569 l 690 409 l 357 409 l 357 163 l 759 163 l 759 0 l 129 0 l 129 963 l 758 963 l 735 800 l 357 800 m 553 1323 l 635 1160 l 306 1043 l 253 1154 l 553 1323 z "},"Ĕ":{"ha":833,"x_min":129,"x_max":759,"o":"m 357 800 l 357 569 l 690 569 l 690 409 l 357 409 l 357 163 l 759 163 l 759 0 l 129 0 l 129 963 l 758 963 l 735 800 l 357 800 m 444 1043 q 273 1106 330 1043 q 205 1258 215 1168 l 326 1279 q 444 1196 352 1196 q 563 1279 537 1196 l 684 1258 q 617 1106 675 1168 q 444 1043 559 1043 z "},"Ě":{"ha":833,"x_min":129,"x_max":759,"o":"m 357 800 l 357 569 l 690 569 l 690 409 l 357 409 l 357 163 l 759 163 l 759 0 l 129 0 l 129 963 l 758 963 l 735 800 l 357 800 m 629 1314 l 708 1224 l 512 1043 l 377 1043 l 180 1224 l 260 1314 l 444 1196 l 629 1314 z "},"Ê":{"ha":833,"x_min":129,"x_max":759,"o":"m 357 800 l 357 569 l 690 569 l 690 409 l 357 409 l 357 163 l 759 163 l 759 0 l 129 0 l 129 963 l 758 963 l 735 800 l 357 800 m 512 1310 l 708 1128 l 629 1040 l 444 1157 l 260 1040 l 180 1128 l 377 1310 l 512 1310 z "},"Ë":{"ha":833,"x_min":129,"x_max":759,"o":"m 357 800 l 357 569 l 690 569 l 690 409 l 357 409 l 357 163 l 759 163 l 759 0 l 129 0 l 129 963 l 758 963 l 735 800 l 357 800 z "},"Ė":{"ha":833,"x_min":129,"x_max":759,"o":"m 357 800 l 357 569 l 690 569 l 690 409 l 357 409 l 357 163 l 759 163 l 759 0 l 129 0 l 129 963 l 758 963 l 735 800 l 357 800 z "},"È":{"ha":833,"x_min":129,"x_max":759,"o":"m 357 800 l 357 569 l 690 569 l 690 409 l 357 409 l 357 163 l 759 163 l 759 0 l 129 0 l 129 963 l 758 963 l 735 800 l 357 800 m 336 1324 l 635 1154 l 583 1043 l 253 1160 l 336 1324 z "},"Ē":{"ha":833,"x_min":129,"x_max":759,"o":"m 357 800 l 357 569 l 690 569 l 690 409 l 357 409 l 357 163 l 759 163 l 759 0 l 129 0 l 129 963 l 758 963 l 735 800 l 357 800 z "},"Ę":{"ha":833,"x_min":129,"x_max":759,"o":"m 357 800 l 357 569 l 690 569 l 690 409 l 357 409 l 357 163 l 759 163 l 759 0 l 129 0 l 129 963 l 758 963 l 735 800 l 357 800 m 624 72 l 649 0 q 520 -72 552 -34 q 489 -153 489 -110 q 511 -204 489 -187 q 569 -221 533 -221 q 609 -218 592 -221 q 644 -211 627 -215 l 628 -341 q 590 -349 609 -346 q 546 -352 570 -352 q 397 -308 458 -352 q 336 -181 336 -263 q 374 -61 336 -108 q 478 17 413 -14 q 624 72 544 47 z "},"F":{"ha":833,"x_min":150,"x_max":783,"o":"m 378 800 l 378 545 l 716 545 l 716 382 l 378 382 l 378 0 l 150 0 l 150 963 l 783 963 l 759 800 l 378 800 z "},"G":{"ha":833,"x_min":31,"x_max":789,"o":"m 452 -24 q 139 106 247 -24 q 31 483 31 235 q 91 759 31 647 q 252 929 151 872 q 478 987 353 987 q 656 954 584 987 q 785 868 728 922 l 665 744 q 581 802 622 783 q 490 821 541 821 q 375 786 425 821 q 295 677 324 752 q 266 482 266 603 q 286 282 266 356 q 349 175 307 208 q 454 143 390 143 q 518 151 488 143 q 574 172 548 159 l 574 392 l 453 392 l 431 552 l 789 552 l 789 74 q 634 3 717 29 q 452 -24 551 -24 z "},"Ğ":{"ha":833,"x_min":31,"x_max":789,"o":"m 452 -24 q 139 106 247 -24 q 31 483 31 235 q 91 759 31 647 q 252 929 151 872 q 478 987 353 987 q 656 954 584 987 q 785 868 728 922 l 665 744 q 581 802 622 783 q 490 821 541 821 q 375 786 425 821 q 295 677 324 752 q 266 482 266 603 q 286 282 266 356 q 349 175 307 208 q 454 143 390 143 q 518 151 488 143 q 574 172 548 159 l 574 392 l 453 392 l 431 552 l 789 552 l 789 74 q 634 3 717 29 q 452 -24 551 -24 m 458 1043 q 286 1106 344 1043 q 219 1258 229 1168 l 340 1279 q 458 1196 366 1196 q 576 1279 551 1196 l 698 1258 q 631 1106 689 1168 q 458 1043 573 1043 z "},"Ĝ":{"ha":833,"x_min":31,"x_max":789,"o":"m 452 -24 q 139 106 247 -24 q 31 483 31 235 q 91 759 31 647 q 252 929 151 872 q 478 987 353 987 q 656 954 584 987 q 785 868 728 922 l 665 744 q 581 802 622 783 q 490 821 541 821 q 375 786 425 821 q 295 677 324 752 q 266 482 266 603 q 286 282 266 356 q 349 175 307 208 q 454 143 390 143 q 518 151 488 143 q 574 172 548 159 l 574 392 l 453 392 l 431 552 l 789 552 l 789 74 q 634 3 717 29 q 452 -24 551 -24 m 526 1310 l 722 1128 l 643 1040 l 458 1157 l 274 1040 l 194 1128 l 391 1310 l 526 1310 z "},"Ģ":{"ha":833,"x_min":31,"x_max":789,"o":"m 452 -24 q 139 106 247 -24 q 31 483 31 235 q 91 759 31 647 q 252 929 151 872 q 478 987 353 987 q 656 954 584 987 q 785 868 728 922 l 665 744 q 581 802 622 783 q 490 821 541 821 q 375 786 425 821 q 295 677 324 752 q 266 482 266 603 q 286 282 266 356 q 349 175 307 208 q 454 143 390 143 q 518 151 488 143 q 574 172 548 159 l 574 392 l 453 392 l 431 552 l 789 552 l 789 74 q 634 3 717 29 q 452 -24 551 -24 m 454 -90 q 532 -121 501 -90 q 563 -198 563 -151 q 555 -252 563 -223 q 530 -312 546 -281 l 462 -447 l 352 -447 l 390 -287 q 357 -250 370 -272 q 344 -198 344 -228 q 375 -122 344 -153 q 454 -90 407 -90 z "},"Ġ":{"ha":833,"x_min":31,"x_max":789,"o":"m 452 -24 q 139 106 247 -24 q 31 483 31 235 q 91 759 31 647 q 252 929 151 872 q 478 987 353 987 q 656 954 584 987 q 785 868 728 922 l 665 744 q 581 802 622 783 q 490 821 541 821 q 375 786 425 821 q 295 677 324 752 q 266 482 266 603 q 286 282 266 356 q 349 175 307 208 q 454 143 390 143 q 518 151 488 143 q 574 172 548 159 l 574 392 l 453 392 l 431 552 l 789 552 l 789 74 q 634 3 717 29 q 452 -24 551 -24 z "},"H":{"ha":833,"x_min":72,"x_max":761,"o":"m 533 0 l 533 406 l 300 406 l 300 0 l 72 0 l 72 963 l 300 963 l 300 593 l 533 593 l 533 963 l 761 963 l 761 0 l 533 0 z "},"Ħ":{"ha":833,"x_min":3,"x_max":831,"o":"m 831 822 l 831 694 l 755 694 l 755 0 l 527 0 l 527 413 l 306 413 l 306 0 l 78 0 l 78 694 l 3 694 l 3 822 l 78 822 l 78 963 l 306 963 l 306 822 l 527 822 l 527 963 l 755 963 l 755 822 l 831 822 m 306 590 l 527 590 l 527 694 l 306 694 l 306 590 z "},"Ĥ":{"ha":833,"x_min":72,"x_max":761,"o":"m 533 0 l 533 406 l 300 406 l 300 0 l 72 0 l 72 963 l 300 963 l 300 593 l 533 593 l 533 963 l 761 963 l 761 0 l 533 0 m 484 1310 l 680 1128 l 601 1040 l 417 1157 l 232 1040 l 152 1128 l 349 1310 l 484 1310 z "},"I":{"ha":833,"x_min":104,"x_max":729,"o":"m 729 963 l 729 796 l 531 796 l 531 167 l 729 167 l 729 0 l 104 0 l 104 167 l 303 167 l 303 796 l 104 796 l 104 963 l 729 963 z "},"Ĳ":{"ha":833,"x_min":11,"x_max":773,"o":"m 252 -100 q 444 -37 380 -78 q 531 69 509 4 q 553 228 553 135 l 553 822 l 322 822 l 322 142 l 396 142 l 396 0 l 11 0 l 11 142 l 113 142 l 113 822 l 11 822 l 11 963 l 773 963 l 773 237 q 725 7 773 106 q 569 -158 678 -92 q 278 -253 460 -224 l 252 -100 z "},"Í":{"ha":833,"x_min":104,"x_max":729,"o":"m 729 963 l 729 796 l 531 796 l 531 167 l 729 167 l 729 0 l 104 0 l 104 167 l 303 167 l 303 796 l 104 796 l 104 963 l 729 963 m 525 1323 l 608 1160 l 278 1043 l 226 1154 l 525 1323 z "},"Ĭ":{"ha":833,"x_min":104,"x_max":729,"o":"m 729 963 l 729 796 l 531 796 l 531 167 l 729 167 l 729 0 l 104 0 l 104 167 l 303 167 l 303 796 l 104 796 l 104 963 l 729 963 m 417 1043 q 245 1106 302 1043 q 177 1258 188 1168 l 299 1279 q 417 1196 324 1196 q 535 1279 509 1196 l 656 1258 q 589 1106 647 1168 q 417 1043 531 1043 z "},"Î":{"ha":833,"x_min":104,"x_max":729,"o":"m 729 963 l 729 796 l 531 796 l 531 167 l 729 167 l 729 0 l 104 0 l 104 167 l 303 167 l 303 796 l 104 796 l 104 963 l 729 963 m 484 1310 l 680 1128 l 601 1040 l 417 1157 l 232 1040 l 152 1128 l 349 1310 l 484 1310 z "},"Ï":{"ha":833,"x_min":104,"x_max":729,"o":"m 729 963 l 729 796 l 531 796 l 531 167 l 729 167 l 729 0 l 104 0 l 104 167 l 303 167 l 303 796 l 104 796 l 104 963 l 729 963 z "},"İ":{"ha":833,"x_min":104,"x_max":729,"o":"m 729 963 l 729 796 l 531 796 l 531 167 l 729 167 l 729 0 l 104 0 l 104 167 l 303 167 l 303 796 l 104 796 l 104 963 l 729 963 z "},"Ì":{"ha":833,"x_min":104,"x_max":729,"o":"m 729 963 l 729 796 l 531 796 l 531 167 l 729 167 l 729 0 l 104 0 l 104 167 l 303 167 l 303 796 l 104 796 l 104 963 l 729 963 m 308 1324 l 608 1154 l 555 1043 l 226 1160 l 308 1324 z "},"Ī":{"ha":833,"x_min":104,"x_max":729,"o":"m 729 963 l 729 796 l 531 796 l 531 167 l 729 167 l 729 0 l 104 0 l 104 167 l 303 167 l 303 796 l 104 796 l 104 963 l 729 963 z "},"Į":{"ha":833,"x_min":104,"x_max":729,"o":"m 729 963 l 729 796 l 531 796 l 531 167 l 729 167 l 729 0 l 104 0 l 104 167 l 303 167 l 303 796 l 104 796 l 104 963 l 729 963 m 506 72 l 531 0 q 402 -72 434 -34 q 371 -153 371 -110 q 393 -204 371 -187 q 451 -221 415 -221 q 491 -218 474 -221 q 526 -211 509 -215 l 510 -341 q 472 -349 491 -346 q 428 -352 452 -352 q 279 -308 340 -352 q 218 -181 218 -263 q 256 -61 218 -108 q 360 17 294 -14 q 506 72 426 47 z "},"Ĩ":{"ha":833,"x_min":104,"x_max":729,"o":"m 729 963 l 729 796 l 531 796 l 531 167 l 729 167 l 729 0 l 104 0 l 104 167 l 303 167 l 303 796 l 104 796 l 104 963 l 729 963 z "},"J":{"ha":833,"x_min":54,"x_max":732,"o":"m 732 963 l 732 347 q 631 78 732 178 q 345 -21 530 -21 q 184 3 252 -21 q 54 69 117 27 l 141 210 q 233 162 190 176 q 331 149 276 149 q 455 196 406 149 q 505 344 505 244 l 505 796 l 209 796 l 209 963 l 732 963 z "},"Ĵ":{"ha":833,"x_min":54,"x_max":752,"o":"m 732 963 l 732 347 q 631 78 732 178 q 345 -21 530 -21 q 184 3 252 -21 q 54 69 117 27 l 141 210 q 233 162 190 176 q 331 149 276 149 q 455 196 406 149 q 505 344 505 244 l 505 796 l 209 796 l 209 963 l 732 963 m 556 1310 l 752 1128 l 674 1040 l 489 1157 l 304 1040 l 224 1128 l 422 1310 l 556 1310 z "},"K":{"ha":833,"x_min":82,"x_max":845,"o":"m 310 0 l 82 0 l 82 963 l 310 963 l 310 0 m 317 514 l 580 963 l 819 963 l 547 531 l 845 0 l 581 0 l 317 514 z "},"Ķ":{"ha":833,"x_min":82,"x_max":845,"o":"m 310 0 l 82 0 l 82 963 l 310 963 l 310 0 m 317 514 l 580 963 l 819 963 l 547 531 l 845 0 l 581 0 l 317 514 z "},"L":{"ha":833,"x_min":129,"x_max":774,"o":"m 129 0 l 129 963 l 357 963 l 357 180 l 774 180 l 751 0 l 129 0 z "},"Ĺ":{"ha":833,"x_min":52,"x_max":774,"o":"m 129 0 l 129 963 l 357 963 l 357 180 l 774 180 l 751 0 l 129 0 m 351 1323 l 434 1160 l 104 1043 l 52 1154 l 351 1323 z "},"Ľ":{"ha":833,"x_min":129,"x_max":774,"o":"m 129 0 l 129 963 l 357 963 l 357 180 l 774 180 l 751 0 l 129 0 m 486 992 l 678 969 l 571 648 l 434 669 l 486 992 z "},"Ļ":{"ha":833,"x_min":129,"x_max":774,"o":"m 129 0 l 129 963 l 357 963 l 357 180 l 774 180 l 751 0 l 129 0 z "},"Ŀ":{"ha":833,"x_min":129,"x_max":776,"o":"m 129 0 l 129 963 l 357 963 l 357 180 l 774 180 l 751 0 l 129 0 m 647 658 q 740 623 704 658 q 776 535 776 588 q 740 446 776 482 q 647 410 704 410 q 553 446 590 410 q 517 535 517 482 q 553 623 517 588 q 647 658 590 658 z "},"Ł":{"ha":833,"x_min":13,"x_max":794,"o":"m 149 0 l 149 318 l 87 279 l 13 400 l 149 485 l 149 963 l 377 963 l 377 626 l 549 733 l 625 614 l 377 460 l 377 180 l 794 180 l 771 0 l 149 0 z "},"M":{"ha":833,"x_min":24,"x_max":809,"o":"m 755 963 l 809 0 l 610 0 l 599 412 q 598 544 597 488 q 602 652 599 601 q 610 769 606 704 l 502 164 l 330 164 l 213 769 q 222 655 219 708 q 227 544 226 602 q 226 408 228 485 l 219 0 l 24 0 l 78 963 l 313 963 l 419 340 l 521 963 l 755 963 z "},"N":{"ha":833,"x_min":72,"x_max":761,"o":"m 485 0 l 231 774 q 246 669 238 733 q 260 526 254 605 q 266 363 266 448 l 266 0 l 72 0 l 72 963 l 356 963 l 602 192 q 579 361 591 258 q 567 594 567 464 l 567 963 l 761 963 l 761 0 l 485 0 z "},"Ń":{"ha":833,"x_min":72,"x_max":761,"o":"m 485 0 l 231 774 q 246 669 238 733 q 260 526 254 605 q 266 363 266 448 l 266 0 l 72 0 l 72 963 l 356 963 l 602 192 q 579 361 591 258 q 567 594 567 464 l 567 963 l 761 963 l 761 0 l 485 0 m 538 1323 l 621 1160 l 291 1043 l 239 1154 l 538 1323 z "},"Ň":{"ha":833,"x_min":72,"x_max":761,"o":"m 485 0 l 231 774 q 246 669 238 733 q 260 526 254 605 q 266 363 266 448 l 266 0 l 72 0 l 72 963 l 356 963 l 602 192 q 579 361 591 258 q 567 594 567 464 l 567 963 l 761 963 l 761 0 l 485 0 m 615 1314 l 693 1224 l 497 1043 l 363 1043 l 165 1224 l 245 1314 l 430 1196 l 615 1314 z "},"Ņ":{"ha":833,"x_min":72,"x_max":761,"o":"m 485 0 l 231 774 q 246 669 238 733 q 260 526 254 605 q 266 363 266 448 l 266 0 l 72 0 l 72 963 l 356 963 l 602 192 q 579 361 591 258 q 567 594 567 464 l 567 963 l 761 963 l 761 0 l 485 0 z "},"Ŋ":{"ha":833,"x_min":72,"x_max":761,"o":"m 485 0 l 231 774 q 246 669 238 733 q 260 526 254 605 q 266 363 266 448 l 266 0 l 72 0 l 72 963 l 356 963 l 602 192 q 579 361 591 258 q 567 594 567 464 l 567 963 l 761 963 l 761 0 l 485 0 m 483 -316 q 375 -298 419 -316 q 294 -254 331 -281 l 378 -126 q 415 -143 397 -135 q 461 -150 433 -150 q 515 -129 496 -150 q 533 -56 533 -108 l 533 0 l 761 0 l 761 -37 q 688 -245 761 -174 q 483 -316 615 -316 z "},"Ñ":{"ha":833,"x_min":72,"x_max":761,"o":"m 485 0 l 231 774 q 246 669 238 733 q 260 526 254 605 q 266 363 266 448 l 266 0 l 72 0 l 72 963 l 356 963 l 602 192 q 579 361 591 258 q 567 594 567 464 l 567 963 l 761 963 l 761 0 l 485 0 z "},"O":{"ha":833,"x_min":31,"x_max":802,"o":"m 802 482 q 758 216 802 329 q 629 39 715 102 q 417 -24 543 -24 q 205 38 291 -24 q 75 213 119 99 q 31 482 31 326 q 75 748 31 635 q 205 924 119 861 q 417 987 291 987 q 629 926 543 987 q 758 751 715 865 q 802 482 802 638 m 569 482 q 533 740 569 660 q 417 821 498 821 q 300 740 335 821 q 265 482 265 659 q 301 224 265 304 q 417 143 337 143 q 534 225 500 143 q 569 482 569 306 z "},"Ó":{"ha":833,"x_min":31,"x_max":802,"o":"m 802 482 q 758 216 802 329 q 629 39 715 102 q 417 -24 543 -24 q 205 38 291 -24 q 75 213 119 99 q 31 482 31 326 q 75 748 31 635 q 205 924 119 861 q 417 987 291 987 q 629 926 543 987 q 758 751 715 865 q 802 482 802 638 m 569 482 q 533 740 569 660 q 417 821 498 821 q 300 740 335 821 q 265 482 265 659 q 301 224 265 304 q 417 143 337 143 q 534 225 500 143 q 569 482 569 306 m 525 1323 l 608 1160 l 278 1043 l 226 1154 l 525 1323 z "},"Ŏ":{"ha":833,"x_min":31,"x_max":802,"o":"m 802 482 q 758 216 802 329 q 629 39 715 102 q 417 -24 543 -24 q 205 38 291 -24 q 75 213 119 99 q 31 482 31 326 q 75 748 31 635 q 205 924 119 861 q 417 987 291 987 q 629 926 543 987 q 758 751 715 865 q 802 482 802 638 m 569 482 q 533 740 569 660 q 417 821 498 821 q 300 740 335 821 q 265 482 265 659 q 301 224 265 304 q 417 143 337 143 q 534 225 500 143 q 569 482 569 306 m 417 1043 q 245 1106 302 1043 q 177 1258 188 1168 l 299 1279 q 417 1196 324 1196 q 535 1279 509 1196 l 656 1258 q 589 1106 647 1168 q 417 1043 531 1043 z "},"Ô":{"ha":833,"x_min":31,"x_max":802,"o":"m 802 482 q 758 216 802 329 q 629 39 715 102 q 417 -24 543 -24 q 205 38 291 -24 q 75 213 119 99 q 31 482 31 326 q 75 748 31 635 q 205 924 119 861 q 417 987 291 987 q 629 926 543 987 q 758 751 715 865 q 802 482 802 638 m 569 482 q 533 740 569 660 q 417 821 498 821 q 300 740 335 821 q 265 482 265 659 q 301 224 265 304 q 417 143 337 143 q 534 225 500 143 q 569 482 569 306 m 484 1310 l 680 1128 l 601 1040 l 417 1157 l 232 1040 l 152 1128 l 349 1310 l 484 1310 z "},"Ö":{"ha":833,"x_min":31,"x_max":802,"o":"m 802 482 q 758 216 802 329 q 629 39 715 102 q 417 -24 543 -24 q 205 38 291 -24 q 75 213 119 99 q 31 482 31 326 q 75 748 31 635 q 205 924 119 861 q 417 987 291 987 q 629 926 543 987 q 758 751 715 865 q 802 482 802 638 m 569 482 q 533 740 569 660 q 417 821 498 821 q 300 740 335 821 q 265 482 265 659 q 301 224 265 304 q 417 143 337 143 q 534 225 500 143 q 569 482 569 306 z "},"Ò":{"ha":833,"x_min":31,"x_max":802,"o":"m 802 482 q 758 216 802 329 q 629 39 715 102 q 417 -24 543 -24 q 205 38 291 -24 q 75 213 119 99 q 31 482 31 326 q 75 748 31 635 q 205 924 119 861 q 417 987 291 987 q 629 926 543 987 q 758 751 715 865 q 802 482 802 638 m 569 482 q 533 740 569 660 q 417 821 498 821 q 300 740 335 821 q 265 482 265 659 q 301 224 265 304 q 417 143 337 143 q 534 225 500 143 q 569 482 569 306 m 308 1324 l 608 1154 l 555 1043 l 226 1160 l 308 1324 z "},"Ő":{"ha":833,"x_min":31,"x_max":802,"o":"m 802 482 q 758 216 802 329 q 629 39 715 102 q 417 -24 543 -24 q 205 38 291 -24 q 75 213 119 99 q 31 482 31 326 q 75 748 31 635 q 205 924 119 861 q 417 987 291 987 q 629 926 543 987 q 758 751 715 865 q 802 482 802 638 m 569 482 q 533 740 569 660 q 417 821 498 821 q 300 740 335 821 q 265 482 265 659 q 301 224 265 304 q 417 143 337 143 q 534 225 500 143 q 569 482 569 306 z "},"Ō":{"ha":833,"x_min":31,"x_max":802,"o":"m 802 482 q 758 216 802 329 q 629 39 715 102 q 417 -24 543 -24 q 205 38 291 -24 q 75 213 119 99 q 31 482 31 326 q 75 748 31 635 q 205 924 119 861 q 417 987 291 987 q 629 926 543 987 q 758 751 715 865 q 802 482 802 638 m 569 482 q 533 740 569 660 q 417 821 498 821 q 300 740 335 821 q 265 482 265 659 q 301 224 265 304 q 417 143 337 143 q 534 225 500 143 q 569 482 569 306 z "},"Ø":{"ha":833,"x_min":31,"x_max":802,"o":"m 417 987 q 488 981 453 987 l 528 1115 l 683 1070 l 634 917 q 758 744 715 855 q 802 482 802 633 q 758 216 802 329 q 629 39 715 102 q 417 -24 543 -24 q 344 -17 379 -24 l 305 -151 l 151 -106 l 198 47 q 75 220 118 109 q 31 482 31 331 q 75 748 31 635 q 205 924 119 861 q 417 987 291 987 m 417 825 q 294 744 331 825 q 256 482 256 663 q 288 231 256 311 l 462 819 q 417 825 442 825 m 577 482 q 570 627 577 565 q 547 731 563 689 l 375 144 q 417 139 394 139 q 541 221 504 139 q 577 482 577 303 z "},"Ǿ":{"ha":833,"x_min":31,"x_max":802,"o":"m 417 987 q 488 981 453 987 l 528 1115 l 683 1070 l 634 917 q 758 744 715 855 q 802 482 802 633 q 758 216 802 329 q 629 39 715 102 q 417 -24 543 -24 q 344 -17 379 -24 l 305 -151 l 151 -106 l 198 47 q 75 220 118 109 q 31 482 31 331 q 75 748 31 635 q 205 924 119 861 q 417 987 291 987 m 417 825 q 294 744 331 825 q 256 482 256 663 q 288 231 256 311 l 462 819 q 417 825 442 825 m 577 482 q 570 627 577 565 q 547 731 563 689 l 375 144 q 417 139 394 139 q 541 221 504 139 q 577 482 577 303 m 525 1323 l 608 1160 l 278 1043 l 226 1154 l 525 1323 z "},"Õ":{"ha":833,"x_min":31,"x_max":802,"o":"m 802 482 q 758 216 802 329 q 629 39 715 102 q 417 -24 543 -24 q 205 38 291 -24 q 75 213 119 99 q 31 482 31 326 q 75 748 31 635 q 205 924 119 861 q 417 987 291 987 q 629 926 543 987 q 758 751 715 865 q 802 482 802 638 m 569 482 q 533 740 569 660 q 417 821 498 821 q 300 740 335 821 q 265 482 265 659 q 301 224 265 304 q 417 143 337 143 q 534 225 500 143 q 569 482 569 306 z "},"Œ":{"ha":833,"x_min":13,"x_max":828,"o":"m 312 987 q 381 981 351 987 q 444 963 410 974 l 828 963 l 805 808 l 553 808 q 589 704 575 765 q 606 565 602 643 l 776 565 l 776 410 l 608 410 q 588 265 603 329 q 546 154 572 201 l 828 154 l 828 0 l 439 0 q 380 -16 409 -9 q 312 -24 351 -24 q 83 108 153 -24 q 13 482 13 240 q 83 853 13 719 q 312 987 153 987 m 313 832 q 230 752 251 832 q 208 482 208 672 q 232 211 208 292 q 313 131 256 131 q 398 211 374 131 q 422 482 422 292 q 413 689 422 613 q 379 799 403 765 q 313 832 356 832 z "},"P":{"ha":833,"x_min":87,"x_max":801,"o":"m 801 649 q 753 465 801 538 q 619 356 705 392 q 419 320 533 320 l 315 320 l 315 0 l 87 0 l 87 963 l 390 963 q 693 885 585 963 q 801 649 801 807 m 566 649 q 392 800 566 800 l 315 800 l 315 485 l 404 485 q 523 525 481 485 q 566 649 566 564 z "},"Þ":{"ha":833,"x_min":83,"x_max":801,"o":"m 311 963 l 311 807 l 388 807 q 692 729 583 807 q 801 492 801 651 q 699 242 801 322 q 418 162 597 162 l 311 162 l 311 0 l 83 0 l 83 963 l 311 963 m 394 644 l 311 644 l 311 326 l 403 326 q 520 363 478 326 q 563 490 563 400 q 520 608 563 572 q 394 644 476 644 z "},"Q":{"ha":833,"x_min":45,"x_max":881,"o":"m 798 482 q 754 226 798 340 q 595 55 710 113 q 725 18 671 42 q 816 -53 778 -7 q 881 -177 854 -99 l 694 -240 q 628 -119 664 -168 q 540 -44 593 -69 q 403 -19 487 -19 q 134 114 222 -19 q 45 482 45 248 q 86 748 45 635 q 211 924 128 861 q 421 987 295 987 q 704 851 610 987 q 798 482 798 716 m 560 482 q 532 739 560 658 q 421 819 503 819 q 310 739 340 819 q 281 482 281 658 q 311 224 281 306 q 421 143 341 143 q 532 225 504 143 q 560 482 560 306 z "},"R":{"ha":833,"x_min":81,"x_max":839,"o":"m 780 670 q 724 502 780 567 q 587 406 667 438 l 839 0 l 581 0 l 373 368 l 308 368 l 308 0 l 81 0 l 81 963 l 383 963 q 680 891 580 963 q 780 670 780 819 m 545 670 q 505 771 545 740 q 384 803 464 803 l 308 803 l 308 524 l 393 524 q 506 559 467 524 q 545 670 545 594 z "},"Ŕ":{"ha":833,"x_min":81,"x_max":839,"o":"m 780 670 q 724 502 780 567 q 587 406 667 438 l 839 0 l 581 0 l 373 368 l 308 368 l 308 0 l 81 0 l 81 963 l 383 963 q 680 891 580 963 q 780 670 780 819 m 545 670 q 505 771 545 740 q 384 803 464 803 l 308 803 l 308 524 l 393 524 q 506 559 467 524 q 545 670 545 594 m 525 1323 l 608 1160 l 278 1043 l 226 1154 l 525 1323 z "},"Ř":{"ha":833,"x_min":81,"x_max":839,"o":"m 780 670 q 724 502 780 567 q 587 406 667 438 l 839 0 l 581 0 l 373 368 l 308 368 l 308 0 l 81 0 l 81 963 l 383 963 q 680 891 580 963 q 780 670 780 819 m 545 670 q 505 771 545 740 q 384 803 464 803 l 308 803 l 308 524 l 393 524 q 506 559 467 524 q 545 670 545 594 m 601 1314 l 680 1224 l 484 1043 l 349 1043 l 152 1224 l 232 1314 l 417 1196 l 601 1314 z "},"Ŗ":{"ha":833,"x_min":81,"x_max":839,"o":"m 780 670 q 724 502 780 567 q 587 406 667 438 l 839 0 l 581 0 l 373 368 l 308 368 l 308 0 l 81 0 l 81 963 l 383 963 q 680 891 580 963 q 780 670 780 819 m 545 670 q 505 771 545 740 q 384 803 464 803 l 308 803 l 308 524 l 393 524 q 506 559 467 524 q 545 670 545 594 z "},"S":{"ha":833,"x_min":17,"x_max":789,"o":"m 789 281 q 742 123 789 192 q 608 15 695 54 q 397 -24 520 -24 q 169 16 261 -24 q 17 115 77 56 l 132 243 q 250 171 185 197 q 392 146 315 146 q 508 177 463 146 q 552 264 552 208 q 515 347 552 317 q 377 407 478 376 q 137 528 208 458 q 66 708 66 598 q 115 858 66 796 q 247 954 164 921 q 428 987 329 987 q 626 955 540 987 q 774 863 711 922 l 666 739 q 561 800 617 780 q 447 819 505 819 q 342 795 381 819 q 302 725 302 772 q 319 674 302 694 q 380 634 337 653 q 499 592 423 616 q 655 525 590 564 q 755 428 720 487 q 789 281 789 370 z "},"Ś":{"ha":833,"x_min":17,"x_max":789,"o":"m 789 281 q 742 123 789 192 q 608 15 695 54 q 397 -24 520 -24 q 169 16 261 -24 q 17 115 77 56 l 132 243 q 250 171 185 197 q 392 146 315 146 q 508 177 463 146 q 552 264 552 208 q 515 347 552 317 q 377 407 478 376 q 137 528 208 458 q 66 708 66 598 q 115 858 66 796 q 247 954 164 921 q 428 987 329 987 q 626 955 540 987 q 774 863 711 922 l 666 739 q 561 800 617 780 q 447 819 505 819 q 342 795 381 819 q 302 725 302 772 q 319 674 302 694 q 380 634 337 653 q 499 592 423 616 q 655 525 590 564 q 755 428 720 487 q 789 281 789 370 m 539 1323 l 622 1160 l 292 1043 l 240 1154 l 539 1323 z "},"Š":{"ha":833,"x_min":17,"x_max":789,"o":"m 789 281 q 742 123 789 192 q 608 15 695 54 q 397 -24 520 -24 q 169 16 261 -24 q 17 115 77 56 l 132 243 q 250 171 185 197 q 392 146 315 146 q 508 177 463 146 q 552 264 552 208 q 515 347 552 317 q 377 407 478 376 q 137 528 208 458 q 66 708 66 598 q 115 858 66 796 q 247 954 164 921 q 428 987 329 987 q 626 955 540 987 q 774 863 711 922 l 666 739 q 561 800 617 780 q 447 819 505 819 q 342 795 381 819 q 302 725 302 772 q 319 674 302 694 q 380 634 337 653 q 499 592 423 616 q 655 525 590 564 q 755 428 720 487 q 789 281 789 370 m 615 1314 l 694 1224 l 498 1043 l 363 1043 l 166 1224 l 246 1314 l 431 1196 l 615 1314 z "},"Ş":{"ha":833,"x_min":17,"x_max":789,"o":"m 789 281 q 742 123 789 192 q 608 15 695 54 q 397 -24 520 -24 q 169 16 261 -24 q 17 115 77 56 l 132 243 q 250 171 185 197 q 392 146 315 146 q 508 177 463 146 q 552 264 552 208 q 515 347 552 317 q 377 407 478 376 q 137 528 208 458 q 66 708 66 598 q 115 858 66 796 q 247 954 164 921 q 428 987 329 987 q 626 955 540 987 q 774 863 711 922 l 666 739 q 561 800 617 780 q 447 819 505 819 q 342 795 381 819 q 302 725 302 772 q 319 674 302 694 q 380 634 337 653 q 499 592 423 616 q 655 525 590 564 q 755 428 720 487 q 789 281 789 370 z "},"Ŝ":{"ha":833,"x_min":17,"x_max":789,"o":"m 789 281 q 742 123 789 192 q 608 15 695 54 q 397 -24 520 -24 q 169 16 261 -24 q 17 115 77 56 l 132 243 q 250 171 185 197 q 392 146 315 146 q 508 177 463 146 q 552 264 552 208 q 515 347 552 317 q 377 407 478 376 q 137 528 208 458 q 66 708 66 598 q 115 858 66 796 q 247 954 164 921 q 428 987 329 987 q 626 955 540 987 q 774 863 711 922 l 666 739 q 561 800 617 780 q 447 819 505 819 q 342 795 381 819 q 302 725 302 772 q 319 674 302 694 q 380 634 337 653 q 499 592 423 616 q 655 525 590 564 q 755 428 720 487 q 789 281 789 370 m 498 1310 l 694 1128 l 615 1040 l 431 1157 l 246 1040 l 166 1128 l 363 1310 l 498 1310 z "},"Ș":{"ha":833,"x_min":17,"x_max":789,"o":"m 789 281 q 742 123 789 192 q 608 15 695 54 q 397 -24 520 -24 q 169 16 261 -24 q 17 115 77 56 l 132 243 q 250 171 185 197 q 392 146 315 146 q 508 177 463 146 q 552 264 552 208 q 515 347 552 317 q 377 407 478 376 q 137 528 208 458 q 66 708 66 598 q 115 858 66 796 q 247 954 164 921 q 428 987 329 987 q 626 955 540 987 q 774 863 711 922 l 666 739 q 561 800 617 780 q 447 819 505 819 q 342 795 381 819 q 302 725 302 772 q 319 674 302 694 q 380 634 337 653 q 499 592 423 616 q 655 525 590 564 q 755 428 720 487 q 789 281 789 370 z "},"T":{"ha":833,"x_min":31,"x_max":810,"o":"m 529 788 l 529 0 l 301 0 l 301 788 l 31 788 l 31 963 l 810 963 l 787 788 l 529 788 z "},"Ŧ":{"ha":833,"x_min":31,"x_max":810,"o":"m 140 436 l 140 565 l 301 565 l 301 788 l 31 788 l 31 963 l 810 963 l 787 788 l 529 788 l 529 565 l 692 565 l 692 436 l 529 436 l 529 0 l 301 0 l 301 436 l 140 436 z "},"Ť":{"ha":833,"x_min":31,"x_max":810,"o":"m 529 788 l 529 0 l 301 0 l 301 788 l 31 788 l 31 963 l 810 963 l 787 788 l 529 788 m 600 1314 l 678 1224 l 483 1043 l 348 1043 l 151 1224 l 231 1314 l 415 1196 l 600 1314 z "},"Ţ":{"ha":833,"x_min":31,"x_max":810,"o":"m 529 788 l 529 0 l 301 0 l 301 788 l 31 788 l 31 963 l 810 963 l 787 788 l 529 788 z "},"Ț":{"ha":833,"x_min":31,"x_max":810,"o":"m 529 788 l 529 0 l 301 0 l 301 788 l 31 788 l 31 963 l 810 963 l 787 788 l 529 788 z "},"U":{"ha":833,"x_min":58,"x_max":775,"o":"m 775 963 l 775 322 q 735 145 775 224 q 616 22 695 67 q 417 -24 536 -24 q 217 20 297 -24 q 98 142 138 64 q 58 322 58 219 l 58 963 l 287 963 l 287 407 q 310 211 287 277 q 417 146 334 146 q 523 211 499 146 q 547 407 547 277 l 547 963 l 775 963 z "},"Ú":{"ha":833,"x_min":58,"x_max":775,"o":"m 775 963 l 775 322 q 735 145 775 224 q 616 22 695 67 q 417 -24 536 -24 q 217 20 297 -24 q 98 142 138 64 q 58 322 58 219 l 58 963 l 287 963 l 287 407 q 310 211 287 277 q 417 146 334 146 q 523 211 499 146 q 547 407 547 277 l 547 963 l 775 963 m 525 1323 l 608 1160 l 278 1043 l 226 1154 l 525 1323 z "},"Ŭ":{"ha":833,"x_min":58,"x_max":775,"o":"m 775 963 l 775 322 q 735 145 775 224 q 616 22 695 67 q 417 -24 536 -24 q 217 20 297 -24 q 98 142 138 64 q 58 322 58 219 l 58 963 l 287 963 l 287 407 q 310 211 287 277 q 417 146 334 146 q 523 211 499 146 q 547 407 547 277 l 547 963 l 775 963 m 417 1043 q 245 1106 302 1043 q 177 1258 188 1168 l 299 1279 q 417 1196 324 1196 q 535 1279 509 1196 l 656 1258 q 589 1106 647 1168 q 417 1043 531 1043 z "},"Û":{"ha":833,"x_min":58,"x_max":775,"o":"m 775 963 l 775 322 q 735 145 775 224 q 616 22 695 67 q 417 -24 536 -24 q 217 20 297 -24 q 98 142 138 64 q 58 322 58 219 l 58 963 l 287 963 l 287 407 q 310 211 287 277 q 417 146 334 146 q 523 211 499 146 q 547 407 547 277 l 547 963 l 775 963 m 484 1310 l 680 1128 l 601 1040 l 417 1157 l 232 1040 l 152 1128 l 349 1310 l 484 1310 z "},"Ü":{"ha":833,"x_min":58,"x_max":775,"o":"m 775 963 l 775 322 q 735 145 775 224 q 616 22 695 67 q 417 -24 536 -24 q 217 20 297 -24 q 98 142 138 64 q 58 322 58 219 l 58 963 l 287 963 l 287 407 q 310 211 287 277 q 417 146 334 146 q 523 211 499 146 q 547 407 547 277 l 547 963 l 775 963 z "},"Ù":{"ha":833,"x_min":58,"x_max":775,"o":"m 775 963 l 775 322 q 735 145 775 224 q 616 22 695 67 q 417 -24 536 -24 q 217 20 297 -24 q 98 142 138 64 q 58 322 58 219 l 58 963 l 287 963 l 287 407 q 310 211 287 277 q 417 146 334 146 q 523 211 499 146 q 547 407 547 277 l 547 963 l 775 963 m 308 1324 l 608 1154 l 555 1043 l 226 1160 l 308 1324 z "},"Ű":{"ha":833,"x_min":58,"x_max":775,"o":"m 775 963 l 775 322 q 735 145 775 224 q 616 22 695 67 q 417 -24 536 -24 q 217 20 297 -24 q 98 142 138 64 q 58 322 58 219 l 58 963 l 287 963 l 287 407 q 310 211 287 277 q 417 146 334 146 q 523 211 499 146 q 547 407 547 277 l 547 963 l 775 963 z "},"Ū":{"ha":833,"x_min":58,"x_max":775,"o":"m 775 963 l 775 322 q 735 145 775 224 q 616 22 695 67 q 417 -24 536 -24 q 217 20 297 -24 q 98 142 138 64 q 58 322 58 219 l 58 963 l 287 963 l 287 407 q 310 211 287 277 q 417 146 334 146 q 523 211 499 146 q 547 407 547 277 l 547 963 l 775 963 z "},"Ų":{"ha":833,"x_min":58,"x_max":775,"o":"m 775 963 l 775 322 q 735 145 775 224 q 616 22 695 67 q 417 -24 536 -24 q 217 20 297 -24 q 98 142 138 64 q 58 322 58 219 l 58 963 l 287 963 l 287 407 q 310 211 287 277 q 417 146 334 146 q 523 211 499 146 q 547 407 547 277 l 547 963 l 775 963 m 538 72 l 563 0 q 434 -72 466 -34 q 403 -153 403 -110 q 425 -204 403 -187 q 483 -221 447 -221 q 523 -218 506 -221 q 558 -211 541 -215 l 542 -341 q 503 -349 523 -346 q 460 -352 484 -352 q 311 -308 372 -352 q 250 -181 250 -263 q 288 -61 250 -108 q 392 17 326 -14 q 538 72 458 47 z "},"Ů":{"ha":833,"x_min":58,"x_max":775,"o":"m 775 963 l 775 322 q 735 145 775 224 q 616 22 695 67 q 417 -24 536 -24 q 217 20 297 -24 q 98 142 138 64 q 58 322 58 219 l 58 963 l 287 963 l 287 407 q 310 211 287 277 q 417 146 334 146 q 523 211 499 146 q 547 407 547 277 l 547 963 l 775 963 z "},"Ũ":{"ha":833,"x_min":58,"x_max":775,"o":"m 775 963 l 775 322 q 735 145 775 224 q 616 22 695 67 q 417 -24 536 -24 q 217 20 297 -24 q 98 142 138 64 q 58 322 58 219 l 58 963 l 287 963 l 287 407 q 310 211 287 277 q 417 146 334 146 q 523 211 499 146 q 547 407 547 277 l 547 963 l 775 963 z "},"V":{"ha":833,"x_min":-1,"x_max":835,"o":"m 421 178 l 602 963 l 835 963 l 558 0 l 276 0 l -1 963 l 241 963 l 421 178 z "},"W":{"ha":833,"x_min":-4,"x_max":838,"o":"m 838 963 l 725 0 l 488 0 l 418 688 l 341 0 l 100 0 l -4 963 l 209 963 l 242 194 l 322 851 l 517 851 l 592 194 l 640 963 l 838 963 z "},"Ẃ":{"ha":833,"x_min":-4,"x_max":838,"o":"m 838 963 l 725 0 l 488 0 l 418 688 l 341 0 l 100 0 l -4 963 l 209 963 l 242 194 l 322 851 l 517 851 l 592 194 l 640 963 l 838 963 m 525 1323 l 608 1160 l 278 1043 l 226 1154 l 525 1323 z "},"Ŵ":{"ha":833,"x_min":-4,"x_max":838,"o":"m 838 963 l 725 0 l 488 0 l 418 688 l 341 0 l 100 0 l -4 963 l 209 963 l 242 194 l 322 851 l 517 851 l 592 194 l 640 963 l 838 963 m 484 1310 l 680 1128 l 601 1040 l 417 1157 l 232 1040 l 152 1128 l 349 1310 l 484 1310 z "},"Ẅ":{"ha":833,"x_min":-4,"x_max":838,"o":"m 838 963 l 725 0 l 488 0 l 418 688 l 341 0 l 100 0 l -4 963 l 209 963 l 242 194 l 322 851 l 517 851 l 592 194 l 640 963 l 838 963 z "},"Ẁ":{"ha":833,"x_min":-4,"x_max":838,"o":"m 838 963 l 725 0 l 488 0 l 418 688 l 341 0 l 100 0 l -4 963 l 209 963 l 242 194 l 322 851 l 517 851 l 592 194 l 640 963 l 838 963 m 308 1324 l 608 1154 l 555 1043 l 226 1160 l 308 1324 z "},"X":{"ha":833,"x_min":5,"x_max":829,"o":"m 26 963 l 272 963 l 417 653 l 565 963 l 806 963 l 550 521 l 829 0 l 584 0 l 414 367 l 247 0 l 5 0 l 278 511 l 26 963 z "},"Y":{"ha":833,"x_min":-11,"x_max":844,"o":"m 531 361 l 531 0 l 303 0 l 303 360 l -11 963 l 238 963 l 421 548 l 605 963 l 844 963 l 531 361 z "},"Ý":{"ha":833,"x_min":-11,"x_max":844,"o":"m 531 361 l 531 0 l 303 0 l 303 360 l -11 963 l 238 963 l 421 548 l 605 963 l 844 963 l 531 361 m 525 1323 l 608 1160 l 278 1043 l 226 1154 l 525 1323 z "},"Ŷ":{"ha":833,"x_min":-11,"x_max":844,"o":"m 531 361 l 531 0 l 303 0 l 303 360 l -11 963 l 238 963 l 421 548 l 605 963 l 844 963 l 531 361 m 484 1310 l 680 1128 l 601 1040 l 417 1157 l 232 1040 l 152 1128 l 349 1310 l 484 1310 z "},"Ÿ":{"ha":833,"x_min":-11,"x_max":844,"o":"m 531 361 l 531 0 l 303 0 l 303 360 l -11 963 l 238 963 l 421 548 l 605 963 l 844 963 l 531 361 z "},"Ỳ":{"ha":833,"x_min":-11,"x_max":844,"o":"m 531 361 l 531 0 l 303 0 l 303 360 l -11 963 l 238 963 l 421 548 l 605 963 l 844 963 l 531 361 m 308 1324 l 608 1154 l 555 1043 l 226 1160 l 308 1324 z "},"Z":{"ha":833,"x_min":54,"x_max":781,"o":"m 322 181 l 781 181 l 757 0 l 54 0 l 54 170 l 511 787 l 104 787 l 104 963 l 770 963 l 770 791 l 322 181 z "},"Ź":{"ha":833,"x_min":54,"x_max":781,"o":"m 322 181 l 781 181 l 757 0 l 54 0 l 54 170 l 511 787 l 104 787 l 104 963 l 770 963 l 770 791 l 322 181 m 543 1323 l 626 1160 l 296 1043 l 244 1154 l 543 1323 z "},"Ž":{"ha":833,"x_min":54,"x_max":781,"o":"m 322 181 l 781 181 l 757 0 l 54 0 l 54 170 l 511 787 l 104 787 l 104 963 l 770 963 l 770 791 l 322 181 m 619 1314 l 698 1224 l 502 1043 l 367 1043 l 170 1224 l 250 1314 l 435 1196 l 619 1314 z "},"Ż":{"ha":833,"x_min":54,"x_max":781,"o":"m 322 181 l 781 181 l 757 0 l 54 0 l 54 170 l 511 787 l 104 787 l 104 963 l 770 963 l 770 791 l 322 181 z "},"a":{"ha":833,"x_min":49,"x_max":767,"o":"m 718 213 q 730 152 718 171 q 767 124 741 133 l 722 -21 q 611 8 656 -15 q 541 76 567 31 q 433 1 499 26 q 298 -24 367 -24 q 116 41 184 -24 q 49 208 49 106 q 143 394 49 328 q 408 459 237 459 l 507 459 l 507 487 q 361 600 507 600 q 270 590 326 600 q 159 561 215 580 l 108 707 q 257 748 180 734 q 396 762 335 762 q 639 695 560 762 q 718 501 718 628 l 718 213 m 374 133 q 448 155 409 133 q 507 215 487 176 l 507 334 l 453 334 q 318 306 361 334 q 275 224 275 278 q 301 157 275 181 q 374 133 327 133 z "},"á":{"ha":833,"x_min":49,"x_max":767,"o":"m 718 213 q 730 152 718 171 q 767 124 741 133 l 722 -21 q 611 8 656 -15 q 541 76 567 31 q 433 1 499 26 q 298 -24 367 -24 q 116 41 184 -24 q 49 208 49 106 q 143 394 49 328 q 408 459 237 459 l 507 459 l 507 487 q 361 600 507 600 q 270 590 326 600 q 159 561 215 580 l 108 707 q 257 748 180 734 q 396 762 335 762 q 639 695 560 762 q 718 501 718 628 l 718 213 m 374 133 q 448 155 409 133 q 507 215 487 176 l 507 334 l 453 334 q 318 306 361 334 q 275 224 275 278 q 301 157 275 181 q 374 133 327 133 m 513 1160 l 598 994 l 270 865 l 210 976 l 513 1160 z "},"ă":{"ha":833,"x_min":49,"x_max":767,"o":"m 718 213 q 730 152 718 171 q 767 124 741 133 l 722 -21 q 611 8 656 -15 q 541 76 567 31 q 433 1 499 26 q 298 -24 367 -24 q 116 41 184 -24 q 49 208 49 106 q 143 394 49 328 q 408 459 237 459 l 507 459 l 507 487 q 361 600 507 600 q 270 590 326 600 q 159 561 215 580 l 108 707 q 257 748 180 734 q 396 762 335 762 q 639 695 560 762 q 718 501 718 628 l 718 213 m 374 133 q 448 155 409 133 q 507 215 487 176 l 507 334 l 453 334 q 318 306 361 334 q 275 224 275 278 q 301 157 275 181 q 374 133 327 133 m 407 849 q 279 884 331 849 q 200 975 228 919 q 167 1092 173 1031 l 289 1113 q 330 1032 301 1063 q 407 1001 359 1001 q 484 1032 455 1001 q 525 1113 513 1063 l 647 1092 q 613 975 641 1031 q 534 884 585 919 q 407 849 483 849 z "},"â":{"ha":833,"x_min":49,"x_max":767,"o":"m 718 213 q 730 152 718 171 q 767 124 741 133 l 722 -21 q 611 8 656 -15 q 541 76 567 31 q 433 1 499 26 q 298 -24 367 -24 q 116 41 184 -24 q 49 208 49 106 q 143 394 49 328 q 408 459 237 459 l 507 459 l 507 487 q 361 600 507 600 q 270 590 326 600 q 159 561 215 580 l 108 707 q 257 748 180 734 q 396 762 335 762 q 639 695 560 762 q 718 501 718 628 l 718 213 m 374 133 q 448 155 409 133 q 507 215 487 176 l 507 334 l 453 334 q 318 306 361 334 q 275 224 275 278 q 301 157 275 181 q 374 133 327 133 m 223 849 l 142 939 l 340 1133 l 474 1133 l 670 939 l 592 849 l 407 980 l 223 849 z "},"ä":{"ha":833,"x_min":49,"x_max":767,"o":"m 718 213 q 730 152 718 171 q 767 124 741 133 l 722 -21 q 611 8 656 -15 q 541 76 567 31 q 433 1 499 26 q 298 -24 367 -24 q 116 41 184 -24 q 49 208 49 106 q 143 394 49 328 q 408 459 237 459 l 507 459 l 507 487 q 361 600 507 600 q 270 590 326 600 q 159 561 215 580 l 108 707 q 257 748 180 734 q 396 762 335 762 q 639 695 560 762 q 718 501 718 628 l 718 213 m 374 133 q 448 155 409 133 q 507 215 487 176 l 507 334 l 453 334 q 318 306 361 334 q 275 224 275 278 q 301 157 275 181 q 374 133 327 133 m 247 885 q 165 917 199 885 q 132 997 132 949 q 165 1075 132 1043 q 247 1107 199 1107 q 328 1075 295 1107 q 360 997 360 1043 q 328 917 360 949 q 247 885 295 885 m 567 885 q 487 917 521 885 q 453 997 453 949 q 487 1075 453 1043 q 567 1107 521 1107 q 649 1075 616 1107 q 682 997 682 1043 q 649 917 682 949 q 567 885 616 885 z "},"à":{"ha":833,"x_min":49,"x_max":767,"o":"m 718 213 q 730 152 718 171 q 767 124 741 133 l 722 -21 q 611 8 656 -15 q 541 76 567 31 q 433 1 499 26 q 298 -24 367 -24 q 116 41 184 -24 q 49 208 49 106 q 143 394 49 328 q 408 459 237 459 l 507 459 l 507 487 q 361 600 507 600 q 270 590 326 600 q 159 561 215 580 l 108 707 q 257 748 180 734 q 396 762 335 762 q 639 695 560 762 q 718 501 718 628 l 718 213 m 374 133 q 448 155 409 133 q 507 215 487 176 l 507 334 l 453 334 q 318 306 361 334 q 275 224 275 278 q 301 157 275 181 q 374 133 327 133 m 544 864 l 216 994 l 301 1159 l 604 975 l 544 864 z "},"ā":{"ha":833,"x_min":49,"x_max":767,"o":"m 718 213 q 730 152 718 171 q 767 124 741 133 l 722 -21 q 611 8 656 -15 q 541 76 567 31 q 433 1 499 26 q 298 -24 367 -24 q 116 41 184 -24 q 49 208 49 106 q 143 394 49 328 q 408 459 237 459 l 507 459 l 507 487 q 361 600 507 600 q 270 590 326 600 q 159 561 215 580 l 108 707 q 257 748 180 734 q 396 762 335 762 q 639 695 560 762 q 718 501 718 628 l 718 213 m 374 133 q 448 155 409 133 q 507 215 487 176 l 507 334 l 453 334 q 318 306 361 334 q 275 224 275 278 q 301 157 275 181 q 374 133 327 133 m 619 913 l 195 913 l 195 1066 l 619 1066 l 619 913 z "},"ą":{"ha":833,"x_min":49,"x_max":767,"o":"m 718 213 q 730 152 718 171 q 767 124 741 133 l 722 -21 q 611 8 656 -15 q 541 76 567 31 q 433 1 499 26 q 298 -24 367 -24 q 116 41 184 -24 q 49 208 49 106 q 143 394 49 328 q 408 459 237 459 l 507 459 l 507 487 q 361 600 507 600 q 270 590 326 600 q 159 561 215 580 l 108 707 q 257 748 180 734 q 396 762 335 762 q 639 695 560 762 q 718 501 718 628 l 718 213 m 374 133 q 448 155 409 133 q 507 215 487 176 l 507 334 l 453 334 q 318 306 361 334 q 275 224 275 278 q 301 157 275 181 q 374 133 327 133 m 697 51 l 722 -21 q 593 -93 625 -55 q 562 -174 562 -131 q 584 -225 562 -208 q 642 -242 606 -242 q 682 -239 665 -242 q 717 -232 700 -236 l 701 -362 q 663 -370 682 -367 q 619 -373 643 -373 q 470 -328 531 -373 q 409 -201 409 -284 q 447 -82 409 -128 q 551 -4 485 -35 q 697 51 617 26 z "},"å":{"ha":833,"x_min":49,"x_max":767,"o":"m 718 213 q 730 152 718 171 q 767 124 741 133 l 722 -21 q 611 8 656 -15 q 541 76 567 31 q 433 1 499 26 q 298 -24 367 -24 q 116 41 184 -24 q 49 208 49 106 q 143 394 49 328 q 408 459 237 459 l 507 459 l 507 487 q 361 600 507 600 q 270 590 326 600 q 159 561 215 580 l 108 707 q 257 748 180 734 q 396 762 335 762 q 639 695 560 762 q 718 501 718 628 l 718 213 m 374 133 q 448 155 409 133 q 507 215 487 176 l 507 334 l 453 334 q 318 306 361 334 q 275 224 275 278 q 301 157 275 181 q 374 133 327 133 m 406 1201 q 548 1147 496 1201 q 599 1019 599 1093 q 576 928 599 970 q 509 861 553 886 q 406 835 466 835 q 303 861 347 835 q 237 928 260 886 q 214 1019 214 970 q 265 1147 214 1093 q 406 1201 317 1201 m 406 1088 q 361 1070 378 1088 q 344 1019 344 1053 q 361 966 344 983 q 406 949 378 949 q 451 966 434 949 q 469 1019 469 983 q 451 1070 469 1053 q 406 1088 434 1088 z "},"ã":{"ha":833,"x_min":49,"x_max":767,"o":"m 718 213 q 730 152 718 171 q 767 124 741 133 l 722 -21 q 611 8 656 -15 q 541 76 567 31 q 433 1 499 26 q 298 -24 367 -24 q 116 41 184 -24 q 49 208 49 106 q 143 394 49 328 q 408 459 237 459 l 507 459 l 507 487 q 361 600 507 600 q 270 590 326 600 q 159 561 215 580 l 108 707 q 257 748 180 734 q 396 762 335 762 q 639 695 560 762 q 718 501 718 628 l 718 213 m 374 133 q 448 155 409 133 q 507 215 487 176 l 507 334 l 453 334 q 318 306 361 334 q 275 224 275 278 q 301 157 275 181 q 374 133 327 133 m 485 881 q 418 897 444 881 q 370 928 391 913 q 326 944 349 944 q 285 928 301 944 q 253 883 269 913 l 142 937 q 214 1052 169 1003 q 322 1101 259 1101 q 392 1085 365 1101 q 439 1054 419 1069 q 483 1038 460 1038 q 522 1053 506 1038 q 556 1098 538 1068 l 666 1044 q 593 928 639 974 q 485 881 547 881 z "},"æ":{"ha":833,"x_min":-8,"x_max":833,"o":"m 594 762 q 779 664 725 762 q 833 383 833 566 q 829 314 833 347 l 495 314 q 629 121 513 121 q 691 133 663 121 q 750 166 720 144 l 833 56 q 740 -1 792 22 q 617 -24 687 -24 q 485 7 540 -24 q 395 94 431 38 q 312 5 355 34 q 199 -24 269 -24 q 47 42 102 -24 q -8 211 -8 108 q 61 392 -8 329 q 273 454 130 454 l 330 454 l 330 487 q 298 592 330 558 q 206 627 266 627 q 145 620 173 627 q 76 592 118 613 l 27 713 q 127 749 81 736 q 228 762 173 762 q 349 735 304 762 q 419 664 394 708 q 488 735 444 708 q 594 762 532 762 m 587 624 q 522 583 544 624 q 495 433 499 542 l 668 433 q 651 578 667 531 q 587 624 635 624 m 330 335 l 300 335 q 203 305 231 335 q 175 221 175 275 q 191 147 175 174 q 238 119 208 119 q 291 141 268 119 q 335 206 315 163 q 331 270 333 237 q 330 335 330 304 z "},"ǽ":{"ha":833,"x_min":-8,"x_max":833,"o":"m 594 762 q 779 664 725 762 q 833 383 833 566 q 829 314 833 347 l 495 314 q 629 121 513 121 q 691 133 663 121 q 750 166 720 144 l 833 56 q 740 -1 792 22 q 617 -24 687 -24 q 485 7 540 -24 q 395 94 431 38 q 312 5 355 34 q 199 -24 269 -24 q 47 42 102 -24 q -8 211 -8 108 q 61 392 -8 329 q 273 454 130 454 l 330 454 l 330 487 q 298 592 330 558 q 206 627 266 627 q 145 620 173 627 q 76 592 118 613 l 27 713 q 127 749 81 736 q 228 762 173 762 q 349 735 304 762 q 419 664 394 708 q 488 735 444 708 q 594 762 532 762 m 587 624 q 522 583 544 624 q 495 433 499 542 l 668 433 q 651 578 667 531 q 587 624 635 624 m 330 335 l 300 335 q 203 305 231 335 q 175 221 175 275 q 191 147 175 174 q 238 119 208 119 q 291 141 268 119 q 335 206 315 163 q 331 270 333 237 q 330 335 330 304 m 525 1160 l 610 994 l 283 865 l 222 976 l 525 1160 z "},"b":{"ha":833,"x_min":97,"x_max":778,"o":"m 317 662 q 400 735 351 708 q 506 762 449 762 q 713 656 648 762 q 778 371 778 551 q 744 168 778 257 q 644 27 710 78 q 483 -24 578 -24 q 300 67 367 -24 l 292 0 l 97 0 l 97 1031 l 317 1053 l 317 662 m 425 136 q 517 190 483 136 q 551 368 551 244 q 537 510 551 460 q 497 580 523 560 q 436 600 471 600 q 370 577 399 600 q 317 515 341 554 l 317 203 q 363 153 338 171 q 425 136 389 136 z "},"c":{"ha":833,"x_min":95,"x_max":751,"o":"m 488 149 q 573 167 533 149 q 653 213 613 185 l 751 74 q 632 4 702 32 q 476 -24 563 -24 q 272 25 358 -24 q 141 161 187 74 q 95 364 95 249 q 142 569 95 479 q 275 710 189 659 q 481 762 362 762 q 630 739 565 762 q 751 669 696 715 l 656 538 q 576 578 618 564 q 490 593 535 593 q 370 541 415 593 q 324 364 324 488 q 346 236 324 283 q 405 169 367 189 q 488 149 442 149 z "},"ć":{"ha":833,"x_min":95,"x_max":751,"o":"m 488 149 q 573 167 533 149 q 653 213 613 185 l 751 74 q 632 4 702 32 q 476 -24 563 -24 q 272 25 358 -24 q 141 161 187 74 q 95 364 95 249 q 142 569 95 479 q 275 710 189 659 q 481 762 362 762 q 630 739 565 762 q 751 669 696 715 l 656 538 q 576 578 618 564 q 490 593 535 593 q 370 541 415 593 q 324 364 324 488 q 346 236 324 283 q 405 169 367 189 q 488 149 442 149 m 583 1142 l 669 976 l 341 847 l 281 958 l 583 1142 z "},"č":{"ha":833,"x_min":95,"x_max":751,"o":"m 488 149 q 573 167 533 149 q 653 213 613 185 l 751 74 q 632 4 702 32 q 476 -24 563 -24 q 272 25 358 -24 q 141 161 187 74 q 95 364 95 249 q 142 569 95 479 q 275 710 189 659 q 481 762 362 762 q 630 739 565 762 q 751 669 696 715 l 656 538 q 576 578 618 564 q 490 593 535 593 q 370 541 415 593 q 324 364 324 488 q 346 236 324 283 q 405 169 367 189 q 488 149 442 149 m 663 1115 l 741 1025 l 545 831 l 410 831 l 213 1025 l 294 1115 l 478 984 l 663 1115 z "},"ç":{"ha":833,"x_min":95,"x_max":751,"o":"m 488 149 q 573 167 533 149 q 653 213 613 185 l 751 74 q 632 4 702 32 q 476 -24 563 -24 q 272 25 358 -24 q 141 161 187 74 q 95 364 95 249 q 142 569 95 479 q 275 710 189 659 q 481 762 362 762 q 630 739 565 762 q 751 669 696 715 l 656 538 q 576 578 618 564 q 490 593 535 593 q 370 541 415 593 q 324 364 324 488 q 346 236 324 283 q 405 169 367 189 q 488 149 442 149 m 498 -201 q 466 -164 498 -174 q 370 -155 434 -155 l 390 22 l 512 22 l 512 -67 q 620 -111 585 -75 q 656 -204 656 -148 q 600 -320 656 -275 q 449 -365 543 -365 q 357 -351 399 -365 q 285 -322 314 -338 l 337 -221 q 380 -238 357 -231 q 426 -244 403 -244 q 478 -235 459 -244 q 498 -201 498 -225 z "},"ĉ":{"ha":833,"x_min":95,"x_max":751,"o":"m 488 149 q 573 167 533 149 q 653 213 613 185 l 751 74 q 632 4 702 32 q 476 -24 563 -24 q 272 25 358 -24 q 141 161 187 74 q 95 364 95 249 q 142 569 95 479 q 275 710 189 659 q 481 762 362 762 q 630 739 565 762 q 751 669 696 715 l 656 538 q 576 578 618 564 q 490 593 535 593 q 370 541 415 593 q 324 364 324 488 q 346 236 324 283 q 405 169 367 189 q 488 149 442 149 m 294 831 l 213 921 l 410 1115 l 545 1115 l 741 921 l 663 831 l 478 962 l 294 831 z "},"ċ":{"ha":833,"x_min":95,"x_max":751,"o":"m 488 149 q 573 167 533 149 q 653 213 613 185 l 751 74 q 632 4 702 32 q 476 -24 563 -24 q 272 25 358 -24 q 141 161 187 74 q 95 364 95 249 q 142 569 95 479 q 275 710 189 659 q 481 762 362 762 q 630 739 565 762 q 751 669 696 715 l 656 538 q 576 578 618 564 q 490 593 535 593 q 370 541 415 593 q 324 364 324 488 q 346 236 324 283 q 405 169 367 189 q 488 149 442 149 m 478 1106 q 571 1070 535 1106 q 607 982 607 1035 q 571 893 607 929 q 478 858 535 858 q 384 893 420 858 q 347 982 347 929 q 384 1070 347 1035 q 478 1106 420 1106 z "},"d":{"ha":833,"x_min":56,"x_max":736,"o":"m 517 1053 l 736 1031 l 736 0 l 542 0 l 531 81 q 449 7 500 38 q 326 -24 399 -24 q 175 26 235 -24 q 85 164 115 75 q 56 371 56 252 q 91 573 56 485 q 192 711 126 661 q 349 762 258 762 q 517 694 449 762 l 517 1053 m 408 601 q 317 548 351 601 q 282 369 282 494 q 297 228 282 278 q 337 158 311 178 q 396 138 363 138 q 463 160 433 138 q 517 223 493 183 l 517 541 q 468 585 494 569 q 408 601 442 601 z "},"ð":{"ha":833,"x_min":55,"x_max":773,"o":"m 175 793 l 256 877 q 195 895 227 887 q 129 910 164 903 l 172 1053 q 375 1002 290 1035 l 476 1108 l 589 1010 l 515 935 q 711 710 650 849 q 773 384 773 571 q 731 178 773 270 q 608 31 689 85 q 408 -24 526 -24 q 229 18 309 -24 q 102 137 149 59 q 55 325 55 215 q 96 505 55 428 q 206 626 138 583 q 353 669 274 669 q 459 652 415 669 q 540 599 502 634 q 478 722 516 671 q 391 808 440 772 l 314 729 l 175 793 m 551 356 q 551 407 551 383 q 549 456 551 432 q 411 515 495 515 q 315 469 351 515 q 278 328 278 424 q 315 181 278 226 q 413 136 351 136 q 517 191 484 136 q 551 356 551 245 z "},"ď":{"ha":833,"x_min":2,"x_max":962,"o":"m 463 1053 l 683 1031 l 683 0 l 488 0 l 477 81 q 396 7 447 38 q 273 -24 345 -24 q 121 26 181 -24 q 32 164 61 75 q 2 371 2 252 q 38 573 2 485 q 139 711 73 661 q 296 762 205 762 q 463 694 395 762 l 463 1053 m 355 601 q 263 548 298 601 q 228 369 228 494 q 243 228 228 278 q 283 158 258 178 q 342 138 309 138 q 409 160 379 138 q 463 223 440 183 l 463 541 q 415 585 440 569 q 355 601 389 601 m 770 1060 l 962 1038 l 855 716 l 718 738 l 770 1060 z "},"đ":{"ha":833,"x_min":30,"x_max":822,"o":"m 491 1053 l 710 1031 l 710 952 l 822 952 l 822 824 l 710 824 l 710 0 l 516 0 l 505 81 q 424 7 474 38 q 301 -24 373 -24 q 149 26 209 -24 q 59 164 89 75 q 30 371 30 252 q 65 573 30 485 q 167 711 101 661 q 324 762 233 762 q 491 694 423 762 l 491 824 l 322 824 l 322 952 l 491 952 l 491 1053 m 383 601 q 291 548 326 601 q 256 369 256 494 q 271 228 256 278 q 311 158 285 178 q 370 138 337 138 q 437 160 407 138 q 491 223 467 183 l 491 541 q 442 585 468 569 q 383 601 417 601 z "},"e":{"ha":833,"x_min":64,"x_max":769,"o":"m 288 305 q 347 175 299 215 q 465 136 394 136 q 563 153 515 136 q 653 197 610 169 l 742 78 q 616 5 690 33 q 447 -24 542 -24 q 235 27 321 -24 q 107 165 150 77 q 64 368 64 253 q 106 566 64 477 q 227 709 147 656 q 424 762 308 762 q 607 717 529 762 q 727 587 684 672 q 769 383 769 502 q 768 343 769 365 q 765 305 767 322 l 288 305 m 424 615 q 328 572 365 615 q 285 437 292 530 l 556 437 q 524 566 555 517 q 424 615 494 615 z "},"é":{"ha":833,"x_min":64,"x_max":769,"o":"m 288 305 q 347 175 299 215 q 465 136 394 136 q 563 153 515 136 q 653 197 610 169 l 742 78 q 616 5 690 33 q 447 -24 542 -24 q 235 27 321 -24 q 107 165 150 77 q 64 368 64 253 q 106 566 64 477 q 227 709 147 656 q 424 762 308 762 q 607 717 529 762 q 727 587 684 672 q 769 383 769 502 q 768 343 769 365 q 765 305 767 322 l 288 305 m 424 615 q 328 572 365 615 q 285 437 292 530 l 556 437 q 524 566 555 517 q 424 615 494 615 m 532 1160 l 617 994 l 290 865 l 229 976 l 532 1160 z "},"ĕ":{"ha":833,"x_min":64,"x_max":769,"o":"m 288 305 q 347 175 299 215 q 465 136 394 136 q 563 153 515 136 q 653 197 610 169 l 742 78 q 616 5 690 33 q 447 -24 542 -24 q 235 27 321 -24 q 107 165 150 77 q 64 368 64 253 q 106 566 64 477 q 227 709 147 656 q 424 762 308 762 q 607 717 529 762 q 727 587 684 672 q 769 383 769 502 q 768 343 769 365 q 765 305 767 322 l 288 305 m 424 615 q 328 572 365 615 q 285 437 292 530 l 556 437 q 524 566 555 517 q 424 615 494 615 m 426 849 q 299 884 350 849 q 220 975 247 919 q 187 1092 192 1031 l 308 1113 q 350 1032 321 1063 q 426 1001 378 1001 q 503 1032 474 1001 q 544 1113 532 1063 l 666 1092 q 633 975 660 1031 q 554 884 605 919 q 426 849 503 849 z "},"ě":{"ha":833,"x_min":64,"x_max":769,"o":"m 288 305 q 347 175 299 215 q 465 136 394 136 q 563 153 515 136 q 653 197 610 169 l 742 78 q 616 5 690 33 q 447 -24 542 -24 q 235 27 321 -24 q 107 165 150 77 q 64 368 64 253 q 106 566 64 477 q 227 709 147 656 q 424 762 308 762 q 607 717 529 762 q 727 587 684 672 q 769 383 769 502 q 768 343 769 365 q 765 305 767 322 l 288 305 m 424 615 q 328 572 365 615 q 285 437 292 530 l 556 437 q 524 566 555 517 q 424 615 494 615 m 611 1133 l 690 1043 l 494 849 l 359 849 l 162 1043 l 242 1133 l 426 1002 l 611 1133 z "},"ê":{"ha":833,"x_min":64,"x_max":769,"o":"m 288 305 q 347 175 299 215 q 465 136 394 136 q 563 153 515 136 q 653 197 610 169 l 742 78 q 616 5 690 33 q 447 -24 542 -24 q 235 27 321 -24 q 107 165 150 77 q 64 368 64 253 q 106 566 64 477 q 227 709 147 656 q 424 762 308 762 q 607 717 529 762 q 727 587 684 672 q 769 383 769 502 q 768 343 769 365 q 765 305 767 322 l 288 305 m 424 615 q 328 572 365 615 q 285 437 292 530 l 556 437 q 524 566 555 517 q 424 615 494 615 m 242 849 l 162 939 l 359 1133 l 494 1133 l 690 939 l 611 849 l 426 980 l 242 849 z "},"ë":{"ha":833,"x_min":64,"x_max":769,"o":"m 288 305 q 347 175 299 215 q 465 136 394 136 q 563 153 515 136 q 653 197 610 169 l 742 78 q 616 5 690 33 q 447 -24 542 -24 q 235 27 321 -24 q 107 165 150 77 q 64 368 64 253 q 106 566 64 477 q 227 709 147 656 q 424 762 308 762 q 607 717 529 762 q 727 587 684 672 q 769 383 769 502 q 768 343 769 365 q 765 305 767 322 l 288 305 m 424 615 q 328 572 365 615 q 285 437 292 530 l 556 437 q 524 566 555 517 q 424 615 494 615 m 266 885 q 185 917 218 885 q 151 997 151 949 q 185 1075 151 1043 q 266 1107 218 1107 q 347 1075 315 1107 q 380 997 380 1043 q 347 917 380 949 q 266 885 315 885 m 587 885 q 507 917 540 885 q 473 997 473 949 q 507 1075 473 1043 q 587 1107 540 1107 q 668 1075 635 1107 q 701 997 701 1043 q 668 917 701 949 q 587 885 635 885 z "},"ė":{"ha":833,"x_min":64,"x_max":769,"o":"m 288 305 q 347 175 299 215 q 465 136 394 136 q 563 153 515 136 q 653 197 610 169 l 742 78 q 616 5 690 33 q 447 -24 542 -24 q 235 27 321 -24 q 107 165 150 77 q 64 368 64 253 q 106 566 64 477 q 227 709 147 656 q 424 762 308 762 q 607 717 529 762 q 727 587 684 672 q 769 383 769 502 q 768 343 769 365 q 765 305 767 322 l 288 305 m 424 615 q 328 572 365 615 q 285 437 292 530 l 556 437 q 524 566 555 517 q 424 615 494 615 m 426 1124 q 519 1088 483 1124 q 556 1000 556 1053 q 519 911 556 947 q 426 876 483 876 q 332 911 369 876 q 296 1000 296 947 q 332 1088 296 1053 q 426 1124 369 1124 z "},"è":{"ha":833,"x_min":64,"x_max":769,"o":"m 288 305 q 347 175 299 215 q 465 136 394 136 q 563 153 515 136 q 653 197 610 169 l 742 78 q 616 5 690 33 q 447 -24 542 -24 q 235 27 321 -24 q 107 165 150 77 q 64 368 64 253 q 106 566 64 477 q 227 709 147 656 q 424 762 308 762 q 607 717 529 762 q 727 587 684 672 q 769 383 769 502 q 768 343 769 365 q 765 305 767 322 l 288 305 m 424 615 q 328 572 365 615 q 285 437 292 530 l 556 437 q 524 566 555 517 q 424 615 494 615 m 563 864 l 235 994 l 321 1159 l 624 975 l 563 864 z "},"ē":{"ha":833,"x_min":64,"x_max":769,"o":"m 288 305 q 347 175 299 215 q 465 136 394 136 q 563 153 515 136 q 653 197 610 169 l 742 78 q 616 5 690 33 q 447 -24 542 -24 q 235 27 321 -24 q 107 165 150 77 q 64 368 64 253 q 106 566 64 477 q 227 709 147 656 q 424 762 308 762 q 607 717 529 762 q 727 587 684 672 q 769 383 769 502 q 768 343 769 365 q 765 305 767 322 l 288 305 m 424 615 q 328 572 365 615 q 285 437 292 530 l 556 437 q 524 566 555 517 q 424 615 494 615 m 638 913 l 215 913 l 215 1066 l 638 1066 l 638 913 z "},"ę":{"ha":833,"x_min":64,"x_max":769,"o":"m 288 305 q 347 175 299 215 q 465 136 394 136 q 563 153 515 136 q 653 197 610 169 l 742 78 q 616 5 690 33 q 447 -24 542 -24 q 235 27 321 -24 q 107 165 150 77 q 64 368 64 253 q 106 566 64 477 q 227 709 147 656 q 424 762 308 762 q 607 717 529 762 q 727 587 684 672 q 769 383 769 502 q 768 343 769 365 q 765 305 767 322 l 288 305 m 424 615 q 328 572 365 615 q 285 437 292 530 l 556 437 q 524 566 555 517 q 424 615 494 615 m 580 58 l 604 0 q 476 -72 508 -34 q 444 -153 444 -110 q 466 -204 444 -187 q 525 -221 488 -221 q 565 -218 547 -221 q 600 -211 583 -215 l 583 -341 q 545 -349 565 -346 q 501 -352 526 -352 q 352 -308 413 -352 q 292 -181 292 -263 q 330 -70 292 -115 q 434 5 368 -25 q 580 58 499 35 z "},"f":{"ha":833,"x_min":106,"x_max":819,"o":"m 567 1053 q 709 1041 647 1053 q 819 1007 771 1028 l 759 864 q 681 885 721 878 q 601 892 640 892 q 507 868 535 892 q 479 790 479 844 l 479 691 l 719 691 l 695 539 l 479 539 l 479 0 l 261 0 l 261 539 l 106 539 l 106 691 l 261 691 l 261 798 q 296 928 261 871 q 399 1020 331 986 q 567 1053 467 1053 z "},"g":{"ha":833,"x_min":43,"x_max":803,"o":"m 752 856 l 803 694 q 713 672 765 679 q 591 665 660 665 q 697 591 660 635 q 733 476 733 547 q 695 348 733 404 q 587 260 657 292 q 421 228 517 228 q 335 237 375 228 q 311 194 311 224 q 325 163 311 177 q 392 149 340 149 l 513 149 q 718 89 642 149 q 794 -64 794 28 q 695 -242 794 -177 q 400 -308 596 -308 q 181 -279 258 -308 q 73 -197 103 -250 q 43 -71 43 -144 l 238 -71 q 250 -123 238 -103 q 300 -153 263 -144 q 406 -163 336 -163 q 513 -152 476 -163 q 563 -122 549 -141 q 576 -79 576 -103 q 551 -26 576 -47 q 469 -6 525 -6 l 352 -6 q 178 38 233 -6 q 124 141 124 82 q 146 219 124 182 q 208 281 168 256 q 106 369 137 318 q 76 492 76 420 q 118 635 76 575 q 235 728 160 695 q 406 760 310 760 q 549 772 488 759 q 659 807 610 785 q 752 856 708 830 m 411 618 q 328 585 359 618 q 298 494 298 552 q 329 401 298 433 q 411 368 360 368 q 524 497 524 368 q 411 618 524 618 z "},"ğ":{"ha":833,"x_min":43,"x_max":803,"o":"m 752 856 l 803 694 q 713 672 765 679 q 591 665 660 665 q 697 591 660 635 q 733 476 733 547 q 695 348 733 404 q 587 260 657 292 q 421 228 517 228 q 335 237 375 228 q 311 194 311 224 q 325 163 311 177 q 392 149 340 149 l 513 149 q 718 89 642 149 q 794 -64 794 28 q 695 -242 794 -177 q 400 -308 596 -308 q 181 -279 258 -308 q 73 -197 103 -250 q 43 -71 43 -144 l 238 -71 q 250 -123 238 -103 q 300 -153 263 -144 q 406 -163 336 -163 q 513 -152 476 -163 q 563 -122 549 -141 q 576 -79 576 -103 q 551 -26 576 -47 q 469 -6 525 -6 l 352 -6 q 178 38 233 -6 q 124 141 124 82 q 146 219 124 182 q 208 281 168 256 q 106 369 137 318 q 76 492 76 420 q 118 635 76 575 q 235 728 160 695 q 406 760 310 760 q 549 772 488 759 q 659 807 610 785 q 752 856 708 830 m 411 618 q 328 585 359 618 q 298 494 298 552 q 329 401 298 433 q 411 368 360 368 q 524 497 524 368 q 411 618 524 618 m 418 849 q 290 884 342 849 q 211 975 239 919 q 178 1092 184 1031 l 300 1113 q 341 1032 313 1063 q 418 1001 370 1001 q 495 1032 466 1001 q 536 1113 524 1063 l 658 1092 q 624 975 652 1031 q 545 884 597 919 q 418 849 494 849 z "},"ĝ":{"ha":833,"x_min":43,"x_max":803,"o":"m 752 856 l 803 694 q 713 672 765 679 q 591 665 660 665 q 697 591 660 635 q 733 476 733 547 q 695 348 733 404 q 587 260 657 292 q 421 228 517 228 q 335 237 375 228 q 311 194 311 224 q 325 163 311 177 q 392 149 340 149 l 513 149 q 718 89 642 149 q 794 -64 794 28 q 695 -242 794 -177 q 400 -308 596 -308 q 181 -279 258 -308 q 73 -197 103 -250 q 43 -71 43 -144 l 238 -71 q 250 -123 238 -103 q 300 -153 263 -144 q 406 -163 336 -163 q 513 -152 476 -163 q 563 -122 549 -141 q 576 -79 576 -103 q 551 -26 576 -47 q 469 -6 525 -6 l 352 -6 q 178 38 233 -6 q 124 141 124 82 q 146 219 124 182 q 208 281 168 256 q 106 369 137 318 q 76 492 76 420 q 118 635 76 575 q 235 728 160 695 q 406 760 310 760 q 549 772 488 759 q 659 807 610 785 q 752 856 708 830 m 411 618 q 328 585 359 618 q 298 494 298 552 q 329 401 298 433 q 411 368 360 368 q 524 497 524 368 q 411 618 524 618 m 234 849 l 153 939 l 351 1133 l 485 1133 l 681 939 l 603 849 l 418 980 l 234 849 z "},"ģ":{"ha":833,"x_min":43,"x_max":803,"o":"m 752 856 l 803 694 q 713 672 765 679 q 591 665 660 665 q 697 591 660 635 q 733 476 733 547 q 695 348 733 404 q 587 260 657 292 q 421 228 517 228 q 335 237 375 228 q 311 194 311 224 q 325 163 311 177 q 392 149 340 149 l 513 149 q 718 89 642 149 q 794 -64 794 28 q 695 -242 794 -177 q 400 -308 596 -308 q 181 -279 258 -308 q 73 -197 103 -250 q 43 -71 43 -144 l 238 -71 q 250 -123 238 -103 q 300 -153 263 -144 q 406 -163 336 -163 q 513 -152 476 -163 q 563 -122 549 -141 q 576 -79 576 -103 q 551 -26 576 -47 q 469 -6 525 -6 l 352 -6 q 178 38 233 -6 q 124 141 124 82 q 146 219 124 182 q 208 281 168 256 q 106 369 137 318 q 76 492 76 420 q 118 635 76 575 q 235 728 160 695 q 406 760 310 760 q 549 772 488 759 q 659 807 610 785 q 752 856 708 830 m 411 618 q 328 585 359 618 q 298 494 298 552 q 329 401 298 433 q 411 368 360 368 q 524 497 524 368 q 411 618 524 618 m 418 828 q 340 858 372 828 q 309 935 309 889 q 318 990 309 960 q 342 1050 326 1019 l 410 1185 l 520 1185 l 483 1025 q 515 987 502 1009 q 528 935 528 965 q 497 859 528 891 q 418 828 465 828 z "},"ġ":{"ha":833,"x_min":43,"x_max":803,"o":"m 752 856 l 803 694 q 713 672 765 679 q 591 665 660 665 q 697 591 660 635 q 733 476 733 547 q 695 348 733 404 q 587 260 657 292 q 421 228 517 228 q 335 237 375 228 q 311 194 311 224 q 325 163 311 177 q 392 149 340 149 l 513 149 q 718 89 642 149 q 794 -64 794 28 q 695 -242 794 -177 q 400 -308 596 -308 q 181 -279 258 -308 q 73 -197 103 -250 q 43 -71 43 -144 l 238 -71 q 250 -123 238 -103 q 300 -153 263 -144 q 406 -163 336 -163 q 513 -152 476 -163 q 563 -122 549 -141 q 576 -79 576 -103 q 551 -26 576 -47 q 469 -6 525 -6 l 352 -6 q 178 38 233 -6 q 124 141 124 82 q 146 219 124 182 q 208 281 168 256 q 106 369 137 318 q 76 492 76 420 q 118 635 76 575 q 235 728 160 695 q 406 760 310 760 q 549 772 488 759 q 659 807 610 785 q 752 856 708 830 m 411 618 q 328 585 359 618 q 298 494 298 552 q 329 401 298 433 q 411 368 360 368 q 524 497 524 368 q 411 618 524 618 m 418 1124 q 511 1088 475 1124 q 547 1000 547 1053 q 511 911 547 947 q 418 876 475 876 q 324 911 360 876 q 288 1000 288 947 q 324 1088 288 1053 q 418 1124 360 1124 z "},"h":{"ha":833,"x_min":97,"x_max":736,"o":"m 317 1052 l 317 665 q 533 762 409 762 q 684 704 632 762 q 736 542 736 647 l 736 0 l 517 0 l 517 481 q 502 574 517 547 q 446 600 487 600 q 380 576 411 600 q 317 510 348 552 l 317 0 l 97 0 l 97 1031 l 317 1052 z "},"ħ":{"ha":833,"x_min":12,"x_max":736,"o":"m 512 952 l 512 824 l 317 824 l 317 665 q 533 762 409 762 q 684 704 632 762 q 736 542 736 647 l 736 0 l 517 0 l 517 481 q 502 574 517 547 q 446 600 487 600 q 380 576 411 600 q 317 510 348 552 l 317 0 l 97 0 l 97 824 l 12 824 l 12 952 l 97 952 l 97 1031 l 317 1052 l 317 952 l 512 952 z "},"ĥ":{"ha":833,"x_min":97,"x_max":736,"o":"m 317 1052 l 317 665 q 533 762 409 762 q 684 704 632 762 q 736 542 736 647 l 736 0 l 517 0 l 517 481 q 502 574 517 547 q 446 600 487 600 q 380 576 411 600 q 317 510 348 552 l 317 0 l 97 0 l 97 1031 l 317 1052 m 484 1378 l 680 1197 l 601 1108 l 417 1225 l 232 1108 l 152 1197 l 349 1378 l 484 1378 z "},"i":{"ha":833,"x_min":119,"x_max":735,"o":"m 415 1124 q 508 1088 472 1124 q 544 1000 544 1053 q 508 911 544 947 q 415 876 472 876 q 321 911 358 876 q 285 1000 285 947 q 321 1088 285 1053 q 415 1124 358 1124 m 548 738 l 548 150 l 735 150 l 735 0 l 119 0 l 119 150 l 328 150 l 328 588 l 126 588 l 126 738 l 548 738 z "},"ı":{"ha":833,"x_min":119,"x_max":735,"o":"m 548 738 l 548 150 l 735 150 l 735 0 l 119 0 l 119 150 l 328 150 l 328 588 l 126 588 l 126 738 l 548 738 z "},"í":{"ha":833,"x_min":119,"x_max":735,"o":"m 548 738 l 548 150 l 735 150 l 735 0 l 119 0 l 119 150 l 328 150 l 328 588 l 126 588 l 126 738 l 548 738 m 521 1160 l 606 994 l 278 865 l 218 976 l 521 1160 z "},"ĭ":{"ha":833,"x_min":119,"x_max":735,"o":"m 548 738 l 548 150 l 735 150 l 735 0 l 119 0 l 119 150 l 328 150 l 328 588 l 126 588 l 126 738 l 548 738 m 415 849 q 288 884 339 849 q 209 975 236 919 q 176 1092 181 1031 l 297 1113 q 339 1032 310 1063 q 415 1001 367 1001 q 492 1032 463 1001 q 533 1113 521 1063 l 655 1092 q 622 975 649 1031 q 543 884 594 919 q 415 849 492 849 z "},"î":{"ha":833,"x_min":119,"x_max":735,"o":"m 548 738 l 548 150 l 735 150 l 735 0 l 119 0 l 119 150 l 328 150 l 328 588 l 126 588 l 126 738 l 548 738 m 231 849 l 151 939 l 348 1133 l 483 1133 l 678 939 l 600 849 l 415 980 l 231 849 z "},"ï":{"ha":833,"x_min":119,"x_max":735,"o":"m 548 738 l 548 150 l 735 150 l 735 0 l 119 0 l 119 150 l 328 150 l 328 588 l 126 588 l 126 738 l 548 738 m 255 885 q 174 917 207 885 q 140 997 140 949 q 174 1075 140 1043 q 255 1107 207 1107 q 336 1075 303 1107 q 369 997 369 1043 q 336 917 369 949 q 255 885 303 885 m 576 885 q 495 917 529 885 q 462 997 462 949 q 495 1075 462 1043 q 576 1107 529 1107 q 657 1075 624 1107 q 690 997 690 1043 q 657 917 690 949 q 576 885 624 885 z "},"ì":{"ha":833,"x_min":119,"x_max":735,"o":"m 548 738 l 548 150 l 735 150 l 735 0 l 119 0 l 119 150 l 328 150 l 328 588 l 126 588 l 126 738 l 548 738 m 552 864 l 224 994 l 310 1159 l 613 975 l 552 864 z "},"ĳ":{"ha":833,"x_min":49,"x_max":764,"o":"m 253 1124 q 348 1088 310 1124 q 385 1000 385 1053 q 348 911 385 947 q 253 876 310 876 q 160 911 196 876 q 124 1000 124 947 q 160 1088 124 1053 q 253 1124 196 1124 m 633 1124 q 727 1088 690 1124 q 764 1000 764 1053 q 727 911 764 947 q 633 876 690 876 q 539 911 576 876 q 502 1000 502 947 q 539 1088 502 1053 q 633 1124 576 1124 m 757 738 l 757 169 q 708 -66 757 25 q 566 -212 659 -156 q 340 -308 473 -267 l 267 -146 q 418 -85 358 -118 q 509 4 478 -51 q 539 151 539 59 l 539 589 l 361 589 l 361 150 l 433 150 l 433 0 l 49 0 l 49 150 l 144 150 l 144 589 l 56 589 l 56 738 l 757 738 z "},"ī":{"ha":833,"x_min":119,"x_max":735,"o":"m 548 738 l 548 150 l 735 150 l 735 0 l 119 0 l 119 150 l 328 150 l 328 588 l 126 588 l 126 738 l 548 738 m 627 913 l 203 913 l 203 1066 l 627 1066 l 627 913 z "},"į":{"ha":833,"x_min":119,"x_max":735,"o":"m 548 738 l 548 150 l 735 150 l 735 0 l 119 0 l 119 150 l 328 150 l 328 588 l 126 588 l 126 738 l 548 738 m 415 1124 q 508 1088 472 1124 q 544 1000 544 1053 q 508 911 544 947 q 415 876 472 876 q 321 911 358 876 q 285 1000 285 947 q 321 1088 285 1053 q 415 1124 358 1124 m 524 72 l 548 0 q 420 -72 451 -34 q 388 -153 388 -110 q 410 -204 388 -187 q 469 -221 432 -221 q 509 -218 491 -221 q 544 -211 526 -215 l 527 -341 q 489 -349 508 -346 q 445 -352 469 -352 q 296 -308 357 -352 q 235 -181 235 -263 q 274 -61 235 -108 q 377 17 312 -14 q 524 72 443 47 z "},"ĩ":{"ha":833,"x_min":119,"x_max":735,"o":"m 548 738 l 548 150 l 735 150 l 735 0 l 119 0 l 119 150 l 328 150 l 328 588 l 126 588 l 126 738 l 548 738 m 493 881 q 426 897 453 881 q 378 928 399 913 q 335 944 358 944 q 293 928 309 944 q 261 883 278 913 l 151 937 q 222 1052 177 1003 q 331 1101 267 1101 q 400 1085 373 1101 q 448 1054 427 1069 q 492 1038 468 1038 q 531 1053 515 1038 q 564 1098 547 1068 l 674 1044 q 601 928 647 974 q 493 881 555 881 z "},"j":{"ha":833,"x_min":97,"x_max":656,"o":"m 514 1124 q 607 1088 571 1124 q 643 1000 643 1053 q 607 911 643 947 q 514 876 571 876 q 420 911 456 876 q 383 1000 383 947 q 420 1088 383 1053 q 514 1124 456 1124 m 656 738 l 656 214 q 597 -49 656 54 q 420 -213 538 -152 q 131 -308 303 -274 l 97 -140 q 284 -76 208 -115 q 398 27 360 -38 q 437 200 437 93 l 437 588 l 172 588 l 172 738 l 656 738 z "},"ȷ":{"ha":833,"x_min":97,"x_max":656,"o":"m 656 738 l 656 214 q 597 -49 656 54 q 420 -213 538 -152 q 131 -308 303 -274 l 97 -140 q 284 -76 208 -115 q 398 27 360 -38 q 437 200 437 93 l 437 588 l 172 588 l 172 738 l 656 738 z "},"ĵ":{"ha":833,"x_min":97,"x_max":777,"o":"m 656 738 l 656 214 q 597 -49 656 54 q 420 -213 538 -152 q 131 -308 303 -274 l 97 -140 q 284 -76 208 -115 q 398 27 360 -38 q 437 200 437 93 l 437 588 l 172 588 l 172 738 l 656 738 m 330 849 l 249 939 l 447 1133 l 581 1133 l 777 939 l 699 849 l 514 980 l 330 849 z "},"k":{"ha":833,"x_min":97,"x_max":817,"o":"m 317 1053 l 317 0 l 97 0 l 97 1031 l 317 1053 m 797 738 l 555 411 l 817 0 l 567 0 l 325 404 l 567 738 l 797 738 z "},"ķ":{"ha":833,"x_min":97,"x_max":817,"o":"m 317 1053 l 317 0 l 97 0 l 97 1031 l 317 1053 m 797 738 l 555 411 l 817 0 l 567 0 l 325 404 l 567 738 l 797 738 m 417 -90 q 494 -121 463 -90 q 526 -198 526 -151 q 517 -252 526 -223 q 492 -312 508 -281 l 424 -447 l 315 -447 l 352 -287 q 319 -250 333 -272 q 306 -198 306 -228 q 338 -122 306 -153 q 417 -90 369 -90 z "},"ĸ":{"ha":833,"x_min":97,"x_max":817,"o":"m 797 738 l 553 399 l 817 0 l 567 0 l 325 383 l 567 738 l 797 738 m 317 738 l 317 0 l 97 0 l 97 738 l 317 738 z "},"l":{"ha":833,"x_min":45,"x_max":734,"o":"m 482 1031 l 482 232 q 507 168 482 188 q 577 149 533 149 q 632 156 606 149 q 681 172 658 163 l 734 25 q 644 -9 697 6 q 521 -24 591 -24 q 325 53 388 -24 q 263 259 263 130 l 263 881 l 45 881 l 45 1031 l 482 1031 z "},"ĺ":{"ha":833,"x_min":45,"x_max":734,"o":"m 482 1031 l 482 232 q 507 168 482 188 q 577 149 533 149 q 632 156 606 149 q 681 172 658 163 l 734 25 q 644 -9 697 6 q 521 -24 591 -24 q 325 53 388 -24 q 263 259 263 130 l 263 881 l 45 881 l 45 1031 l 482 1031 m 461 1453 l 547 1288 l 219 1158 l 158 1269 l 461 1453 z "},"ľ":{"ha":833,"x_min":45,"x_max":775,"o":"m 482 1031 l 482 232 q 507 168 482 188 q 577 149 533 149 q 632 156 606 149 q 681 172 658 163 l 734 25 q 644 -9 697 6 q 521 -24 591 -24 q 325 53 388 -24 q 263 259 263 130 l 263 881 l 45 881 l 45 1031 l 482 1031 m 583 1060 l 775 1038 l 668 716 l 531 738 l 583 1060 z "},"ļ":{"ha":833,"x_min":45,"x_max":734,"o":"m 482 1031 l 482 232 q 507 168 482 188 q 577 149 533 149 q 632 156 606 149 q 681 172 658 163 l 734 25 q 644 -9 697 6 q 521 -24 591 -24 q 325 53 388 -24 q 263 259 263 130 l 263 881 l 45 881 l 45 1031 l 482 1031 m 493 -90 q 571 -121 540 -90 q 602 -198 602 -151 q 593 -252 602 -223 q 569 -312 585 -281 l 501 -447 l 391 -447 l 428 -287 q 396 -250 409 -272 q 383 -198 383 -228 q 414 -122 383 -153 q 493 -90 446 -90 z "},"ŀ":{"ha":833,"x_min":45,"x_max":918,"o":"m 482 1031 l 482 232 q 507 168 482 188 q 577 149 533 149 q 632 156 606 149 q 681 172 658 163 l 734 25 q 644 -9 697 6 q 521 -24 591 -24 q 325 53 388 -24 q 263 259 263 130 l 263 881 l 45 881 l 45 1031 l 482 1031 m 789 656 q 882 620 846 656 q 918 532 918 585 q 882 443 918 479 q 789 408 846 408 q 695 443 731 408 q 658 532 658 479 q 695 620 658 585 q 789 656 731 656 z "},"ł":{"ha":833,"x_min":45,"x_max":734,"o":"m 263 528 l 263 881 l 45 881 l 45 1031 l 482 1031 l 482 663 l 572 718 l 650 594 l 482 492 l 482 232 q 507 168 482 188 q 577 149 533 149 q 632 156 606 149 q 681 172 658 163 l 734 25 q 644 -9 697 6 q 521 -24 591 -24 q 325 53 388 -24 q 263 259 263 130 l 263 358 l 201 321 l 124 443 l 263 528 z "},"m":{"ha":833,"x_min":37,"x_max":797,"o":"m 642 762 q 759 711 721 762 q 797 546 797 660 l 797 0 l 608 0 l 608 521 q 601 576 608 560 q 572 592 594 592 q 536 582 554 592 q 495 544 517 572 l 495 0 l 341 0 l 341 521 q 334 576 341 560 q 304 592 326 592 q 268 582 287 592 q 228 544 250 572 l 228 0 l 37 0 l 37 738 l 198 738 l 213 666 q 283 738 247 713 q 367 762 318 762 q 438 741 408 762 q 480 674 467 719 q 553 738 513 713 q 642 762 594 762 z "},"n":{"ha":833,"x_min":97,"x_max":736,"o":"m 97 0 l 97 738 l 289 738 l 304 652 q 408 735 353 708 q 533 762 463 762 q 682 704 628 762 q 736 542 736 647 l 736 0 l 517 0 l 517 478 q 502 573 517 547 q 446 600 487 600 q 380 578 411 600 q 317 516 348 556 l 317 0 l 97 0 z "},"ń":{"ha":833,"x_min":97,"x_max":736,"o":"m 97 0 l 97 738 l 289 738 l 304 652 q 408 735 353 708 q 533 762 463 762 q 682 704 628 762 q 736 542 736 647 l 736 0 l 517 0 l 517 478 q 502 573 517 547 q 446 600 487 600 q 380 578 411 600 q 317 516 348 556 l 317 0 l 97 0 m 524 1160 l 609 994 l 281 865 l 221 976 l 524 1160 z "},"ŉ":{"ha":833,"x_min":-24,"x_max":763,"o":"m 82 1060 q 158 1031 128 1060 q 188 957 188 1002 q 180 908 188 931 q 156 854 172 885 l 99 743 l -10 743 l 20 870 q -11 906 1 885 q -24 957 -24 927 q 6 1030 -24 999 q 82 1060 37 1060 m 124 0 l 124 738 l 316 738 l 331 652 q 435 735 381 708 q 560 762 490 762 q 709 704 655 762 q 763 542 763 647 l 763 0 l 544 0 l 544 478 q 529 573 544 547 q 473 600 514 600 q 407 578 438 600 q 344 516 375 556 l 344 0 l 124 0 z "},"ň":{"ha":833,"x_min":97,"x_max":736,"o":"m 97 0 l 97 738 l 289 738 l 304 652 q 408 735 353 708 q 533 762 463 762 q 682 704 628 762 q 736 542 736 647 l 736 0 l 517 0 l 517 478 q 502 573 517 547 q 446 600 487 600 q 380 578 411 600 q 317 516 348 556 l 317 0 l 97 0 m 603 1133 l 681 1043 l 485 849 l 351 849 l 153 1043 l 234 1133 l 418 1002 l 603 1133 z "},"ņ":{"ha":833,"x_min":97,"x_max":736,"o":"m 97 0 l 97 738 l 289 738 l 304 652 q 408 735 353 708 q 533 762 463 762 q 682 704 628 762 q 736 542 736 647 l 736 0 l 517 0 l 517 478 q 502 573 517 547 q 446 600 487 600 q 380 578 411 600 q 317 516 348 556 l 317 0 l 97 0 m 418 -90 q 496 -121 465 -90 q 527 -198 527 -151 q 518 -252 527 -223 q 494 -312 510 -281 l 426 -447 l 316 -447 l 353 -287 q 321 -250 334 -272 q 308 -198 308 -228 q 339 -122 308 -153 q 418 -90 371 -90 z "},"ŋ":{"ha":833,"x_min":97,"x_max":736,"o":"m 736 83 q 700 -110 736 -37 q 597 -227 663 -183 q 442 -308 531 -272 l 366 -147 q 448 -102 414 -126 q 499 -37 481 -77 q 517 70 517 3 l 517 478 q 502 573 517 547 q 446 600 488 600 q 380 576 411 600 q 317 510 348 552 l 317 0 l 97 0 l 97 738 l 289 738 l 304 652 q 533 762 401 762 q 684 704 632 762 q 736 542 736 647 l 736 83 z "},"ñ":{"ha":833,"x_min":97,"x_max":736,"o":"m 97 0 l 97 738 l 289 738 l 304 652 q 408 735 353 708 q 533 762 463 762 q 682 704 628 762 q 736 542 736 647 l 736 0 l 517 0 l 517 478 q 502 573 517 547 q 446 600 487 600 q 380 578 411 600 q 317 516 348 556 l 317 0 l 97 0 m 496 881 q 429 897 456 881 q 381 928 402 913 q 338 944 360 944 q 296 928 312 944 q 264 883 281 913 l 153 937 q 225 1052 180 1003 q 333 1101 270 1101 q 403 1085 376 1101 q 450 1054 430 1069 q 494 1038 471 1038 q 533 1053 517 1038 q 567 1098 549 1068 l 677 1044 q 604 928 650 974 q 496 881 558 881 z "},"o":{"ha":833,"x_min":58,"x_max":775,"o":"m 417 762 q 610 713 531 762 q 733 577 690 665 q 775 371 775 489 q 681 81 775 186 q 417 -24 586 -24 q 153 80 247 -24 q 58 369 58 183 q 101 575 58 487 q 224 713 144 663 q 417 762 304 762 m 417 600 q 317 545 349 600 q 285 369 285 490 q 317 192 285 247 q 417 138 349 138 q 516 192 484 138 q 549 371 549 247 q 516 545 549 490 q 417 600 484 600 z "},"ó":{"ha":833,"x_min":58,"x_max":775,"o":"m 417 762 q 610 713 531 762 q 733 577 690 665 q 775 371 775 489 q 681 81 775 186 q 417 -24 586 -24 q 153 80 247 -24 q 58 369 58 183 q 101 575 58 487 q 224 713 144 663 q 417 762 304 762 m 417 600 q 317 545 349 600 q 285 369 285 490 q 317 192 285 247 q 417 138 349 138 q 516 192 484 138 q 549 371 549 247 q 516 545 549 490 q 417 600 484 600 m 522 1160 l 608 994 l 280 865 l 219 976 l 522 1160 z "},"ŏ":{"ha":833,"x_min":58,"x_max":775,"o":"m 417 762 q 610 713 531 762 q 733 577 690 665 q 775 371 775 489 q 681 81 775 186 q 417 -24 586 -24 q 153 80 247 -24 q 58 369 58 183 q 101 575 58 487 q 224 713 144 663 q 417 762 304 762 m 417 600 q 317 545 349 600 q 285 369 285 490 q 317 192 285 247 q 417 138 349 138 q 516 192 484 138 q 549 371 549 247 q 516 545 549 490 q 417 600 484 600 m 417 849 q 289 884 340 849 q 210 975 238 919 q 177 1092 183 1031 l 299 1113 q 340 1032 311 1063 q 417 1001 369 1001 q 493 1032 465 1001 q 535 1113 522 1063 l 656 1092 q 623 975 651 1031 q 544 884 595 919 q 417 849 493 849 z "},"ô":{"ha":833,"x_min":58,"x_max":775,"o":"m 417 762 q 610 713 531 762 q 733 577 690 665 q 775 371 775 489 q 681 81 775 186 q 417 -24 586 -24 q 153 80 247 -24 q 58 369 58 183 q 101 575 58 487 q 224 713 144 663 q 417 762 304 762 m 417 600 q 317 545 349 600 q 285 369 285 490 q 317 192 285 247 q 417 138 349 138 q 516 192 484 138 q 549 371 549 247 q 516 545 549 490 q 417 600 484 600 m 233 849 l 152 939 l 349 1133 l 484 1133 l 680 939 l 601 849 l 417 980 l 233 849 z "},"ö":{"ha":833,"x_min":58,"x_max":775,"o":"m 417 762 q 610 713 531 762 q 733 577 690 665 q 775 371 775 489 q 681 81 775 186 q 417 -24 586 -24 q 153 80 247 -24 q 58 369 58 183 q 101 575 58 487 q 224 713 144 663 q 417 762 304 762 m 417 600 q 317 545 349 600 q 285 369 285 490 q 317 192 285 247 q 417 138 349 138 q 516 192 484 138 q 549 371 549 247 q 516 545 549 490 q 417 600 484 600 m 256 885 q 175 917 208 885 q 142 997 142 949 q 175 1075 142 1043 q 256 1107 208 1107 q 338 1075 305 1107 q 370 997 370 1043 q 338 917 370 949 q 256 885 305 885 m 577 885 q 497 917 531 885 q 463 997 463 949 q 497 1075 463 1043 q 577 1107 531 1107 q 659 1075 626 1107 q 692 997 692 1043 q 659 917 692 949 q 577 885 626 885 z "},"ò":{"ha":833,"x_min":58,"x_max":775,"o":"m 417 762 q 610 713 531 762 q 733 577 690 665 q 775 371 775 489 q 681 81 775 186 q 417 -24 586 -24 q 153 80 247 -24 q 58 369 58 183 q 101 575 58 487 q 224 713 144 663 q 417 762 304 762 m 417 600 q 317 545 349 600 q 285 369 285 490 q 317 192 285 247 q 417 138 349 138 q 516 192 484 138 q 549 371 549 247 q 516 545 549 490 q 417 600 484 600 m 553 864 l 226 994 l 311 1159 l 614 975 l 553 864 z "},"ő":{"ha":833,"x_min":58,"x_max":775,"o":"m 417 762 q 610 713 531 762 q 733 577 690 665 q 775 371 775 489 q 681 81 775 186 q 417 -24 586 -24 q 153 80 247 -24 q 58 369 58 183 q 101 575 58 487 q 224 713 144 663 q 417 762 304 762 m 417 600 q 317 545 349 600 q 285 369 285 490 q 317 192 285 247 q 417 138 349 138 q 516 192 484 138 q 549 371 549 247 q 516 545 549 490 q 417 600 484 600 m 222 918 l 360 1191 l 508 1122 l 336 869 l 222 918 m 448 921 l 588 1191 l 735 1119 l 561 867 l 448 921 z "},"ō":{"ha":833,"x_min":58,"x_max":775,"o":"m 417 762 q 610 713 531 762 q 733 577 690 665 q 775 371 775 489 q 681 81 775 186 q 417 -24 586 -24 q 153 80 247 -24 q 58 369 58 183 q 101 575 58 487 q 224 713 144 663 q 417 762 304 762 m 417 600 q 317 545 349 600 q 285 369 285 490 q 317 192 285 247 q 417 138 349 138 q 516 192 484 138 q 549 371 549 247 q 516 545 549 490 q 417 600 484 600 m 628 913 l 205 913 l 205 1066 l 628 1066 l 628 913 z "},"ø":{"ha":833,"x_min":58,"x_max":775,"o":"m 417 762 q 460 760 439 762 l 513 921 l 673 874 l 618 708 q 735 573 694 660 q 775 371 775 486 q 681 81 775 186 q 417 -24 586 -24 q 374 -22 394 -24 l 322 -190 l 160 -143 l 217 27 q 99 161 140 74 q 58 369 58 248 q 101 575 58 487 q 224 713 144 663 q 417 762 304 762 m 417 604 q 314 549 347 604 q 281 369 281 493 q 286 260 281 304 q 306 188 292 215 l 439 603 q 417 604 428 604 m 553 371 q 548 476 553 433 q 529 546 542 519 l 397 134 q 417 133 406 133 q 520 189 487 133 q 553 371 553 244 z "},"ǿ":{"ha":833,"x_min":58,"x_max":775,"o":"m 417 762 q 460 760 439 762 l 513 921 l 673 874 l 618 708 q 735 573 694 660 q 775 371 775 486 q 681 81 775 186 q 417 -24 586 -24 q 374 -22 394 -24 l 322 -190 l 160 -143 l 217 27 q 99 161 140 74 q 58 369 58 248 q 101 575 58 487 q 224 713 144 663 q 417 762 304 762 m 417 604 q 314 549 347 604 q 281 369 281 493 q 286 260 281 304 q 306 188 292 215 l 439 603 q 417 604 428 604 m 553 371 q 548 476 553 433 q 529 546 542 519 l 397 134 q 417 133 406 133 q 520 189 487 133 q 553 371 553 244 m 522 1160 l 608 994 l 280 865 l 219 976 l 522 1160 z "},"õ":{"ha":833,"x_min":58,"x_max":775,"o":"m 417 762 q 610 713 531 762 q 733 577 690 665 q 775 371 775 489 q 681 81 775 186 q 417 -24 586 -24 q 153 80 247 -24 q 58 369 58 183 q 101 575 58 487 q 224 713 144 663 q 417 762 304 762 m 417 600 q 317 545 349 600 q 285 369 285 490 q 317 192 285 247 q 417 138 349 138 q 516 192 484 138 q 549 371 549 247 q 516 545 549 490 q 417 600 484 600 m 494 881 q 427 897 454 881 q 380 928 401 913 q 336 944 359 944 q 295 928 310 944 q 263 883 279 913 l 152 937 q 224 1052 178 1003 q 332 1101 269 1101 q 401 1085 374 1101 q 449 1054 428 1069 q 493 1038 469 1038 q 532 1053 516 1038 q 565 1098 548 1068 l 676 1044 q 602 928 649 974 q 494 881 556 881 z "},"œ":{"ha":833,"x_min":-11,"x_max":842,"o":"m 609 762 q 789 664 737 762 q 842 383 842 566 q 841 348 842 365 q 838 314 840 331 l 512 314 q 552 167 520 213 q 642 121 584 121 q 701 133 674 121 q 759 166 728 144 l 841 56 q 750 -1 801 22 q 631 -24 699 -24 q 505 6 558 -24 q 419 87 453 35 q 353 6 394 36 q 244 -24 313 -24 q 51 80 113 -24 q -11 369 -11 183 q 16 575 -11 487 q 99 713 42 663 q 244 762 156 762 q 357 731 315 762 q 424 646 399 701 q 495 730 451 697 q 609 762 540 762 m 601 624 q 538 583 560 624 q 510 433 516 542 l 676 433 q 661 578 676 531 q 601 624 646 624 m 253 600 q 189 548 208 600 q 171 369 171 496 q 189 188 171 239 q 253 138 208 138 q 316 187 297 138 q 334 371 334 237 q 316 548 334 497 q 253 600 297 600 z "},"p":{"ha":833,"x_min":97,"x_max":775,"o":"m 506 762 q 713 656 650 762 q 775 371 775 551 q 742 168 775 257 q 645 27 708 78 q 492 -24 582 -24 q 317 53 384 -24 l 317 -285 l 97 -308 l 97 738 l 292 738 l 301 655 q 400 737 347 713 q 506 762 453 762 m 438 600 q 370 577 399 600 q 317 515 341 554 l 317 203 q 365 153 340 169 q 425 138 390 138 q 516 191 483 138 q 549 368 549 244 q 535 510 549 460 q 497 580 522 560 q 438 600 472 600 z "},"þ":{"ha":833,"x_min":97,"x_max":775,"o":"m 317 1053 l 317 663 q 399 736 350 710 q 506 762 447 762 q 713 656 650 762 q 775 371 775 551 q 742 168 775 257 q 645 27 708 78 q 492 -24 582 -24 q 317 53 384 -24 l 317 -285 l 97 -308 l 97 1031 l 317 1053 m 438 600 q 370 577 399 600 q 317 515 341 554 l 317 203 q 365 153 340 169 q 425 138 390 138 q 516 191 483 138 q 549 368 549 244 q 535 510 549 460 q 497 580 522 560 q 438 600 472 600 z "},"q":{"ha":833,"x_min":58,"x_max":736,"o":"m 353 762 q 535 678 467 762 l 544 738 l 736 738 l 736 -308 l 517 -285 l 517 62 q 439 0 485 24 q 328 -24 393 -24 q 174 25 233 -24 q 86 163 114 74 q 58 371 58 251 q 93 573 58 485 q 193 711 127 661 q 353 762 259 762 m 411 601 q 318 548 351 601 q 285 369 285 494 q 299 228 285 278 q 338 159 313 178 q 397 139 363 139 q 465 161 435 139 q 517 223 494 183 l 517 541 q 470 585 495 569 q 411 601 445 601 z "},"r":{"ha":833,"x_min":104,"x_max":782,"o":"m 104 0 l 104 147 l 201 147 l 201 592 l 104 592 l 104 738 l 369 738 l 409 572 q 510 713 449 667 q 660 760 572 760 q 727 754 698 760 q 782 738 756 748 l 741 429 l 603 429 l 603 565 q 494 498 541 554 q 421 358 447 441 l 421 147 l 567 147 l 567 0 l 104 0 z "},"ŕ":{"ha":833,"x_min":104,"x_max":782,"o":"m 104 0 l 104 147 l 201 147 l 201 592 l 104 592 l 104 738 l 369 738 l 409 572 q 510 713 449 667 q 660 760 572 760 q 727 754 698 760 q 782 738 756 748 l 741 429 l 603 429 l 603 565 q 494 498 541 554 q 421 358 447 441 l 421 147 l 567 147 l 567 0 l 104 0 m 557 1160 l 642 994 l 315 865 l 254 976 l 557 1160 z "},"ř":{"ha":833,"x_min":104,"x_max":782,"o":"m 104 0 l 104 147 l 201 147 l 201 592 l 104 592 l 104 738 l 369 738 l 409 572 q 510 713 449 667 q 660 760 572 760 q 727 754 698 760 q 782 738 756 748 l 741 429 l 603 429 l 603 565 q 494 498 541 554 q 421 358 447 441 l 421 147 l 567 147 l 567 0 l 104 0 m 636 1133 l 715 1043 l 519 849 l 384 849 l 187 1043 l 267 1133 l 451 1002 l 636 1133 z "},"ŗ":{"ha":833,"x_min":104,"x_max":782,"o":"m 104 0 l 104 147 l 201 147 l 201 592 l 104 592 l 104 738 l 369 738 l 409 572 q 510 713 449 667 q 660 760 572 760 q 727 754 698 760 q 782 738 756 748 l 741 429 l 603 429 l 603 565 q 494 498 541 554 q 421 358 447 441 l 421 147 l 567 147 l 567 0 l 104 0 m 311 -90 q 389 -121 358 -90 q 420 -198 420 -151 q 411 -252 420 -223 q 387 -312 403 -281 l 319 -447 l 209 -447 l 247 -287 q 214 -250 227 -272 q 201 -198 201 -228 q 232 -122 201 -153 q 311 -90 264 -90 z "},"s":{"ha":833,"x_min":66,"x_max":743,"o":"m 393 133 q 482 151 448 133 q 515 203 515 168 q 502 242 515 226 q 451 273 489 258 q 340 308 414 288 q 175 385 239 335 q 112 534 112 436 q 194 697 112 633 q 432 762 276 762 q 604 736 531 762 q 731 672 677 711 l 643 543 q 544 589 597 572 q 438 606 492 606 q 333 549 333 606 q 346 516 333 530 q 397 489 360 503 q 507 453 435 474 q 632 407 578 433 q 714 336 685 381 q 743 220 743 292 q 695 85 743 140 q 568 3 647 31 q 394 -24 489 -24 q 206 7 288 -24 q 66 88 124 38 l 176 211 q 274 156 219 178 q 393 133 328 133 z "},"ś":{"ha":833,"x_min":66,"x_max":743,"o":"m 393 133 q 482 151 448 133 q 515 203 515 168 q 502 242 515 226 q 451 273 489 258 q 340 308 414 288 q 175 385 239 335 q 112 534 112 436 q 194 697 112 633 q 432 762 276 762 q 604 736 531 762 q 731 672 677 711 l 643 543 q 544 589 597 572 q 438 606 492 606 q 333 549 333 606 q 346 516 333 530 q 397 489 360 503 q 507 453 435 474 q 632 407 578 433 q 714 336 685 381 q 743 220 743 292 q 695 85 743 140 q 568 3 647 31 q 394 -24 489 -24 q 206 7 288 -24 q 66 88 124 38 l 176 211 q 274 156 219 178 q 393 133 328 133 m 540 1160 l 626 994 l 298 865 l 238 976 l 540 1160 z "},"š":{"ha":833,"x_min":66,"x_max":743,"o":"m 393 133 q 482 151 448 133 q 515 203 515 168 q 502 242 515 226 q 451 273 489 258 q 340 308 414 288 q 175 385 239 335 q 112 534 112 436 q 194 697 112 633 q 432 762 276 762 q 604 736 531 762 q 731 672 677 711 l 643 543 q 544 589 597 572 q 438 606 492 606 q 333 549 333 606 q 346 516 333 530 q 397 489 360 503 q 507 453 435 474 q 632 407 578 433 q 714 336 685 381 q 743 220 743 292 q 695 85 743 140 q 568 3 647 31 q 394 -24 489 -24 q 206 7 288 -24 q 66 88 124 38 l 176 211 q 274 156 219 178 q 393 133 328 133 m 619 1133 l 698 1043 l 502 849 l 367 849 l 170 1043 l 251 1133 l 435 1002 l 619 1133 z "},"ş":{"ha":833,"x_min":66,"x_max":743,"o":"m 393 133 q 482 151 448 133 q 515 203 515 168 q 502 242 515 226 q 451 273 489 258 q 340 308 414 288 q 175 385 239 335 q 112 534 112 436 q 194 697 112 633 q 432 762 276 762 q 604 736 531 762 q 731 672 677 711 l 643 543 q 544 589 597 572 q 438 606 492 606 q 333 549 333 606 q 346 516 333 530 q 397 489 360 503 q 507 453 435 474 q 632 407 578 433 q 714 336 685 381 q 743 220 743 292 q 695 85 743 140 q 568 3 647 31 q 394 -24 489 -24 q 206 7 288 -24 q 66 88 124 38 l 176 211 q 274 156 219 178 q 393 133 328 133 m 445 -201 q 413 -164 445 -174 q 317 -155 381 -155 l 337 22 l 459 22 l 459 -67 q 568 -111 532 -75 q 603 -204 603 -148 q 547 -320 603 -275 q 396 -365 490 -365 q 304 -351 347 -365 q 233 -322 261 -338 l 284 -221 q 327 -238 304 -231 q 373 -244 350 -244 q 426 -235 406 -244 q 445 -201 445 -225 z "},"ŝ":{"ha":833,"x_min":66,"x_max":743,"o":"m 393 133 q 482 151 448 133 q 515 203 515 168 q 502 242 515 226 q 451 273 489 258 q 340 308 414 288 q 175 385 239 335 q 112 534 112 436 q 194 697 112 633 q 432 762 276 762 q 604 736 531 762 q 731 672 677 711 l 643 543 q 544 589 597 572 q 438 606 492 606 q 333 549 333 606 q 346 516 333 530 q 397 489 360 503 q 507 453 435 474 q 632 407 578 433 q 714 336 685 381 q 743 220 743 292 q 695 85 743 140 q 568 3 647 31 q 394 -24 489 -24 q 206 7 288 -24 q 66 88 124 38 l 176 211 q 274 156 219 178 q 393 133 328 133 m 251 849 l 170 939 l 367 1133 l 502 1133 l 698 939 l 619 849 l 435 980 l 251 849 z "},"ș":{"ha":833,"x_min":66,"x_max":743,"o":"m 393 133 q 482 151 448 133 q 515 203 515 168 q 502 242 515 226 q 451 273 489 258 q 340 308 414 288 q 175 385 239 335 q 112 534 112 436 q 194 697 112 633 q 432 762 276 762 q 604 736 531 762 q 731 672 677 711 l 643 543 q 544 589 597 572 q 438 606 492 606 q 333 549 333 606 q 346 516 333 530 q 397 489 360 503 q 507 453 435 474 q 632 407 578 433 q 714 336 685 381 q 743 220 743 292 q 695 85 743 140 q 568 3 647 31 q 394 -24 489 -24 q 206 7 288 -24 q 66 88 124 38 l 176 211 q 274 156 219 178 q 393 133 328 133 m 418 -90 q 496 -121 465 -90 q 527 -198 527 -151 q 518 -252 527 -223 q 494 -312 510 -281 l 426 -447 l 316 -447 l 353 -287 q 321 -250 334 -272 q 308 -198 308 -228 q 339 -122 308 -153 q 418 -90 371 -90 z "},"ß":{"ha":833,"x_min":83,"x_max":802,"o":"m 404 1053 q 612 991 539 1053 q 685 838 685 928 q 666 759 685 790 q 623 703 647 727 q 579 656 598 679 q 560 600 560 632 q 584 544 560 568 q 644 494 608 519 q 717 436 681 469 q 778 355 753 403 q 802 233 802 306 q 766 94 802 151 q 666 7 729 37 q 522 -24 603 -24 q 426 -12 469 -24 q 346 19 383 0 l 416 167 q 494 145 459 145 q 576 232 576 145 q 555 308 576 278 q 503 361 534 338 q 441 411 472 385 q 389 472 410 436 q 368 562 368 507 q 384 643 368 609 q 420 704 400 676 q 457 761 441 732 q 473 828 473 790 q 453 881 473 863 q 399 900 433 900 q 325 862 347 900 q 303 747 303 824 l 303 0 l 83 0 l 83 738 q 165 970 83 887 q 404 1053 246 1053 z "},"t":{"ha":833,"x_min":80,"x_max":761,"o":"m 761 43 q 657 -4 718 15 q 519 -24 596 -24 q 305 50 375 -24 q 235 251 235 124 l 235 586 l 80 586 l 80 738 l 235 738 l 235 897 l 454 924 l 454 738 l 692 738 l 670 586 l 454 586 l 454 251 q 479 173 454 197 q 559 149 504 149 q 630 159 598 149 q 688 183 663 168 l 761 43 z "},"ŧ":{"ha":833,"x_min":80,"x_max":761,"o":"m 761 43 q 657 -4 718 15 q 519 -24 596 -24 q 305 50 375 -24 q 235 251 235 124 l 235 363 l 97 363 l 97 501 l 235 501 l 235 586 l 80 586 l 80 738 l 235 738 l 235 897 l 454 924 l 454 738 l 692 738 l 670 586 l 454 586 l 454 501 l 669 501 l 669 363 l 454 363 l 454 251 q 479 173 454 197 q 559 149 504 149 q 630 159 598 149 q 688 183 663 168 l 761 43 z "},"ť":{"ha":833,"x_min":80,"x_max":761,"o":"m 761 43 q 657 -4 718 15 q 519 -24 596 -24 q 305 50 375 -24 q 235 251 235 124 l 235 586 l 80 586 l 80 738 l 235 738 l 235 897 l 454 924 l 454 738 l 692 738 l 670 586 l 454 586 l 454 251 q 479 173 454 197 q 559 149 504 149 q 630 159 598 149 q 688 183 663 168 l 761 43 m 552 1156 l 744 1133 l 637 811 l 500 833 l 552 1156 z "},"ţ":{"ha":833,"x_min":80,"x_max":761,"o":"m 761 43 q 657 -4 718 15 q 519 -24 596 -24 q 305 50 375 -24 q 235 251 235 124 l 235 586 l 80 586 l 80 738 l 235 738 l 235 897 l 454 924 l 454 738 l 692 738 l 670 586 l 454 586 l 454 251 q 479 173 454 197 q 559 149 504 149 q 630 159 598 149 q 688 183 663 168 l 761 43 m 528 -201 q 496 -164 528 -174 q 400 -155 464 -155 l 419 22 l 542 22 l 542 -67 q 650 -111 615 -75 q 686 -204 686 -148 q 630 -320 686 -275 q 478 -365 573 -365 q 386 -351 429 -365 q 315 -322 344 -338 l 367 -221 q 410 -238 387 -231 q 456 -244 433 -244 q 508 -235 489 -244 q 528 -201 528 -225 z "},"ț":{"ha":833,"x_min":80,"x_max":761,"o":"m 761 43 q 657 -4 718 15 q 519 -24 596 -24 q 305 50 375 -24 q 235 251 235 124 l 235 586 l 80 586 l 80 738 l 235 738 l 235 897 l 454 924 l 454 738 l 692 738 l 670 586 l 454 586 l 454 251 q 479 173 454 197 q 559 149 504 149 q 630 159 598 149 q 688 183 663 168 l 761 43 m 501 -90 q 578 -121 547 -90 q 610 -198 610 -151 q 601 -252 610 -223 q 576 -312 592 -281 l 508 -447 l 399 -447 l 436 -287 q 403 -250 417 -272 q 390 -198 390 -228 q 422 -122 390 -153 q 501 -90 453 -90 z "},"u":{"ha":833,"x_min":97,"x_max":736,"o":"m 317 738 l 317 233 q 336 159 317 179 q 392 139 356 139 q 460 160 426 139 q 517 219 494 182 l 517 738 l 736 738 l 736 0 l 544 0 l 535 86 q 436 4 497 32 q 308 -24 375 -24 q 149 39 201 -24 q 97 206 97 101 l 97 738 l 317 738 z "},"ú":{"ha":833,"x_min":97,"x_max":736,"o":"m 317 738 l 317 233 q 336 159 317 179 q 392 139 356 139 q 460 160 426 139 q 517 219 494 182 l 517 738 l 736 738 l 736 0 l 544 0 l 535 86 q 436 4 497 32 q 308 -24 375 -24 q 149 39 201 -24 q 97 206 97 101 l 97 738 l 317 738 m 522 1160 l 608 994 l 280 865 l 219 976 l 522 1160 z "},"ŭ":{"ha":833,"x_min":97,"x_max":736,"o":"m 317 738 l 317 233 q 336 159 317 179 q 392 139 356 139 q 460 160 426 139 q 517 219 494 182 l 517 738 l 736 738 l 736 0 l 544 0 l 535 86 q 436 4 497 32 q 308 -24 375 -24 q 149 39 201 -24 q 97 206 97 101 l 97 738 l 317 738 m 417 849 q 289 884 340 849 q 210 975 238 919 q 177 1092 183 1031 l 299 1113 q 340 1032 311 1063 q 417 1001 369 1001 q 493 1032 465 1001 q 535 1113 522 1063 l 656 1092 q 623 975 651 1031 q 544 884 595 919 q 417 849 493 849 z "},"û":{"ha":833,"x_min":97,"x_max":736,"o":"m 317 738 l 317 233 q 336 159 317 179 q 392 139 356 139 q 460 160 426 139 q 517 219 494 182 l 517 738 l 736 738 l 736 0 l 544 0 l 535 86 q 436 4 497 32 q 308 -24 375 -24 q 149 39 201 -24 q 97 206 97 101 l 97 738 l 317 738 m 233 849 l 152 939 l 349 1133 l 484 1133 l 680 939 l 601 849 l 417 980 l 233 849 z "},"ü":{"ha":833,"x_min":97,"x_max":736,"o":"m 317 738 l 317 233 q 336 159 317 179 q 392 139 356 139 q 460 160 426 139 q 517 219 494 182 l 517 738 l 736 738 l 736 0 l 544 0 l 535 86 q 436 4 497 32 q 308 -24 375 -24 q 149 39 201 -24 q 97 206 97 101 l 97 738 l 317 738 m 256 885 q 175 917 208 885 q 142 997 142 949 q 175 1075 142 1043 q 256 1107 208 1107 q 338 1075 305 1107 q 370 997 370 1043 q 338 917 370 949 q 256 885 305 885 m 577 885 q 497 917 531 885 q 463 997 463 949 q 497 1075 463 1043 q 577 1107 531 1107 q 659 1075 626 1107 q 692 997 692 1043 q 659 917 692 949 q 577 885 626 885 z "},"ù":{"ha":833,"x_min":97,"x_max":736,"o":"m 317 738 l 317 233 q 336 159 317 179 q 392 139 356 139 q 460 160 426 139 q 517 219 494 182 l 517 738 l 736 738 l 736 0 l 544 0 l 535 86 q 436 4 497 32 q 308 -24 375 -24 q 149 39 201 -24 q 97 206 97 101 l 97 738 l 317 738 m 553 864 l 226 994 l 311 1159 l 614 975 l 553 864 z "},"ű":{"ha":833,"x_min":97,"x_max":736,"o":"m 317 738 l 317 233 q 336 159 317 179 q 392 139 356 139 q 460 160 426 139 q 517 219 494 182 l 517 738 l 736 738 l 736 0 l 544 0 l 535 86 q 436 4 497 32 q 308 -24 375 -24 q 149 39 201 -24 q 97 206 97 101 l 97 738 l 317 738 m 222 918 l 360 1191 l 508 1122 l 336 869 l 222 918 m 448 921 l 588 1191 l 735 1119 l 561 867 l 448 921 z "},"ū":{"ha":833,"x_min":97,"x_max":736,"o":"m 317 738 l 317 233 q 336 159 317 179 q 392 139 356 139 q 460 160 426 139 q 517 219 494 182 l 517 738 l 736 738 l 736 0 l 544 0 l 535 86 q 436 4 497 32 q 308 -24 375 -24 q 149 39 201 -24 q 97 206 97 101 l 97 738 l 317 738 m 628 913 l 205 913 l 205 1066 l 628 1066 l 628 913 z "},"ų":{"ha":833,"x_min":97,"x_max":736,"o":"m 317 738 l 317 233 q 336 159 317 179 q 392 139 356 139 q 460 160 426 139 q 517 219 494 182 l 517 738 l 736 738 l 736 0 l 544 0 l 535 86 q 436 4 497 32 q 308 -24 375 -24 q 149 39 201 -24 q 97 206 97 101 l 97 738 l 317 738 m 712 72 l 736 0 q 608 -72 640 -34 q 576 -153 576 -110 q 598 -204 576 -187 q 657 -221 620 -221 q 697 -218 679 -221 q 732 -211 715 -215 l 715 -341 q 677 -349 697 -346 q 633 -352 658 -352 q 484 -308 545 -352 q 424 -181 424 -263 q 462 -61 424 -108 q 566 17 500 -14 q 712 72 631 47 z "},"ů":{"ha":833,"x_min":97,"x_max":736,"o":"m 317 738 l 317 233 q 336 159 317 179 q 392 139 356 139 q 460 160 426 139 q 517 219 494 182 l 517 738 l 736 738 l 736 0 l 544 0 l 535 86 q 436 4 497 32 q 308 -24 375 -24 q 149 39 201 -24 q 97 206 97 101 l 97 738 l 317 738 m 415 1201 q 557 1147 506 1201 q 609 1019 609 1093 q 586 928 609 970 q 519 861 563 886 q 415 835 476 835 q 313 861 356 835 q 247 928 270 886 q 224 1019 224 970 q 275 1147 224 1093 q 415 1201 326 1201 m 415 1088 q 371 1070 388 1088 q 354 1019 354 1053 q 371 966 354 983 q 415 949 388 949 q 461 966 444 949 q 478 1019 478 983 q 461 1070 478 1053 q 415 1088 444 1088 z "},"ũ":{"ha":833,"x_min":97,"x_max":736,"o":"m 317 738 l 317 233 q 336 159 317 179 q 392 139 356 139 q 460 160 426 139 q 517 219 494 182 l 517 738 l 736 738 l 736 0 l 544 0 l 535 86 q 436 4 497 32 q 308 -24 375 -24 q 149 39 201 -24 q 97 206 97 101 l 97 738 l 317 738 m 494 881 q 427 897 454 881 q 380 928 401 913 q 336 944 359 944 q 295 928 310 944 q 263 883 279 913 l 152 937 q 224 1052 178 1003 q 332 1101 269 1101 q 401 1085 374 1101 q 449 1054 428 1069 q 493 1038 469 1038 q 532 1053 516 1038 q 565 1098 548 1068 l 676 1044 q 602 928 649 974 q 494 881 556 881 z "},"v":{"ha":833,"x_min":40,"x_max":793,"o":"m 793 738 l 547 0 l 289 0 l 40 738 l 277 738 l 421 168 l 571 738 l 793 738 z "},"w":{"ha":833,"x_min":5,"x_max":828,"o":"m 724 0 l 481 0 l 418 496 l 352 0 l 114 0 l 5 738 l 206 738 l 253 137 l 331 644 l 516 644 l 585 137 l 635 738 l 828 738 l 724 0 z "},"ẃ":{"ha":833,"x_min":5,"x_max":828,"o":"m 724 0 l 481 0 l 418 496 l 352 0 l 114 0 l 5 738 l 206 738 l 253 137 l 331 644 l 516 644 l 585 137 l 635 738 l 828 738 l 724 0 m 522 1160 l 608 994 l 280 865 l 219 976 l 522 1160 z "},"ŵ":{"ha":833,"x_min":5,"x_max":828,"o":"m 724 0 l 481 0 l 418 496 l 352 0 l 114 0 l 5 738 l 206 738 l 253 137 l 331 644 l 516 644 l 585 137 l 635 738 l 828 738 l 724 0 m 233 849 l 152 939 l 349 1133 l 484 1133 l 680 939 l 601 849 l 417 980 l 233 849 z "},"ẅ":{"ha":833,"x_min":5,"x_max":828,"o":"m 724 0 l 481 0 l 418 496 l 352 0 l 114 0 l 5 738 l 206 738 l 253 137 l 331 644 l 516 644 l 585 137 l 635 738 l 828 738 l 724 0 m 256 885 q 175 917 208 885 q 142 997 142 949 q 175 1075 142 1043 q 256 1107 208 1107 q 338 1075 305 1107 q 370 997 370 1043 q 338 917 370 949 q 256 885 305 885 m 577 885 q 497 917 531 885 q 463 997 463 949 q 497 1075 463 1043 q 577 1107 531 1107 q 659 1075 626 1107 q 692 997 692 1043 q 659 917 692 949 q 577 885 626 885 z "},"ẁ":{"ha":833,"x_min":5,"x_max":828,"o":"m 724 0 l 481 0 l 418 496 l 352 0 l 114 0 l 5 738 l 206 738 l 253 137 l 331 644 l 516 644 l 585 137 l 635 738 l 828 738 l 724 0 m 553 864 l 226 994 l 311 1159 l 614 975 l 553 864 z "},"x":{"ha":833,"x_min":31,"x_max":803,"o":"m 268 0 l 31 0 l 283 388 l 54 738 l 300 738 l 418 501 l 532 738 l 765 738 l 549 396 l 803 0 l 554 0 l 408 276 l 268 0 z "},"y":{"ha":833,"x_min":39,"x_max":794,"o":"m 794 738 l 549 0 q 402 -223 500 -147 q 135 -309 303 -299 l 110 -154 q 228 -127 183 -145 q 300 -78 273 -109 q 348 0 328 -47 l 273 0 l 39 738 l 271 738 l 414 140 l 569 738 l 794 738 z "},"ý":{"ha":833,"x_min":39,"x_max":794,"o":"m 794 738 l 549 0 q 402 -223 500 -147 q 135 -309 303 -299 l 110 -154 q 228 -127 183 -145 q 300 -78 273 -109 q 348 0 328 -47 l 273 0 l 39 738 l 271 738 l 414 140 l 569 738 l 794 738 m 522 1160 l 608 994 l 280 865 l 219 976 l 522 1160 z "},"ŷ":{"ha":833,"x_min":39,"x_max":794,"o":"m 794 738 l 549 0 q 402 -223 500 -147 q 135 -309 303 -299 l 110 -154 q 228 -127 183 -145 q 300 -78 273 -109 q 348 0 328 -47 l 273 0 l 39 738 l 271 738 l 414 140 l 569 738 l 794 738 m 233 849 l 152 939 l 349 1133 l 484 1133 l 680 939 l 601 849 l 417 980 l 233 849 z "},"ÿ":{"ha":833,"x_min":39,"x_max":794,"o":"m 794 738 l 549 0 q 402 -223 500 -147 q 135 -309 303 -299 l 110 -154 q 228 -127 183 -145 q 300 -78 273 -109 q 348 0 328 -47 l 273 0 l 39 738 l 271 738 l 414 140 l 569 738 l 794 738 m 256 885 q 175 917 208 885 q 142 997 142 949 q 175 1075 142 1043 q 256 1107 208 1107 q 338 1075 305 1107 q 370 997 370 1043 q 338 917 370 949 q 256 885 305 885 m 577 885 q 497 917 531 885 q 463 997 463 949 q 497 1075 463 1043 q 577 1107 531 1107 q 659 1075 626 1107 q 692 997 692 1043 q 659 917 692 949 q 577 885 626 885 z "},"ỳ":{"ha":833,"x_min":39,"x_max":794,"o":"m 794 738 l 549 0 q 402 -223 500 -147 q 135 -309 303 -299 l 110 -154 q 228 -127 183 -145 q 300 -78 273 -109 q 348 0 328 -47 l 273 0 l 39 738 l 271 738 l 414 140 l 569 738 l 794 738 m 553 864 l 226 994 l 311 1159 l 614 975 l 553 864 z "},"z":{"ha":833,"x_min":100,"x_max":728,"o":"m 359 166 l 728 166 l 708 0 l 100 0 l 100 155 l 466 572 l 131 572 l 131 738 l 722 738 l 722 583 l 359 166 z "},"ź":{"ha":833,"x_min":100,"x_max":728,"o":"m 359 166 l 728 166 l 708 0 l 100 0 l 100 155 l 466 572 l 131 572 l 131 738 l 722 738 l 722 583 l 359 166 m 532 1160 l 617 994 l 290 865 l 229 976 l 532 1160 z "},"ž":{"ha":833,"x_min":100,"x_max":728,"o":"m 359 166 l 728 166 l 708 0 l 100 0 l 100 155 l 466 572 l 131 572 l 131 738 l 722 738 l 722 583 l 359 166 m 611 1133 l 690 1043 l 494 849 l 359 849 l 162 1043 l 242 1133 l 426 1002 l 611 1133 z "},"ż":{"ha":833,"x_min":100,"x_max":728,"o":"m 359 166 l 728 166 l 708 0 l 100 0 l 100 155 l 466 572 l 131 572 l 131 738 l 722 738 l 722 583 l 359 166 m 426 1124 q 519 1088 483 1124 q 556 1000 556 1053 q 519 911 556 947 q 426 876 483 876 q 332 911 369 876 q 296 1000 296 947 q 332 1088 296 1053 q 426 1124 369 1124 z "},"ª":{"ha":833,"x_min":116,"x_max":713,"o":"m 404 1053 q 609 999 549 1053 q 670 842 670 945 l 670 614 q 680 569 670 584 q 712 547 690 555 l 669 425 q 572 450 609 431 q 515 506 535 468 q 328 422 444 422 q 174 476 233 422 q 116 615 116 530 q 194 765 116 710 q 417 819 273 819 l 491 819 l 491 836 q 465 901 491 885 q 376 917 438 917 q 307 910 351 917 q 214 885 263 902 l 169 1011 q 294 1043 233 1033 q 404 1053 356 1053 m 491 705 l 447 705 q 344 684 375 705 q 314 622 314 664 q 383 551 314 551 q 443 569 414 551 q 491 617 472 588 l 491 705 m 713 150 l 713 0 l 139 0 l 139 150 l 713 150 z "},"º":{"ha":833,"x_min":109,"x_max":724,"o":"m 417 1053 q 581 1013 513 1053 q 687 900 650 972 q 724 739 724 829 q 687 574 724 645 q 581 462 650 502 q 417 422 513 422 q 252 462 321 422 q 146 573 183 502 q 109 739 109 644 q 146 900 109 828 q 252 1012 183 971 q 417 1053 322 1053 m 417 917 q 332 876 363 917 q 301 739 301 835 q 332 601 301 642 q 417 560 363 560 q 501 601 470 560 q 532 739 532 642 q 501 876 532 835 q 417 917 470 917 m 703 150 l 703 0 l 130 0 l 130 150 l 703 150 z "},"ⁿ":{"ha":833,"x_min":210,"x_max":623,"o":"m 487 1004 q 587 967 551 1004 q 623 861 623 930 l 623 525 l 464 525 l 464 823 q 457 872 464 858 q 435 886 451 886 q 402 874 417 886 q 370 840 387 862 l 370 525 l 210 525 l 210 990 l 352 990 l 359 942 q 419 991 388 978 q 487 1004 451 1004 z "},"Ԭ":{"ha":833,"x_min":25,"x_max":815,"o":"m 75 169 l 138 169 q 202 274 172 217 q 256 417 233 332 q 77 527 130 444 q 25 744 25 610 l 25 963 l 206 963 l 206 747 q 223 638 206 679 q 287 579 240 597 q 297 691 294 631 l 313 963 l 748 963 l 748 169 l 815 169 l 815 -242 l 640 -242 l 613 0 l 277 0 l 249 -242 l 75 -242 l 75 169 m 479 683 q 475 623 477 652 q 469 565 472 593 l 560 565 l 560 810 l 488 810 l 479 683 m 322 169 l 560 169 l 560 403 l 444 403 q 399 279 427 337 q 322 169 370 221 z "},"Ԫ":{"ha":833,"x_min":-21,"x_max":856,"o":"m -21 -242 l -21 135 l 19 135 q 52 231 38 172 q 76 393 65 291 q 95 658 86 495 l 113 963 l 408 963 l 408 558 l 466 558 l 466 963 l 592 963 l 592 558 l 625 558 l 708 963 l 842 963 l 744 526 l 856 0 l 713 0 l 626 444 l 592 444 l 592 0 l 495 0 l 495 -242 l 387 -242 l 370 0 l 106 0 l 87 -242 l -21 -242 m 129 135 l 279 135 l 279 842 l 232 842 l 224 650 q 212 448 219 531 q 194 309 205 366 q 167 211 183 252 q 129 135 151 171 m 466 444 l 408 444 l 408 135 l 466 135 l 466 444 z "},"Ԯ":{"ha":833,"x_min":-10,"x_max":794,"o":"m 794 169 l 794 -242 l 619 -242 l 592 0 l 499 0 l 499 789 l 388 789 l 374 634 q 336 348 358 461 q 283 164 315 235 q 200 50 250 94 q 78 -28 151 7 l -10 122 q 50 178 24 148 q 95 262 76 208 q 131 410 115 316 q 161 656 147 503 l 190 963 l 726 963 l 726 169 l 794 169 z "},"Ԩ":{"ha":833,"x_min":-167,"x_max":761,"o":"m 533 0 l 533 406 l 300 406 l 300 0 l 72 0 l 72 963 l 300 963 l 300 593 l 533 593 l 533 963 l 761 963 l 761 0 l 533 0 m 22 -315 q -86 -297 -42 -315 q -167 -253 -130 -279 l -83 -124 q -46 -141 -64 -134 q 0 -149 -28 -149 q 53 -127 35 -149 q 72 -55 72 -106 l 72 1 l 300 1 l 300 -36 q 227 -243 300 -172 q 22 -315 154 -315 z "},"А":{"ha":833,"x_min":-15,"x_max":850,"o":"m 556 208 l 274 208 l 223 0 l -15 0 l 279 963 l 556 963 l 850 0 l 606 0 l 556 208 m 310 373 l 518 373 l 414 799 l 310 373 z "},"Б":{"ha":833,"x_min":79,"x_max":790,"o":"m 685 963 l 663 790 l 307 790 l 307 616 l 403 616 q 688 542 586 616 q 790 316 790 468 q 741 141 790 211 q 609 35 693 71 q 416 0 524 0 l 79 0 l 79 963 l 685 963 m 389 452 l 307 452 l 307 170 l 392 170 q 514 203 472 170 q 556 315 556 237 q 389 452 556 452 z "},"В":{"ha":833,"x_min":78,"x_max":793,"o":"m 793 282 q 761 144 793 199 q 674 58 729 89 q 547 13 618 26 q 397 0 476 0 l 78 0 l 78 963 l 383 963 q 566 940 482 963 q 700 864 649 918 q 751 717 751 810 q 699 579 751 631 q 575 510 646 528 q 677 477 626 501 q 760 406 727 453 q 793 282 793 359 m 522 694 q 486 776 522 751 q 376 801 451 801 l 306 801 l 306 578 l 383 578 q 489 606 456 578 q 522 694 522 633 m 558 291 q 515 397 558 367 q 399 426 472 426 l 306 426 l 306 166 l 390 166 q 473 175 434 166 q 535 212 511 185 q 558 291 558 239 z "},"Г":{"ha":833,"x_min":125,"x_max":776,"o":"m 776 963 l 754 784 l 353 784 l 353 0 l 125 0 l 125 963 l 776 963 z "},"Ѓ":{"ha":833,"x_min":125,"x_max":776,"o":"m 776 963 l 754 784 l 353 784 l 353 0 l 125 0 l 125 963 l 776 963 m 570 1323 l 653 1160 l 323 1043 l 271 1154 l 570 1323 z "},"Ґ":{"ha":833,"x_min":125,"x_max":776,"o":"m 776 963 l 754 784 l 353 784 l 353 0 l 125 0 l 125 963 l 566 963 l 566 1177 l 776 1177 l 776 963 z "},"Д":{"ha":833,"x_min":-13,"x_max":801,"o":"m -13 169 l 41 169 q 82 228 64 194 q 114 316 99 262 q 141 454 128 370 q 165 660 153 538 l 193 963 l 728 963 l 728 169 l 801 169 l 801 -242 l 626 -242 l 599 -1 l 189 0 l 161 -242 l -13 -242 l -13 169 m 520 801 l 383 801 l 374 679 q 342 420 360 519 q 294 264 323 322 q 219 169 265 206 l 520 169 l 520 801 z "},"Е":{"ha":833,"x_min":129,"x_max":759,"o":"m 357 800 l 357 569 l 690 569 l 690 409 l 357 409 l 357 163 l 759 163 l 759 0 l 129 0 l 129 963 l 758 963 l 735 800 l 357 800 z "},"Ѐ":{"ha":833,"x_min":129,"x_max":759,"o":"m 357 800 l 357 569 l 690 569 l 690 409 l 357 409 l 357 163 l 759 163 l 759 0 l 129 0 l 129 963 l 758 963 l 735 800 l 357 800 m 336 1324 l 635 1154 l 583 1043 l 253 1160 l 336 1324 z "},"Ё":{"ha":833,"x_min":129,"x_max":759,"o":"m 357 800 l 357 569 l 690 569 l 690 409 l 357 409 l 357 163 l 759 163 l 759 0 l 129 0 l 129 963 l 758 963 l 735 800 l 357 800 z "},"Ж":{"ha":833,"x_min":3,"x_max":830,"o":"m 348 444 l 306 444 l 197 0 l 3 0 l 152 526 l 17 963 l 204 963 l 310 558 l 348 558 l 348 963 l 485 963 l 485 558 l 523 558 l 629 963 l 816 963 l 681 526 l 830 0 l 633 0 l 524 444 l 485 444 l 485 0 l 348 0 l 348 444 z "},"З":{"ha":833,"x_min":10,"x_max":781,"o":"m 393 987 q 583 954 502 987 q 708 864 663 922 q 752 731 752 806 q 695 588 752 642 q 533 513 638 533 q 714 442 646 501 q 781 275 781 382 q 675 59 781 141 q 375 -24 569 -24 q 165 13 257 -24 q 10 114 73 49 l 126 231 q 372 143 231 143 q 505 181 456 143 q 553 285 553 219 q 505 393 553 358 q 369 428 456 428 l 209 428 l 235 591 l 369 591 q 485 620 441 591 q 528 708 528 649 q 487 792 528 762 q 370 822 445 822 q 144 747 238 822 l 34 863 q 393 987 175 987 z "},"И":{"ha":833,"x_min":72,"x_max":761,"o":"m 72 0 l 72 963 l 281 963 l 281 636 q 269 386 281 487 q 242 199 258 286 l 510 963 l 761 963 l 761 0 l 553 0 l 553 319 q 564 566 553 460 q 590 762 574 673 l 328 0 l 72 0 z "},"Й":{"ha":833,"x_min":72,"x_max":761,"o":"m 72 0 l 72 963 l 281 963 l 281 636 q 269 386 281 487 q 242 199 258 286 l 510 963 l 761 963 l 761 0 l 553 0 l 553 319 q 564 566 553 460 q 590 762 574 673 l 328 0 l 72 0 z "},"Ѝ":{"ha":833,"x_min":72,"x_max":761,"o":"m 72 0 l 72 963 l 281 963 l 281 636 q 269 386 281 487 q 242 199 258 286 l 510 963 l 761 963 l 761 0 l 553 0 l 553 319 q 564 566 553 460 q 590 762 574 673 l 328 0 l 72 0 m 308 1324 l 608 1154 l 555 1043 l 226 1160 l 308 1324 z "},"Ҋ":{"ha":833,"x_min":72,"x_max":886,"o":"m 72 0 l 72 963 l 281 963 l 281 636 q 269 386 281 487 q 242 199 258 286 l 510 963 l 761 963 l 761 0 l 553 0 l 553 319 q 564 566 553 460 q 590 762 574 673 l 328 0 l 72 0 m 886 211 l 749 -242 l 560 -242 l 616 0 l 584 0 l 581 211 l 886 211 z "},"К":{"ha":833,"x_min":72,"x_max":845,"o":"m 387 419 l 300 419 l 300 0 l 72 0 l 72 963 l 300 963 l 300 584 l 384 584 l 597 963 l 819 963 l 574 526 l 845 0 l 597 0 l 387 419 z "},"Ќ":{"ha":833,"x_min":72,"x_max":845,"o":"m 387 419 l 300 419 l 300 0 l 72 0 l 72 963 l 300 963 l 300 584 l 384 584 l 597 963 l 819 963 l 574 526 l 845 0 l 597 0 l 387 419 m 558 1323 l 641 1160 l 311 1043 l 259 1154 l 558 1323 z "},"Л":{"ha":833,"x_min":-17,"x_max":761,"o":"m 761 963 l 761 0 l 533 0 l 533 789 l 382 789 l 368 634 q 330 348 351 461 q 276 164 308 235 q 194 50 243 94 q 72 -28 144 7 l -17 122 q 43 178 17 148 q 89 262 69 208 q 125 410 109 316 q 155 656 141 503 l 183 963 l 761 963 z "},"М":{"ha":833,"x_min":24,"x_max":809,"o":"m 755 963 l 809 0 l 610 0 l 599 412 q 598 544 597 488 q 602 652 599 601 q 610 769 606 704 l 502 164 l 330 164 l 213 769 q 222 655 219 708 q 227 544 226 602 q 226 408 228 485 l 219 0 l 24 0 l 78 963 l 313 963 l 419 340 l 521 963 l 755 963 z "},"Н":{"ha":833,"x_min":72,"x_max":761,"o":"m 533 0 l 533 406 l 300 406 l 300 0 l 72 0 l 72 963 l 300 963 l 300 593 l 533 593 l 533 963 l 761 963 l 761 0 l 533 0 z "},"О":{"ha":833,"x_min":31,"x_max":802,"o":"m 802 482 q 758 216 802 329 q 629 39 715 102 q 417 -24 543 -24 q 205 38 291 -24 q 75 213 119 99 q 31 482 31 326 q 75 748 31 635 q 205 924 119 861 q 417 987 291 987 q 629 926 543 987 q 758 751 715 865 q 802 482 802 638 m 569 482 q 533 740 569 660 q 417 821 498 821 q 300 740 335 821 q 265 482 265 659 q 301 224 265 304 q 417 143 337 143 q 534 225 500 143 q 569 482 569 306 z "},"П":{"ha":833,"x_min":72,"x_max":761,"o":"m 533 0 l 533 788 l 300 788 l 300 0 l 72 0 l 72 963 l 761 963 l 761 0 l 533 0 z "},"Р":{"ha":833,"x_min":87,"x_max":801,"o":"m 801 649 q 753 465 801 538 q 619 356 705 392 q 419 320 533 320 l 315 320 l 315 0 l 87 0 l 87 963 l 390 963 q 693 885 585 963 q 801 649 801 807 m 566 649 q 392 800 566 800 l 315 800 l 315 485 l 404 485 q 523 525 481 485 q 566 649 566 564 z "},"С":{"ha":833,"x_min":47,"x_max":819,"o":"m 497 987 q 673 959 601 987 q 806 882 746 932 l 694 747 q 607 799 655 780 q 503 818 559 818 q 392 784 442 818 q 313 675 342 749 q 283 483 283 601 q 345 231 283 310 q 507 152 408 152 q 627 179 579 152 q 715 238 675 206 l 819 106 q 685 15 765 53 q 494 -24 606 -24 q 263 34 364 -24 q 105 205 162 92 q 47 483 47 318 q 107 757 47 644 q 268 928 166 869 q 497 987 370 987 z "},"Т":{"ha":833,"x_min":31,"x_max":810,"o":"m 529 788 l 529 0 l 301 0 l 301 788 l 31 788 l 31 963 l 810 963 l 787 788 l 529 788 z "},"У":{"ha":833,"x_min":-7,"x_max":844,"o":"m 844 963 l 599 327 q 525 171 564 235 q 436 67 486 107 q 316 6 386 27 q 148 -24 246 -16 l 117 132 q 238 153 192 139 q 314 192 285 167 q 365 254 344 217 l 292 254 l -7 963 l 228 963 l 432 385 l 613 963 l 844 963 z "},"Ў":{"ha":833,"x_min":-7,"x_max":844,"o":"m 844 963 l 599 327 q 525 171 564 235 q 436 67 486 107 q 316 6 386 27 q 148 -24 246 -16 l 117 132 q 238 153 192 139 q 314 192 285 167 q 365 254 344 217 l 292 254 l -7 963 l 228 963 l 432 385 l 613 963 l 844 963 m 431 1043 q 259 1106 316 1043 q 191 1258 201 1168 l 313 1279 q 431 1196 338 1196 q 549 1279 523 1196 l 670 1258 q 603 1106 661 1168 q 431 1043 545 1043 z "},"Ф":{"ha":833,"x_min":6,"x_max":828,"o":"m 495 1013 l 495 911 q 746 795 664 900 q 828 486 828 690 q 745 174 828 285 q 495 53 663 63 l 495 -53 l 338 -53 l 338 53 q 88 173 169 63 q 6 486 6 283 q 87 795 6 690 q 338 911 169 900 l 338 1013 l 495 1013 m 351 788 q 248 712 278 781 q 219 486 219 643 q 246 259 219 331 q 351 178 274 186 l 351 788 m 482 788 l 482 178 q 588 259 560 186 q 615 486 615 331 q 586 712 615 643 q 482 788 557 781 z "},"Х":{"ha":833,"x_min":5,"x_max":829,"o":"m 26 963 l 272 963 l 417 653 l 565 963 l 806 963 l 550 521 l 829 0 l 584 0 l 414 367 l 247 0 l 5 0 l 278 511 l 26 963 z "},"Ч":{"ha":833,"x_min":34,"x_max":761,"o":"m 262 963 l 262 610 q 293 481 262 519 q 397 444 325 444 q 479 458 447 444 q 533 493 511 473 l 533 963 l 761 963 l 761 0 l 533 0 l 533 338 q 443 291 493 308 q 334 274 394 274 q 113 358 192 274 q 34 602 34 441 l 34 963 l 262 963 z "},"Ц":{"ha":833,"x_min":72,"x_max":828,"o":"m 72 0 l 72 963 l 300 963 l 300 177 l 533 177 l 533 963 l 761 963 l 761 0 l 72 0 m 828 169 l 828 -242 l 654 -242 l 626 0 l 581 0 l 638 169 l 828 169 z "},"Ш":{"ha":833,"x_min":49,"x_max":784,"o":"m 784 963 l 784 0 l 49 0 l 49 963 l 229 963 l 229 156 l 337 156 l 337 963 l 497 963 l 497 156 l 604 156 l 604 963 l 784 963 z "},"Щ":{"ha":833,"x_min":49,"x_max":851,"o":"m 784 963 l 784 0 l 49 0 l 49 963 l 229 963 l 229 156 l 337 156 l 337 963 l 497 963 l 497 156 l 604 156 l 604 963 l 784 963 m 851 169 l 851 -242 l 677 -242 l 649 0 l 604 0 l 661 169 l 851 169 z "},"Џ":{"ha":833,"x_min":72,"x_max":761,"o":"m 72 0 l 72 963 l 300 963 l 300 177 l 533 177 l 533 963 l 761 963 l 761 0 l 72 0 m 517 169 l 517 -242 l 342 -242 l 315 0 l 269 0 l 326 169 l 517 169 z "},"Ь":{"ha":833,"x_min":76,"x_max":801,"o":"m 304 963 l 304 638 l 399 638 q 694 563 587 638 q 801 327 801 487 q 752 143 801 216 q 617 35 704 71 q 413 0 530 0 l 76 0 l 76 963 l 304 963 m 391 476 l 304 476 l 304 166 l 399 166 q 523 204 479 166 q 566 326 566 242 q 523 440 566 404 q 391 476 480 476 z "},"Ъ":{"ha":833,"x_min":-4,"x_max":815,"o":"m 340 963 l 340 638 l 413 638 q 708 563 601 638 q 815 327 815 487 q 766 142 815 214 q 630 35 717 69 q 429 0 542 0 l 126 0 l 126 796 l -4 796 l -4 963 l 340 963 m 406 480 l 340 480 l 340 163 l 388 163 q 532 197 480 163 q 583 326 583 231 q 540 442 583 404 q 406 480 497 480 z "},"Ы":{"ha":833,"x_min":30,"x_max":803,"o":"m 215 963 l 215 642 l 228 642 q 488 564 395 642 q 581 328 581 486 q 485 78 581 157 q 231 0 390 0 l 30 0 l 30 963 l 215 963 m 803 963 l 803 0 l 618 0 l 618 963 l 803 963 m 248 488 l 215 488 l 215 157 l 234 157 q 347 193 307 157 q 387 327 387 228 q 248 488 387 488 z "},"Љ":{"ha":833,"x_min":-20,"x_max":833,"o":"m 506 963 l 506 638 q 748 562 662 638 q 833 327 833 485 q 745 79 833 158 q 507 0 656 0 l 332 0 l 332 818 l 253 818 l 234 422 q 216 224 228 301 q 182 102 203 148 q 131 28 161 57 q 61 -28 101 -1 l -20 103 q 6 135 -6 115 q 27 190 18 154 q 44 288 37 226 q 57 447 51 349 l 85 963 l 506 963 m 519 495 l 506 495 l 506 147 l 526 147 q 618 194 590 147 q 646 326 646 242 q 617 451 646 407 q 519 495 588 495 z "},"Њ":{"ha":833,"x_min":40,"x_max":833,"o":"m 513 963 l 513 603 q 747 532 660 601 q 833 315 833 463 q 500 0 833 0 l 335 0 l 335 447 l 218 447 l 218 0 l 40 0 l 40 963 l 218 963 l 218 603 l 335 603 l 335 963 l 513 963 m 521 451 l 513 451 l 513 157 l 521 157 q 621 195 592 158 q 650 313 650 232 q 619 420 650 390 q 521 451 588 450 z "},"Ѕ":{"ha":833,"x_min":17,"x_max":789,"o":"m 789 281 q 742 123 789 192 q 608 15 695 54 q 397 -24 520 -24 q 169 16 261 -24 q 17 115 77 56 l 132 243 q 250 171 185 197 q 392 146 315 146 q 508 177 463 146 q 552 264 552 208 q 515 347 552 317 q 377 407 478 376 q 137 528 208 458 q 66 708 66 598 q 115 858 66 796 q 247 954 164 921 q 428 987 329 987 q 626 955 540 987 q 774 863 711 922 l 666 739 q 561 800 617 780 q 447 819 505 819 q 342 795 381 819 q 302 725 302 772 q 319 674 302 694 q 380 634 337 653 q 499 592 423 616 q 655 525 590 564 q 755 428 720 487 q 789 281 789 370 z "},"Є":{"ha":833,"x_min":47,"x_max":819,"o":"m 497 987 q 672 958 601 987 q 806 881 744 930 l 699 757 q 612 804 656 786 q 512 822 567 822 q 355 764 421 822 q 278 580 289 706 l 635 580 l 635 405 l 278 405 q 350 211 287 273 q 507 149 413 149 q 627 171 578 149 q 718 224 676 194 l 819 101 q 686 14 766 51 q 492 -24 606 -24 q 259 34 360 -24 q 103 205 159 92 q 47 483 47 318 q 106 757 47 644 q 267 928 165 869 q 497 987 369 987 z "},"Э":{"ha":833,"x_min":19,"x_max":778,"o":"m 361 987 q 668 860 558 987 q 778 488 778 733 q 723 202 778 316 q 568 33 667 89 q 337 -24 469 -24 q 159 8 240 -24 q 19 99 78 40 l 125 222 q 221 168 172 188 q 335 149 270 149 q 485 209 428 149 q 547 412 542 269 l 190 412 l 190 573 l 547 573 q 488 766 540 710 q 342 822 435 822 q 225 799 274 822 q 136 747 175 775 l 31 867 q 176 954 97 922 q 361 987 256 987 z "},"І":{"ha":833,"x_min":104,"x_max":729,"o":"m 729 963 l 729 796 l 531 796 l 531 167 l 729 167 l 729 0 l 104 0 l 104 167 l 303 167 l 303 796 l 104 796 l 104 963 l 729 963 z "},"Ї":{"ha":833,"x_min":104,"x_max":729,"o":"m 729 963 l 729 796 l 531 796 l 531 167 l 729 167 l 729 0 l 104 0 l 104 167 l 303 167 l 303 796 l 104 796 l 104 963 l 729 963 z "},"Ј":{"ha":833,"x_min":54,"x_max":732,"o":"m 732 963 l 732 347 q 631 78 732 178 q 345 -21 530 -21 q 184 3 252 -21 q 54 69 117 27 l 141 210 q 233 162 190 176 q 331 149 276 149 q 455 196 406 149 q 505 344 505 244 l 505 796 l 209 796 l 209 963 l 732 963 z "},"Ћ":{"ha":833,"x_min":-11,"x_max":808,"o":"m 612 963 l 588 800 l 394 800 l 394 592 q 468 637 428 620 q 559 653 508 653 q 744 577 681 653 q 808 350 808 501 l 808 0 l 595 0 l 595 370 q 573 463 595 435 q 500 490 551 490 q 440 476 465 490 q 394 444 415 463 l 394 0 l 181 0 l 181 800 l -11 800 l -11 963 l 612 963 z "},"Ю":{"ha":833,"x_min":44,"x_max":817,"o":"m 547 987 q 759 861 701 987 q 817 482 817 735 q 757 104 817 232 q 547 -24 698 -24 q 344 90 402 -24 q 281 420 286 203 l 217 420 l 217 0 l 44 0 l 44 963 l 217 963 l 217 574 l 282 574 q 351 879 290 772 q 547 987 411 987 m 547 837 q 498 808 516 837 q 473 702 481 778 q 466 483 466 625 q 473 265 466 342 q 497 157 479 187 q 547 126 515 126 q 597 156 579 126 q 621 264 614 186 q 628 482 628 341 q 621 701 628 624 q 597 807 615 778 q 547 837 580 837 z "},"Я":{"ha":833,"x_min":3,"x_max":761,"o":"m 761 963 l 761 0 l 533 0 l 533 348 l 416 348 l 248 0 l 3 0 l 215 391 q 93 492 135 428 q 51 658 51 556 q 447 963 51 963 l 761 963 m 533 803 l 450 803 q 286 652 286 803 q 331 536 286 569 q 455 503 375 503 l 533 503 l 533 803 z "},"Ђ":{"ha":833,"x_min":-11,"x_max":808,"o":"m 394 800 l 394 592 q 468 637 428 620 q 559 653 509 653 q 744 577 681 653 q 808 350 808 501 l 808 138 q 769 -49 808 24 q 665 -166 731 -122 q 517 -236 599 -209 l 458 -81 q 545 -28 516 -57 q 585 42 574 1 q 595 142 595 83 l 595 370 q 573 463 595 435 q 500 490 551 490 q 440 476 465 490 q 394 444 415 463 l 394 0 l 181 0 l 181 800 l -11 800 l -11 963 l 612 963 l 588 800 l 394 800 z "},"Ѡ":{"ha":833,"x_min":15,"x_max":818,"o":"m 714 963 q 764 818 740 893 q 803 647 788 742 q 818 422 818 552 q 785 169 818 269 q 696 20 751 69 q 573 -28 640 -28 q 465 8 497 -28 q 415 105 432 44 q 360 8 396 44 q 265 -28 324 -28 q 86 82 158 -28 q 15 422 15 192 q 31 647 15 552 q 69 818 46 742 q 118 963 93 893 l 301 963 q 266 811 285 887 q 234 643 247 735 q 222 425 222 551 q 240 208 222 270 q 290 146 258 146 q 319 164 308 146 q 331 222 331 183 l 331 554 l 501 554 l 501 223 q 544 146 501 146 q 593 208 574 146 q 612 425 612 269 q 600 642 612 550 q 569 811 588 735 q 532 963 551 887 l 714 963 z "},"Ѣ":{"ha":833,"x_min":14,"x_max":816,"o":"m 175 0 l 175 722 l 14 722 l 14 853 l 175 853 l 175 963 l 402 963 l 402 853 l 573 853 l 573 722 l 402 722 l 402 616 l 442 616 q 638 583 553 616 q 769 484 722 550 q 816 319 816 419 q 769 141 816 213 q 640 35 722 70 q 456 0 559 0 l 175 0 m 402 166 l 442 166 q 542 203 502 166 q 581 317 581 240 q 542 420 581 385 q 433 454 502 454 l 402 454 l 402 166 z "},"Ѥ":{"ha":833,"x_min":30,"x_max":844,"o":"m 844 27 q 757 -10 804 3 q 656 -24 710 -24 q 408 86 493 -24 q 310 406 322 196 l 245 406 l 245 0 l 30 0 l 30 967 l 245 967 l 245 574 l 311 574 q 419 880 328 773 q 674 987 510 987 q 765 976 724 987 q 842 942 806 965 l 773 809 q 724 826 749 821 q 676 832 698 832 q 566 769 602 832 q 526 573 529 706 l 744 573 l 744 412 l 526 412 q 561 202 527 270 q 674 135 595 135 q 782 159 733 135 l 844 27 z "},"Ѧ":{"ha":833,"x_min":-15,"x_max":850,"o":"m -15 0 l 279 963 l 556 963 l 850 0 l 633 0 l 544 339 l 501 339 l 501 -1 l 334 -1 l 334 339 l 284 339 l 196 0 l -15 0 m 414 839 l 325 496 l 503 496 l 414 839 z "},"Ѩ":{"ha":833,"x_min":1,"x_max":869,"o":"m 197 0 l 272 366 l 176 366 l 176 -3 l 1 -3 l 1 963 l 176 963 l 176 496 l 299 496 l 394 963 l 670 963 l 869 0 l 692 0 l 623 366 l 599 366 l 599 -1 l 460 -1 l 460 366 l 436 366 l 367 0 l 197 0 m 529 860 l 460 496 l 598 496 l 529 860 z "},"Ѫ":{"ha":833,"x_min":4,"x_max":829,"o":"m 4 0 l 160 558 l 254 558 l 92 838 l 92 963 l 730 963 l 730 838 l 572 558 l 669 558 l 829 0 l 647 0 l 542 431 l 503 431 l 503 0 l 330 0 l 330 431 l 289 431 l 184 0 l 4 0 m 415 558 l 549 834 l 275 834 l 415 558 z "},"Ѭ":{"ha":833,"x_min":8,"x_max":852,"o":"m 8 -3 l 8 963 l 183 963 l 183 558 l 385 558 l 261 841 l 261 963 l 797 963 l 797 841 l 677 558 l 772 558 l 852 0 l 683 0 l 646 431 l 610 431 l 610 0 l 456 0 l 456 431 l 420 431 l 384 0 l 217 0 l 275 431 l 183 431 l 183 -3 l 8 -3 m 533 558 l 639 841 l 422 841 l 533 558 z "},"Ѯ":{"ha":833,"x_min":84,"x_max":749,"o":"m 198 398 l 198 524 l 456 792 l 84 792 l 84 963 l 698 963 l 698 799 l 442 537 l 443 537 q 676 468 603 533 q 749 272 749 403 q 723 152 749 200 q 652 73 697 104 q 555 22 608 42 q 448 -15 502 2 q 364 -43 392 -31 q 326 -66 335 -56 q 317 -91 317 -77 q 344 -137 317 -118 q 420 -183 372 -156 l 344 -313 q 154 -201 215 -262 q 93 -69 93 -140 q 114 16 93 -19 q 183 79 135 51 q 314 133 231 107 q 424 171 378 153 q 492 216 469 189 q 516 288 516 242 q 372 398 516 398 l 198 398 m 576 1314 l 655 1224 l 459 1043 l 324 1043 l 127 1224 l 207 1314 l 392 1196 l 576 1314 z "},"Ѱ":{"ha":833,"x_min":15,"x_max":818,"o":"m 317 0 l 317 254 q 88 363 161 276 q 15 588 15 449 l 15 963 l 208 963 l 208 583 q 231 458 208 501 q 331 401 254 415 l 331 963 l 503 963 l 503 402 q 602 460 578 418 q 626 583 626 502 l 626 963 l 818 963 l 818 588 q 745 365 818 452 q 517 256 672 278 l 517 0 l 317 0 z "},"Ѳ":{"ha":833,"x_min":31,"x_max":802,"o":"m 802 482 q 758 216 802 329 q 629 39 715 102 q 417 -24 543 -24 q 205 38 291 -24 q 75 213 119 99 q 31 482 31 326 q 75 748 31 635 q 205 924 119 861 q 417 987 291 987 q 629 926 543 987 q 758 751 715 865 q 802 482 802 638 m 417 821 q 303 758 341 821 q 258 558 265 694 l 574 558 q 530 758 567 694 q 417 821 493 821 m 417 143 q 534 211 497 143 q 576 419 571 278 l 258 419 q 300 210 262 277 q 417 143 339 143 z "},"Ѵ":{"ha":833,"x_min":13,"x_max":831,"o":"m 801 819 q 791 822 797 821 q 779 822 786 822 q 737 784 747 822 l 538 0 l 255 0 l 13 963 l 255 963 l 400 174 l 518 795 q 593 946 539 903 q 738 990 648 990 q 793 986 769 990 q 831 978 817 983 l 801 819 z "},"Ѷ":{"ha":833,"x_min":13,"x_max":831,"o":"m 801 819 q 791 822 797 821 q 779 822 786 822 q 737 784 747 822 l 538 0 l 255 0 l 13 963 l 255 963 l 400 174 l 518 795 q 593 946 539 903 q 738 990 648 990 q 793 986 769 990 q 831 978 817 983 l 801 819 z "},"Ѹ":{"ha":833,"x_min":-13,"x_max":826,"o":"m 212 -24 q 43 112 100 -24 q -13 482 -13 248 q 12 748 -13 635 q 87 924 37 862 q 212 987 138 987 q 340 926 291 987 q 412 751 390 865 q 435 482 435 638 q 412 216 435 329 q 340 39 390 102 q 212 -24 291 -24 m 212 115 q 267 200 250 115 q 283 482 283 285 q 266 764 283 680 q 212 848 249 848 q 157 764 174 848 q 140 482 140 680 q 157 199 140 283 q 212 115 175 115 m 481 -309 l 449 -208 q 551 -136 514 -181 q 602 0 588 -92 l 533 0 l 435 738 l 573 738 l 629 140 l 692 738 l 826 738 l 721 0 q 670 -166 706 -102 q 584 -262 633 -229 q 481 -309 535 -296 z "},"Ғ":{"ha":833,"x_min":53,"x_max":810,"o":"m 585 601 l 585 465 l 388 465 l 388 0 l 160 0 l 160 465 l 53 465 l 53 601 l 160 601 l 160 963 l 810 963 l 789 784 l 388 784 l 388 601 l 585 601 z "},"Ҕ":{"ha":833,"x_min":59,"x_max":786,"o":"m 507 -315 q 399 -297 443 -315 q 319 -253 356 -279 l 403 -124 q 440 -141 422 -134 q 485 -149 458 -149 q 539 -127 520 -149 q 558 -55 558 -106 l 558 1 l 558 1 l 558 319 q 527 447 558 410 q 426 484 497 484 q 344 469 377 484 q 287 433 310 454 l 287 0 l 59 0 l 59 963 l 674 963 l 647 790 l 287 790 l 287 584 q 378 634 328 615 q 490 653 428 653 q 711 568 637 653 q 786 321 786 482 l 786 0 l 785 0 l 785 -36 q 713 -243 785 -172 q 507 -315 640 -315 z "},"Җ":{"ha":833,"x_min":3,"x_max":848,"o":"m 348 444 l 306 444 l 197 0 l 3 0 l 152 526 l 17 963 l 204 963 l 310 558 l 348 558 l 348 963 l 485 963 l 485 558 l 523 558 l 629 963 l 816 963 l 681 526 l 830 0 l 633 0 l 524 444 l 485 444 l 485 0 l 348 0 l 348 444 m 848 169 l 848 -242 l 700 -242 l 676 0 l 638 0 l 686 169 l 848 169 z "},"Ҙ":{"ha":833,"x_min":10,"x_max":781,"o":"m 393 987 q 583 954 502 987 q 708 864 663 922 q 752 731 752 806 q 695 588 752 642 q 533 513 638 533 q 714 442 646 501 q 781 275 781 382 q 675 59 781 141 q 375 -24 569 -24 q 165 13 257 -24 q 10 114 73 49 l 126 231 q 372 143 231 143 q 505 181 456 143 q 553 285 553 219 q 505 393 553 358 q 369 428 456 428 l 209 428 l 235 591 l 369 591 q 485 620 441 591 q 528 708 528 649 q 487 792 528 762 q 370 822 445 822 q 144 747 238 822 l 34 863 q 393 987 175 987 z "},"Қ":{"ha":833,"x_min":72,"x_max":845,"o":"m 387 419 l 300 419 l 300 0 l 72 0 l 72 963 l 300 963 l 300 584 l 384 584 l 597 963 l 819 963 l 574 526 l 845 0 l 597 0 l 387 419 m 845 169 l 845 -242 l 671 -242 l 643 0 l 598 0 l 655 169 l 845 169 z "},"Ҝ":{"ha":833,"x_min":72,"x_max":838,"o":"m 328 204 l 328 430 l 278 430 l 278 0 l 72 0 l 72 963 l 278 963 l 278 573 l 328 573 l 328 796 l 404 796 l 404 573 l 426 573 l 594 963 l 812 963 l 595 526 l 838 0 l 599 0 l 431 430 l 404 430 l 404 204 l 328 204 z "},"Ҟ":{"ha":833,"x_min":13,"x_max":838,"o":"m 408 419 l 321 419 l 321 0 l 93 0 l 93 741 l 13 741 l 13 874 l 93 874 l 93 963 l 321 963 l 321 874 l 438 874 l 438 741 l 321 741 l 321 584 l 405 584 l 590 963 l 812 963 l 594 526 l 838 0 l 590 0 l 408 419 z "},"Ҡ":{"ha":833,"x_min":1,"x_max":840,"o":"m 422 423 l 342 423 l 342 0 l 131 0 l 131 796 l 1 796 l 1 963 l 342 963 l 342 580 l 419 580 l 599 963 l 815 963 l 597 526 l 840 0 l 599 0 l 422 423 z "},"Ң":{"ha":833,"x_min":56,"x_max":826,"o":"m 517 0 l 517 406 l 284 406 l 284 0 l 56 0 l 56 963 l 284 963 l 284 593 l 517 593 l 517 963 l 745 963 l 745 0 l 517 0 m 826 169 l 826 -242 l 651 -242 l 624 0 l 578 0 l 635 169 l 826 169 z "},"Ҥ":{"ha":833,"x_min":46,"x_max":859,"o":"m 438 0 l 438 403 l 274 403 l 274 0 l 46 0 l 46 963 l 274 963 l 274 596 l 438 596 l 438 963 l 859 963 l 832 784 l 666 784 l 666 0 l 438 0 z "},"Ҧ":{"ha":833,"x_min":32,"x_max":810,"o":"m 327 0 l 327 810 l 219 810 l 219 0 l 32 0 l 32 963 l 515 963 l 515 595 q 567 627 538 615 q 637 640 597 640 q 765 582 719 640 q 810 433 810 524 l 810 -63 q 744 -247 810 -179 q 572 -315 678 -315 q 464 -297 508 -315 q 384 -253 421 -279 l 461 -141 q 501 -161 479 -152 q 551 -170 522 -170 q 604 -149 585 -170 q 623 -77 623 -128 l 623 418 q 570 488 623 488 q 540 482 553 488 q 515 466 526 476 l 515 0 l 327 0 z "},"Ԥ":{"ha":833,"x_min":72,"x_max":828,"o":"m 533 0 l 533 788 l 300 788 l 300 0 l 72 0 l 72 963 l 761 963 l 761 0 l 533 0 m 828 169 l 828 -242 l 654 -242 l 626 0 l 581 0 l 638 169 l 828 169 z "},"Ҩ":{"ha":833,"x_min":31,"x_max":808,"o":"m 426 -28 q 222 31 311 -28 q 82 202 133 89 q 31 479 31 315 q 82 758 31 644 q 221 931 133 872 q 421 990 309 990 q 589 959 522 990 q 716 876 656 928 l 608 751 q 522 805 564 786 q 431 824 481 824 q 313 744 359 824 q 267 479 267 664 q 288 276 267 353 q 345 165 309 199 q 426 131 381 131 q 440 131 433 131 q 391 255 408 194 q 374 380 374 316 q 432 543 374 485 q 588 600 490 600 q 695 577 645 600 q 777 506 746 555 q 808 380 808 458 q 769 195 808 283 q 655 48 729 106 q 709 -33 680 10 q 773 -123 738 -76 l 658 -206 q 588 -107 621 -153 q 525 -15 554 -60 q 426 -28 478 -28 m 531 384 q 580 183 531 290 q 639 387 640 245 q 586 465 639 465 q 531 384 531 465 z "},"Ҫ":{"ha":833,"x_min":47,"x_max":819,"o":"m 497 987 q 673 959 601 987 q 806 882 746 932 l 694 747 q 607 799 655 780 q 503 818 559 818 q 392 784 442 818 q 313 675 342 749 q 283 483 283 601 q 345 231 283 310 q 507 152 408 152 q 627 179 579 152 q 715 238 675 206 l 819 106 q 685 15 765 53 q 494 -24 606 -24 q 263 34 364 -24 q 105 205 162 92 q 47 483 47 318 q 107 757 47 644 q 268 928 166 869 q 497 987 370 987 m 424 39 q 604 -48 538 3 q 670 -189 670 -99 q 614 -312 670 -267 q 459 -358 558 -358 q 312 -323 375 -358 l 356 -214 q 394 -228 371 -222 q 442 -234 417 -234 q 502 -215 483 -234 q 520 -165 520 -195 q 495 -87 520 -130 q 392 0 470 -44 l 424 39 z "},"Ҭ":{"ha":833,"x_min":31,"x_max":810,"o":"m 529 788 l 529 0 l 301 0 l 301 788 l 31 788 l 31 963 l 810 963 l 787 788 l 529 788 m 597 169 l 597 -242 l 422 -242 l 394 0 l 349 0 l 406 169 l 597 169 z "},"Ү":{"ha":833,"x_min":-11,"x_max":844,"o":"m 531 361 l 531 0 l 303 0 l 303 360 l -11 963 l 238 963 l 421 548 l 605 963 l 844 963 l 531 361 z "},"Ұ":{"ha":833,"x_min":-11,"x_max":844,"o":"m 692 408 l 692 280 l 531 280 l 531 0 l 303 0 l 303 280 l 141 280 l 141 408 l 278 408 l -11 963 l 238 963 l 421 548 l 605 963 l 844 963 l 555 408 l 692 408 z "},"Ҳ":{"ha":833,"x_min":5,"x_max":830,"o":"m 26 963 l 272 963 l 417 653 l 565 963 l 806 963 l 550 521 l 829 0 l 584 0 l 414 367 l 247 0 l 5 0 l 278 511 l 26 963 m 830 169 l 830 -242 l 656 -242 l 628 0 l 583 0 l 640 169 l 830 169 z "},"Ҵ":{"ha":833,"x_min":0,"x_max":786,"o":"m 126 0 l 126 815 l 0 815 l 0 963 l 456 963 l 434 815 l 327 815 l 327 177 l 519 177 l 519 963 l 719 963 l 719 169 l 786 169 l 786 -242 l 639 -242 l 611 0 l 126 0 z "},"Ҷ":{"ha":833,"x_min":34,"x_max":828,"o":"m 262 963 l 262 610 q 293 481 262 519 q 397 444 325 444 q 479 458 447 444 q 533 493 511 473 l 533 963 l 761 963 l 761 0 l 533 0 l 533 338 q 443 291 493 308 q 334 274 394 274 q 113 358 192 274 q 34 602 34 441 l 34 963 l 262 963 m 828 169 l 828 -242 l 654 -242 l 626 0 l 581 0 l 638 169 l 828 169 z "},"Ҹ":{"ha":833,"x_min":34,"x_max":761,"o":"m 451 770 l 451 449 q 498 467 478 456 q 533 493 518 479 l 533 963 l 761 963 l 761 0 l 533 0 l 533 338 q 451 294 495 310 l 451 174 l 360 174 l 360 275 q 334 274 347 274 q 113 358 192 274 q 34 602 34 441 l 34 963 l 262 963 l 262 610 q 285 493 262 531 q 360 447 308 455 l 360 770 l 451 770 z "},"Һ":{"ha":833,"x_min":72,"x_max":799,"o":"m 503 653 q 725 568 650 653 q 799 321 799 482 l 799 0 l 572 0 l 572 319 q 541 447 572 410 q 440 484 510 484 q 357 469 390 484 q 300 433 324 454 l 300 0 l 72 0 l 72 963 l 300 963 l 300 584 q 391 634 341 615 q 503 653 442 653 z "},"Ԧ":{"ha":833,"x_min":72,"x_max":839,"o":"m 490 653 q 699 568 626 653 q 772 321 772 482 l 772 169 l 839 169 l 839 -242 l 665 -242 l 637 0 l 544 0 l 544 319 q 515 447 544 410 q 426 484 486 484 q 354 469 385 484 q 300 433 323 454 l 300 0 l 72 0 l 72 963 l 300 963 l 300 584 q 389 634 340 615 q 490 653 438 653 z "},"Ҽ":{"ha":833,"x_min":-7,"x_max":800,"o":"m -7 606 q 5 685 -7 652 q 33 748 16 719 l 151 701 q 139 664 144 683 q 133 617 133 644 q 194 544 133 544 q 285 873 206 758 q 507 987 365 987 q 677 927 613 987 q 771 758 742 868 q 800 496 800 648 q 798 445 800 474 q 793 397 797 417 l 392 397 q 431 189 394 249 q 531 129 467 129 q 610 147 574 129 q 679 189 645 165 l 760 79 q 648 3 709 31 q 519 -24 587 -24 q 285 84 365 -24 q 195 402 206 192 q 45 460 97 403 q -7 606 -7 517 m 507 836 q 447 810 471 836 q 409 721 422 785 q 392 544 395 658 l 606 544 q 597 722 608 658 q 563 811 585 785 q 507 836 540 836 z "},"Ҿ":{"ha":833,"x_min":-7,"x_max":800,"o":"m -7 606 q 5 685 -7 652 q 33 748 16 719 l 151 701 q 139 664 144 683 q 133 617 133 644 q 194 544 133 544 q 285 873 206 758 q 507 987 365 987 q 677 927 613 987 q 771 758 742 868 q 800 496 800 648 q 798 445 800 474 q 793 397 797 417 l 392 397 q 431 189 394 249 q 531 129 467 129 q 610 147 574 129 q 679 189 645 165 l 760 79 q 648 3 709 31 q 519 -24 587 -24 q 285 84 365 -24 q 195 402 206 192 q 45 460 97 403 q -7 606 -7 517 m 507 836 q 447 810 471 836 q 409 721 422 785 q 392 544 395 658 l 606 544 q 597 722 608 658 q 563 811 585 785 q 507 836 540 836 m 615 72 l 640 0 q 511 -72 543 -34 q 480 -153 480 -110 q 502 -204 480 -187 q 560 -221 524 -221 q 600 -218 583 -221 q 635 -211 618 -215 l 619 -341 q 581 -349 600 -346 q 537 -352 561 -352 q 388 -308 449 -352 q 327 -181 327 -263 q 365 -61 327 -108 q 469 17 403 -14 q 615 72 535 47 z "},"Ӏ":{"ha":833,"x_min":104,"x_max":729,"o":"m 729 963 l 729 796 l 531 796 l 531 167 l 729 167 l 729 0 l 104 0 l 104 167 l 303 167 l 303 796 l 104 796 l 104 963 l 729 963 z "},"Ӂ":{"ha":833,"x_min":3,"x_max":830,"o":"m 348 444 l 306 444 l 197 0 l 3 0 l 152 526 l 17 963 l 204 963 l 310 558 l 348 558 l 348 963 l 485 963 l 485 558 l 523 558 l 629 963 l 816 963 l 681 526 l 830 0 l 633 0 l 524 444 l 485 444 l 485 0 l 348 0 l 348 444 z "},"Ӄ":{"ha":833,"x_min":72,"x_max":817,"o":"m 72 0 l 72 963 l 300 963 l 300 570 l 390 570 l 597 963 l 817 963 l 594 562 q 740 475 692 543 q 789 281 789 408 l 789 -36 q 716 -243 789 -172 q 510 -315 643 -315 q 403 -297 447 -315 q 322 -253 359 -279 l 406 -124 q 443 -141 425 -134 q 489 -149 461 -149 q 542 -127 524 -149 q 561 -55 561 -106 l 561 278 q 535 374 561 342 q 449 405 509 405 l 300 405 l 300 0 l 72 0 z "},"Ӆ":{"ha":833,"x_min":-14,"x_max":847,"o":"m 847 211 l 710 -242 l 522 -242 l 577 0 l 495 0 l 495 789 l 385 789 l 371 634 q 333 348 354 461 q 279 164 312 235 q 197 50 247 94 q 75 -28 147 7 l -14 122 q 47 178 21 148 q 92 262 72 208 q 128 410 112 316 q 158 656 144 503 l 186 963 l 722 963 l 722 211 l 847 211 z "},"Ӈ":{"ha":833,"x_min":72,"x_max":761,"o":"m 533 0 l 533 406 l 300 406 l 300 0 l 72 0 l 72 963 l 300 963 l 300 593 l 533 593 l 533 963 l 761 963 l 761 0 l 533 0 m 483 -315 q 375 -297 419 -315 q 294 -253 331 -279 l 378 -124 q 415 -141 397 -134 q 461 -149 433 -149 q 515 -127 496 -149 q 533 -55 533 -106 l 533 1 l 761 1 l 761 -36 q 688 -243 761 -172 q 483 -315 615 -315 z "},"Ӊ":{"ha":833,"x_min":60,"x_max":832,"o":"m 480 0 l 480 403 l 287 403 l 287 0 l 60 0 l 60 963 l 287 963 l 287 596 l 480 596 l 480 963 l 708 963 l 708 211 l 832 211 l 694 -242 l 506 -242 l 562 0 l 480 0 z "},"Ӌ":{"ha":833,"x_min":34,"x_max":761,"o":"m 262 963 l 262 610 q 293 481 262 519 q 397 444 325 444 q 479 458 447 444 q 533 493 511 473 l 533 963 l 761 963 l 761 0 l 533 0 l 533 338 q 443 291 493 308 q 334 274 394 274 q 113 358 192 274 q 34 602 34 441 l 34 963 l 262 963 m 189 169 l 189 -242 l 363 -242 l 391 0 l 436 0 l 379 169 l 189 169 z "},"Ӎ":{"ha":833,"x_min":29,"x_max":876,"o":"m 876 211 l 738 -242 l 576 -242 l 632 0 l 560 0 l 549 412 q 548 545 547 488 q 552 655 549 601 q 562 778 556 709 l 479 164 l 307 164 l 218 778 q 227 658 224 713 q 232 544 231 603 q 231 408 233 485 l 224 0 l 29 0 l 83 963 l 317 963 l 397 340 l 471 963 l 705 963 l 747 211 l 876 211 z "},"Ӑ":{"ha":833,"x_min":-15,"x_max":850,"o":"m 556 208 l 274 208 l 223 0 l -15 0 l 279 963 l 556 963 l 850 0 l 606 0 l 556 208 m 310 373 l 518 373 l 414 799 l 310 373 z "},"Ӓ":{"ha":833,"x_min":-15,"x_max":850,"o":"m 556 208 l 274 208 l 223 0 l -15 0 l 279 963 l 556 963 l 850 0 l 606 0 l 556 208 m 310 373 l 518 373 l 414 799 l 310 373 z "},"Ӕ":{"ha":833,"x_min":-17,"x_max":838,"o":"m 435 212 l 240 212 l 201 0 l -17 0 l 226 963 l 785 963 l 761 808 l 508 808 l 554 565 l 772 565 l 772 410 l 582 410 l 631 154 l 838 154 l 838 0 l 469 0 l 435 212 m 265 367 l 412 367 l 340 810 l 265 367 z "},"Ӗ":{"ha":833,"x_min":129,"x_max":759,"o":"m 357 800 l 357 569 l 690 569 l 690 409 l 357 409 l 357 163 l 759 163 l 759 0 l 129 0 l 129 963 l 758 963 l 735 800 l 357 800 z "},"Ә":{"ha":833,"x_min":27,"x_max":801,"o":"m 27 468 q 29 516 27 492 q 34 560 31 540 l 574 560 q 522 761 570 698 q 385 824 474 824 q 273 800 318 824 q 188 747 228 776 l 83 867 q 226 955 149 924 q 406 987 303 987 q 698 861 596 987 q 801 488 801 735 q 697 109 801 241 q 411 -24 594 -24 q 121 108 215 -24 q 27 468 27 240 m 411 140 q 527 201 485 140 q 574 406 569 262 l 243 406 q 290 200 245 260 q 411 140 334 140 z "},"Ӛ":{"ha":833,"x_min":27,"x_max":801,"o":"m 27 468 q 29 516 27 492 q 34 560 31 540 l 574 560 q 522 761 570 698 q 385 824 474 824 q 273 800 318 824 q 188 747 228 776 l 83 867 q 226 955 149 924 q 406 987 303 987 q 698 861 596 987 q 801 488 801 735 q 697 109 801 241 q 411 -24 594 -24 q 121 108 215 -24 q 27 468 27 240 m 411 140 q 527 201 485 140 q 574 406 569 262 l 243 406 q 290 200 245 260 q 411 140 334 140 z "},"Ӝ":{"ha":833,"x_min":3,"x_max":830,"o":"m 348 444 l 306 444 l 197 0 l 3 0 l 152 526 l 17 963 l 204 963 l 310 558 l 348 558 l 348 963 l 485 963 l 485 558 l 523 558 l 629 963 l 816 963 l 681 526 l 830 0 l 633 0 l 524 444 l 485 444 l 485 0 l 348 0 l 348 444 z "},"Ӟ":{"ha":833,"x_min":10,"x_max":781,"o":"m 393 987 q 583 954 502 987 q 708 864 663 922 q 752 731 752 806 q 695 588 752 642 q 533 513 638 533 q 714 442 646 501 q 781 275 781 382 q 675 59 781 141 q 375 -24 569 -24 q 165 13 257 -24 q 10 114 73 49 l 126 231 q 372 143 231 143 q 505 181 456 143 q 553 285 553 219 q 505 393 553 358 q 369 428 456 428 l 209 428 l 235 591 l 369 591 q 485 620 441 591 q 528 708 528 649 q 487 792 528 762 q 370 822 445 822 q 144 747 238 822 l 34 863 q 393 987 175 987 z "},"Ӡ":{"ha":833,"x_min":57,"x_max":776,"o":"m 390 -28 q 247 -11 307 -28 q 141 34 186 6 q 57 97 96 63 l 163 218 q 268 158 218 176 q 381 139 317 139 q 496 175 451 139 q 541 293 541 210 q 492 398 541 370 q 360 426 442 426 l 226 426 l 226 546 l 484 792 l 112 792 l 112 963 l 726 963 l 726 799 l 476 558 l 484 558 q 697 492 617 558 q 776 296 776 426 q 730 133 776 206 q 598 16 684 60 q 390 -28 511 -28 z "},"Ӣ":{"ha":833,"x_min":72,"x_max":761,"o":"m 72 0 l 72 963 l 281 963 l 281 636 q 269 386 281 487 q 242 199 258 286 l 510 963 l 761 963 l 761 0 l 553 0 l 553 319 q 564 566 553 460 q 590 762 574 673 l 328 0 l 72 0 z "},"Ӥ":{"ha":833,"x_min":72,"x_max":761,"o":"m 72 0 l 72 963 l 281 963 l 281 636 q 269 386 281 487 q 242 199 258 286 l 510 963 l 761 963 l 761 0 l 553 0 l 553 319 q 564 566 553 460 q 590 762 574 673 l 328 0 l 72 0 z "},"Ӧ":{"ha":833,"x_min":31,"x_max":802,"o":"m 802 482 q 758 216 802 329 q 629 39 715 102 q 417 -24 543 -24 q 205 38 291 -24 q 75 213 119 99 q 31 482 31 326 q 75 748 31 635 q 205 924 119 861 q 417 987 291 987 q 629 926 543 987 q 758 751 715 865 q 802 482 802 638 m 569 482 q 533 740 569 660 q 417 821 498 821 q 300 740 335 821 q 265 482 265 659 q 301 224 265 304 q 417 143 337 143 q 534 225 500 143 q 569 482 569 306 z "},"Ө":{"ha":833,"x_min":31,"x_max":802,"o":"m 802 482 q 758 216 802 329 q 629 39 715 102 q 417 -24 543 -24 q 205 38 291 -24 q 75 213 119 99 q 31 482 31 326 q 75 748 31 635 q 205 924 119 861 q 417 987 291 987 q 629 926 543 987 q 758 751 715 865 q 802 482 802 638 m 417 821 q 303 758 341 821 q 258 558 265 694 l 574 558 q 530 758 567 694 q 417 821 493 821 m 417 143 q 534 211 497 143 q 576 419 571 278 l 258 419 q 300 210 262 277 q 417 143 339 143 z "},"Ӫ":{"ha":833,"x_min":31,"x_max":802,"o":"m 802 482 q 758 216 802 329 q 629 39 715 102 q 417 -24 543 -24 q 205 38 291 -24 q 75 213 119 99 q 31 482 31 326 q 75 748 31 635 q 205 924 119 861 q 417 987 291 987 q 629 926 543 987 q 758 751 715 865 q 802 482 802 638 m 417 821 q 303 758 341 821 q 258 558 265 694 l 574 558 q 530 758 567 694 q 417 821 493 821 m 417 143 q 534 211 497 143 q 576 419 571 278 l 258 419 q 300 210 262 277 q 417 143 339 143 z "},"Ӭ":{"ha":833,"x_min":19,"x_max":778,"o":"m 361 987 q 668 860 558 987 q 778 488 778 733 q 723 202 778 316 q 568 33 667 89 q 337 -24 469 -24 q 159 8 240 -24 q 19 99 78 40 l 125 222 q 221 168 172 188 q 335 149 270 149 q 485 209 428 149 q 547 412 542 269 l 190 412 l 190 573 l 547 573 q 488 766 540 710 q 342 822 435 822 q 225 799 274 822 q 136 747 175 775 l 31 867 q 176 954 97 922 q 361 987 256 987 z "},"Ӯ":{"ha":833,"x_min":-7,"x_max":844,"o":"m 844 963 l 599 327 q 525 171 564 235 q 436 67 486 107 q 316 6 386 27 q 148 -24 246 -16 l 117 132 q 238 153 192 139 q 314 192 285 167 q 365 254 344 217 l 292 254 l -7 963 l 228 963 l 432 385 l 613 963 l 844 963 z "},"Ӱ":{"ha":833,"x_min":-7,"x_max":844,"o":"m 844 963 l 599 327 q 525 171 564 235 q 436 67 486 107 q 316 6 386 27 q 148 -24 246 -16 l 117 132 q 238 153 192 139 q 314 192 285 167 q 365 254 344 217 l 292 254 l -7 963 l 228 963 l 432 385 l 613 963 l 844 963 z "},"Ӳ":{"ha":833,"x_min":-7,"x_max":844,"o":"m 844 963 l 599 327 q 525 171 564 235 q 436 67 486 107 q 316 6 386 27 q 148 -24 246 -16 l 117 132 q 238 153 192 139 q 314 192 285 167 q 365 254 344 217 l 292 254 l -7 963 l 228 963 l 432 385 l 613 963 l 844 963 z "},"Ӵ":{"ha":833,"x_min":34,"x_max":761,"o":"m 262 963 l 262 610 q 293 481 262 519 q 397 444 325 444 q 479 458 447 444 q 533 493 511 473 l 533 963 l 761 963 l 761 0 l 533 0 l 533 338 q 443 291 493 308 q 334 274 394 274 q 113 358 192 274 q 34 602 34 441 l 34 963 l 262 963 z "},"Ӷ":{"ha":833,"x_min":125,"x_max":776,"o":"m 776 963 l 754 784 l 353 784 l 353 0 l 125 0 l 125 963 l 776 963 m 447 169 l 447 -242 l 273 -242 l 245 0 l 200 0 l 257 169 l 447 169 z "},"Ӹ":{"ha":833,"x_min":30,"x_max":803,"o":"m 215 963 l 215 642 l 228 642 q 488 564 395 642 q 581 328 581 486 q 485 78 581 157 q 231 0 390 0 l 30 0 l 30 963 l 215 963 m 803 963 l 803 0 l 618 0 l 618 963 l 803 963 m 248 488 l 215 488 l 215 157 l 234 157 q 347 193 307 157 q 387 327 387 228 q 248 488 387 488 z "},"Ӻ":{"ha":833,"x_min":85,"x_max":872,"o":"m 273 -315 q 165 -297 209 -315 q 85 -253 122 -279 l 169 -124 q 206 -141 188 -134 q 251 -149 224 -149 q 305 -127 286 -149 q 324 -55 324 -106 l 324 0 l 221 0 l 221 465 l 114 465 l 114 601 l 221 601 l 221 963 l 872 963 l 850 784 l 449 784 l 449 601 l 647 601 l 647 465 l 449 465 l 449 169 l 551 169 l 551 -36 q 478 -243 551 -172 q 273 -315 406 -315 z "},"Ӽ":{"ha":833,"x_min":-1,"x_max":846,"o":"m 567 -315 q 460 -297 503 -315 q 379 -253 416 -279 l 463 -124 q 500 -141 482 -134 q 546 -149 518 -149 q 599 -127 581 -149 q 618 -55 618 -106 l 618 0 l 578 0 l 408 367 l 240 0 l -1 0 l 272 511 l 20 963 l 265 963 l 410 653 l 559 963 l 799 963 l 544 521 l 733 169 l 846 169 l 846 -36 q 773 -243 846 -172 q 567 -315 700 -315 z "},"Ӿ":{"ha":833,"x_min":5,"x_max":829,"o":"m 26 963 l 272 963 l 417 653 l 565 963 l 806 963 l 550 521 l 829 0 l 584 0 l 414 367 l 247 0 l 5 0 l 278 511 l 26 963 m 27 443 l 27 580 l 809 580 l 809 443 l 27 443 z "},"Ԁ":{"ha":833,"x_min":33,"x_max":757,"o":"m 418 0 q 215 34 302 0 q 81 139 128 68 q 33 320 33 210 q 141 555 33 473 q 435 638 249 638 l 529 638 l 529 963 l 757 963 l 757 0 l 418 0 m 435 166 l 529 166 l 529 476 l 442 476 q 267 320 267 476 q 311 201 267 236 q 435 166 354 166 z "},"Ԃ":{"ha":833,"x_min":14,"x_max":810,"o":"m 236 -21 q 126 14 177 -21 q 45 118 76 49 q 14 290 14 188 q 52 466 14 393 q 155 576 90 538 q 298 615 219 615 l 349 615 l 349 963 l 522 963 l 522 194 q 535 141 522 156 q 567 125 548 125 q 618 176 601 125 q 635 340 635 228 q 633 440 635 394 q 628 526 631 485 l 801 526 q 808 442 806 486 q 810 342 810 398 q 747 66 810 156 q 560 -24 683 -24 q 461 0 503 -24 q 391 66 418 23 q 325 2 362 26 q 236 -21 288 -21 m 267 125 q 312 138 294 125 q 349 181 331 150 l 349 182 l 349 474 l 306 474 q 218 432 249 474 q 188 292 188 390 q 211 161 188 198 q 267 125 234 125 z "},"Ԅ":{"ha":833,"x_min":22,"x_max":811,"o":"m 51 368 l 51 522 l 156 522 q 269 557 230 522 q 308 670 308 592 q 267 774 308 742 q 147 806 227 806 l 22 806 l 22 963 l 147 963 q 442 891 343 963 q 541 670 541 819 q 489 507 541 570 q 360 410 438 444 l 461 201 q 492 158 476 170 q 528 147 507 147 q 581 192 563 147 q 599 354 599 238 q 598 441 599 398 q 592 526 596 485 l 803 526 q 811 356 811 445 q 738 68 811 159 q 530 -24 665 -24 q 357 24 422 -24 q 249 162 292 71 l 152 368 l 51 368 z "},"Ԇ":{"ha":833,"x_min":80,"x_max":785,"o":"m 785 169 l 785 -242 l 611 -242 l 583 0 l 513 0 l 304 368 l 122 368 l 122 524 l 324 524 q 438 559 399 524 q 476 670 476 594 q 436 771 476 740 q 315 803 395 803 l 80 803 l 80 963 l 315 963 q 611 891 511 963 q 711 670 711 819 q 655 502 711 567 q 518 406 599 438 l 665 169 l 785 169 z "},"Ԉ":{"ha":833,"x_min":-6,"x_max":830,"o":"m 74 -28 l -6 103 q 39 155 19 125 q 72 240 58 185 q 97 388 86 295 q 117 629 108 481 l 136 963 l 542 963 l 542 194 q 555 141 542 156 q 588 125 568 125 q 638 176 621 125 q 656 340 656 228 q 654 440 656 394 q 649 526 652 485 l 822 526 q 828 442 826 486 q 830 342 830 398 q 767 66 830 156 q 581 -24 704 -24 q 431 34 492 -24 q 369 207 369 92 l 369 814 l 295 814 l 282 578 q 260 319 274 422 q 223 154 246 217 q 163 49 199 90 q 74 -28 127 8 z "},"Ԋ":{"ha":833,"x_min":42,"x_max":822,"o":"m 563 -24 q 453 2 504 -24 q 372 79 403 28 q 340 207 340 131 l 340 403 l 226 403 l 226 0 l 42 0 l 42 963 l 226 963 l 226 565 l 340 565 l 340 963 l 525 963 l 525 194 q 538 141 525 156 q 570 125 551 125 q 620 176 603 125 q 638 340 638 228 q 636 440 638 394 q 631 526 634 485 l 814 526 q 820 442 818 486 q 822 342 822 398 q 758 66 822 156 q 563 -24 694 -24 z "},"Ԍ":{"ha":833,"x_min":31,"x_max":789,"o":"m 452 -24 q 139 106 247 -24 q 31 483 31 235 q 91 759 31 647 q 252 929 151 872 q 478 987 353 987 q 656 954 584 987 q 785 868 728 922 l 665 744 q 581 802 622 783 q 490 821 541 821 q 375 786 425 821 q 295 677 324 752 q 266 482 266 603 q 286 282 266 356 q 349 175 307 208 q 454 143 390 143 q 518 151 488 143 q 574 172 548 159 l 574 392 l 453 392 l 431 552 l 789 552 l 789 74 q 634 3 717 29 q 452 -24 551 -24 z "},"Ԏ":{"ha":833,"x_min":17,"x_max":805,"o":"m 503 -24 q 366 8 427 -24 q 268 103 304 39 q 233 265 233 167 l 233 503 l 231 503 l 231 792 l 17 792 l 17 963 l 699 963 l 676 792 l 459 792 l 459 208 q 473 155 459 170 q 510 139 487 139 q 570 189 552 139 q 588 341 588 238 q 586 440 588 394 q 581 526 585 485 l 797 526 q 803 442 801 486 q 805 342 805 398 q 721 66 805 156 q 503 -24 638 -24 z "},"Ԑ":{"ha":833,"x_min":52,"x_max":824,"o":"m 449 987 q 644 956 560 987 q 799 863 728 924 l 689 747 q 467 822 595 822 q 349 792 392 822 q 305 707 305 761 q 349 620 305 649 q 465 591 393 591 l 623 591 l 597 428 l 465 428 q 329 393 378 428 q 280 285 280 358 q 328 181 280 219 q 458 143 377 143 q 595 166 533 143 q 710 231 657 188 l 824 114 q 662 13 756 49 q 449 -24 568 -24 q 236 14 325 -24 q 100 119 148 51 q 52 276 52 186 q 120 441 52 382 q 300 513 188 500 q 138 580 195 531 q 81 717 81 628 q 129 857 81 797 q 260 952 176 918 q 449 987 343 987 z "},"Ԓ":{"ha":833,"x_min":-17,"x_max":761,"o":"m 761 963 l 761 0 l 533 0 l 533 789 l 382 789 l 368 634 q 330 348 351 461 q 276 164 308 235 q 194 50 243 94 q 72 -28 144 7 l -17 122 q 43 178 17 148 q 89 262 69 208 q 125 410 109 316 q 155 656 141 503 l 183 963 l 761 963 m 483 -315 q 375 -297 419 -315 q 294 -253 331 -279 l 378 -124 q 415 -141 397 -134 q 461 -149 433 -149 q 515 -127 496 -149 q 533 -55 533 -106 l 533 1 l 761 1 l 761 -36 q 688 -243 761 -172 q 483 -315 615 -315 z "},"Ԕ":{"ha":833,"x_min":-24,"x_max":842,"o":"m 119 963 l 480 963 l 564 640 l 650 963 l 828 963 l 675 521 l 842 0 l 661 0 l 563 381 l 465 0 l 287 0 l 438 511 l 345 813 l 277 813 l 265 578 q 242 319 256 422 q 205 154 228 217 q 146 49 182 90 q 56 -28 110 8 l -24 103 q 20 155 1 125 q 54 240 40 185 q 79 388 68 295 q 99 629 90 481 l 119 963 z "},"Ԗ":{"ha":833,"x_min":31,"x_max":845,"o":"m 31 0 l 31 963 l 263 963 q 463 896 388 963 q 549 694 538 829 l 651 963 l 833 963 l 651 512 l 845 0 l 628 0 l 478 417 q 395 347 444 374 q 280 320 346 320 l 231 320 l 231 0 l 31 0 m 266 807 l 231 807 l 231 478 l 265 478 q 342 518 314 478 q 371 649 371 558 q 344 769 371 731 q 266 807 317 807 z "},"Ԙ":{"ha":833,"x_min":-1,"x_max":831,"o":"m -1 0 l 162 391 q 59 493 98 433 q 19 653 19 553 q 64 818 19 749 q 185 925 109 887 q 356 963 262 963 l 831 963 l 807 807 l 581 807 l 581 566 l 776 566 l 776 412 l 581 412 l 581 160 l 831 160 l 831 0 l 380 0 l 380 348 l 338 348 l 220 0 l -1 0 m 348 499 l 380 499 l 380 810 l 353 810 q 264 770 298 810 q 230 652 230 731 q 263 535 230 572 q 348 499 297 499 z "},"Ԛ":{"ha":833,"x_min":45,"x_max":881,"o":"m 798 482 q 754 226 798 340 q 595 55 710 113 q 725 18 671 42 q 816 -53 778 -7 q 881 -177 854 -99 l 694 -240 q 628 -119 664 -168 q 540 -44 593 -69 q 403 -19 487 -19 q 134 114 222 -19 q 45 482 45 248 q 86 748 45 635 q 211 924 128 861 q 421 987 295 987 q 704 851 610 987 q 798 482 798 716 m 560 482 q 532 739 560 658 q 421 819 503 819 q 310 739 340 819 q 281 482 281 658 q 311 224 281 306 q 421 143 341 143 q 532 225 504 143 q 560 482 560 306 z "},"Ԝ":{"ha":833,"x_min":-4,"x_max":838,"o":"m 838 963 l 725 0 l 488 0 l 418 688 l 341 0 l 100 0 l -4 963 l 209 963 l 242 194 l 322 851 l 517 851 l 592 194 l 640 963 l 838 963 z "},"Ԟ":{"ha":833,"x_min":72,"x_max":845,"o":"m 387 419 l 300 419 l 300 0 l 72 0 l 72 963 l 300 963 l 300 584 l 384 584 l 466 729 l 337 789 l 391 906 l 529 842 l 597 963 l 819 963 l 706 761 l 839 700 l 785 583 l 642 648 l 574 526 l 845 0 l 597 0 l 387 419 z "},"Ԡ":{"ha":833,"x_min":-24,"x_max":807,"o":"m 56 -28 l -24 103 q 20 155 1 125 q 54 240 40 185 q 79 388 68 295 q 99 629 90 481 l 118 963 l 526 963 l 526 595 q 578 627 549 615 q 648 640 608 640 q 768 582 729 640 q 807 433 807 524 l 807 -63 q 777 -197 807 -140 q 697 -284 748 -253 q 583 -315 647 -315 q 477 -297 518 -315 q 400 -253 436 -279 l 472 -147 q 511 -167 490 -158 q 561 -176 533 -176 q 615 -154 596 -176 q 633 -82 633 -133 l 633 418 q 581 488 633 488 q 551 482 565 488 q 526 466 538 476 l 526 0 l 352 0 l 352 814 l 277 814 l 264 578 q 242 319 256 422 q 205 154 228 217 q 145 49 181 90 q 56 -28 109 8 z "},"Ԣ":{"ha":833,"x_min":33,"x_max":808,"o":"m 331 0 l 331 403 l 218 403 l 218 0 l 33 0 l 33 963 l 218 963 l 218 565 l 331 565 l 331 963 l 516 963 l 516 597 q 568 627 539 615 q 637 640 598 640 q 763 582 719 640 q 808 433 808 524 l 808 -63 q 742 -247 808 -179 q 572 -315 676 -315 q 464 -297 508 -315 q 384 -253 421 -279 l 461 -141 q 501 -161 479 -152 q 551 -170 522 -170 q 604 -149 585 -170 q 623 -77 623 -128 l 623 418 q 570 488 623 488 q 541 482 554 488 q 516 467 528 476 l 516 0 l 331 0 z "},"Ҍ":{"ha":833,"x_min":42,"x_max":803,"o":"m 119 0 l 119 724 l 42 724 l 42 851 l 119 851 l 119 963 l 347 963 l 347 851 l 513 851 l 513 724 l 347 724 l 347 616 l 428 616 q 624 583 540 616 q 756 484 708 550 q 803 319 803 419 q 756 141 803 213 q 627 35 708 70 q 442 0 546 0 l 119 0 m 347 166 l 428 166 q 528 203 488 166 q 568 317 568 240 q 528 420 568 385 q 420 454 488 454 l 347 454 l 347 166 z "},"Ҏ":{"ha":833,"x_min":87,"x_max":801,"o":"m 801 649 q 758 484 801 553 q 643 374 715 415 l 729 233 l 619 233 l 556 338 q 419 320 492 320 l 315 320 l 315 0 l 87 0 l 87 963 l 390 963 q 693 885 585 963 q 801 649 801 807 m 356 665 l 465 665 l 547 531 q 579 649 579 569 q 406 800 579 800 l 315 800 l 315 485 l 418 485 q 464 488 443 485 l 356 665 z "},"а":{"ha":833,"x_min":49,"x_max":767,"o":"m 718 213 q 730 152 718 171 q 767 124 741 133 l 722 -21 q 611 8 656 -15 q 541 76 567 31 q 433 1 499 26 q 298 -24 367 -24 q 116 41 184 -24 q 49 208 49 106 q 143 394 49 328 q 408 459 237 459 l 507 459 l 507 487 q 361 600 507 600 q 270 590 326 600 q 159 561 215 580 l 108 707 q 257 748 180 734 q 396 762 335 762 q 639 695 560 762 q 718 501 718 628 l 718 213 m 374 133 q 448 155 409 133 q 507 215 487 176 l 507 334 l 453 334 q 318 306 361 334 q 275 224 275 278 q 301 157 275 181 q 374 133 327 133 z "},"б":{"ha":833,"x_min":61,"x_max":771,"o":"m 619 1054 l 699 915 q 622 870 659 888 q 544 838 585 852 q 448 807 502 824 q 355 764 391 789 q 301 699 319 740 q 275 594 282 659 q 488 696 355 696 q 632 654 568 696 q 733 532 696 612 q 771 340 771 453 q 725 140 771 221 q 599 17 679 58 q 417 -24 519 -24 q 153 82 246 -24 q 61 416 61 188 q 86 674 61 569 q 175 844 111 778 q 358 944 240 910 q 457 977 416 962 q 535 1010 498 992 q 619 1054 573 1028 m 281 364 q 314 192 281 250 q 417 133 347 133 q 486 151 456 133 q 536 212 517 168 q 554 338 554 256 q 521 495 554 449 q 423 540 488 540 q 339 513 374 540 q 281 452 303 485 l 281 364 z "},"в":{"ha":833,"x_min":110,"x_max":776,"o":"m 414 762 q 583 740 509 762 q 699 674 657 717 q 742 565 742 631 q 700 463 742 502 q 588 406 658 424 q 727 346 679 393 q 776 222 776 299 q 730 93 776 142 q 607 22 684 44 q 436 0 531 0 l 110 0 l 110 731 q 260 753 188 744 q 414 762 333 762 m 411 622 q 367 620 387 622 q 329 616 347 619 l 329 449 l 422 449 q 531 535 531 449 q 411 622 531 622 m 329 144 l 430 144 q 554 240 554 144 q 524 310 554 285 q 435 335 494 335 l 329 335 l 329 144 z "},"г":{"ha":833,"x_min":169,"x_max":748,"o":"m 389 0 l 169 0 l 169 738 l 748 738 l 724 569 l 389 569 l 389 0 z "},"ѓ":{"ha":833,"x_min":169,"x_max":748,"o":"m 389 0 l 169 0 l 169 738 l 748 738 l 724 569 l 389 569 l 389 0 m 575 1160 l 660 994 l 333 865 l 272 976 l 575 1160 z "},"ґ":{"ha":833,"x_min":169,"x_max":748,"o":"m 389 0 l 169 0 l 169 738 l 549 738 l 549 949 l 748 949 l 748 738 l 724 569 l 389 569 l 389 0 z "},"д":{"ha":833,"x_min":19,"x_max":796,"o":"m 19 162 l 76 162 q 118 222 101 187 q 147 323 135 258 q 167 501 158 388 l 187 738 l 726 738 l 726 162 l 796 162 l 796 -242 l 631 -242 l 603 0 l 211 0 l 183 -242 l 19 -242 l 19 162 m 521 585 l 381 585 l 375 510 q 352 328 365 394 q 316 226 338 262 q 256 162 293 190 l 521 162 l 521 585 z "},"е":{"ha":833,"x_min":64,"x_max":769,"o":"m 288 305 q 347 175 299 215 q 465 136 394 136 q 563 153 515 136 q 653 197 610 169 l 742 78 q 616 5 690 33 q 447 -24 542 -24 q 235 27 321 -24 q 107 165 150 77 q 64 368 64 253 q 106 566 64 477 q 227 709 147 656 q 424 762 308 762 q 607 717 529 762 q 727 587 684 672 q 769 383 769 502 q 768 343 769 365 q 765 305 767 322 l 288 305 m 424 615 q 328 572 365 615 q 285 437 292 530 l 556 437 q 524 566 555 517 q 424 615 494 615 z "},"ѐ":{"ha":833,"x_min":64,"x_max":769,"o":"m 288 305 q 347 175 299 215 q 465 136 394 136 q 563 153 515 136 q 653 197 610 169 l 742 78 q 616 5 690 33 q 447 -24 542 -24 q 235 27 321 -24 q 107 165 150 77 q 64 368 64 253 q 106 566 64 477 q 227 709 147 656 q 424 762 308 762 q 607 717 529 762 q 727 587 684 672 q 769 383 769 502 q 768 343 769 365 q 765 305 767 322 l 288 305 m 424 615 q 328 572 365 615 q 285 437 292 530 l 556 437 q 524 566 555 517 q 424 615 494 615 m 563 864 l 235 994 l 321 1159 l 624 975 l 563 864 z "},"ё":{"ha":833,"x_min":64,"x_max":769,"o":"m 288 305 q 347 175 299 215 q 465 136 394 136 q 563 153 515 136 q 653 197 610 169 l 742 78 q 616 5 690 33 q 447 -24 542 -24 q 235 27 321 -24 q 107 165 150 77 q 64 368 64 253 q 106 566 64 477 q 227 709 147 656 q 424 762 308 762 q 607 717 529 762 q 727 587 684 672 q 769 383 769 502 q 768 343 769 365 q 765 305 767 322 l 288 305 m 424 615 q 328 572 365 615 q 285 437 292 530 l 556 437 q 524 566 555 517 q 424 615 494 615 m 266 885 q 185 917 218 885 q 151 997 151 949 q 185 1075 151 1043 q 266 1107 218 1107 q 347 1075 315 1107 q 380 997 380 1043 q 347 917 380 949 q 266 885 315 885 m 587 885 q 507 917 540 885 q 473 997 473 949 q 507 1075 473 1043 q 587 1107 540 1107 q 668 1075 635 1107 q 701 997 701 1043 q 668 917 701 949 q 587 885 635 885 z "},"ж":{"ha":833,"x_min":-8,"x_max":842,"o":"m 342 0 l 342 323 l 306 323 l 189 0 l -8 0 l 162 396 l -3 738 l 188 738 l 303 444 l 342 444 l 342 738 l 491 738 l 491 444 l 530 444 l 651 738 l 836 738 l 673 396 l 842 0 l 649 0 l 527 323 l 491 323 l 491 0 l 342 0 z "},"з":{"ha":833,"x_min":36,"x_max":745,"o":"m 234 449 l 367 449 q 457 472 426 449 q 487 532 487 494 q 454 590 487 571 q 363 610 421 610 q 254 596 308 610 q 154 555 199 583 l 60 672 q 205 739 124 717 q 376 762 286 762 q 547 738 472 762 q 665 669 622 715 q 708 557 708 623 q 661 453 708 494 q 531 390 615 413 q 688 339 631 379 q 745 214 745 299 q 697 83 745 136 q 564 3 648 31 q 373 -24 480 -24 q 179 3 263 -24 q 36 74 95 29 l 131 200 q 245 150 189 166 q 370 133 302 133 q 481 158 444 133 q 517 225 517 183 q 383 309 517 309 l 222 309 l 234 449 z "},"и":{"ha":833,"x_min":97,"x_max":736,"o":"m 736 738 l 736 0 l 529 0 l 529 235 q 540 408 529 328 q 566 546 550 487 l 324 0 l 97 0 l 97 738 l 304 738 l 304 500 q 294 336 304 417 q 266 190 284 256 l 508 738 l 736 738 z "},"й":{"ha":833,"x_min":97,"x_max":736,"o":"m 736 738 l 736 0 l 529 0 l 529 235 q 540 408 529 328 q 566 546 550 487 l 324 0 l 97 0 l 97 738 l 304 738 l 304 500 q 294 336 304 417 q 266 190 284 256 l 508 738 l 736 738 m 417 850 q 289 881 340 850 q 210 961 238 912 q 177 1065 183 1010 l 299 1085 q 339 1024 308 1046 q 417 1001 369 1001 q 495 1024 465 1001 q 535 1085 526 1046 l 656 1065 q 623 961 651 1010 q 544 881 595 912 q 417 850 492 850 z "},"ѝ":{"ha":833,"x_min":97,"x_max":736,"o":"m 736 738 l 736 0 l 529 0 l 529 235 q 540 408 529 328 q 566 546 550 487 l 324 0 l 97 0 l 97 738 l 304 738 l 304 500 q 294 336 304 417 q 266 190 284 256 l 508 738 l 736 738 m 553 864 l 226 994 l 311 1159 l 614 975 l 553 864 z "},"ҋ":{"ha":833,"x_min":90,"x_max":842,"o":"m 396 850 q 268 881 319 850 q 190 961 217 912 q 156 1065 162 1010 l 278 1085 q 318 1024 288 1046 q 396 1001 348 1001 q 474 1024 444 1001 q 514 1085 505 1046 l 635 1065 q 602 961 630 1010 q 523 881 574 912 q 396 850 472 850 m 842 194 l 705 -242 l 526 -242 l 582 0 l 494 0 l 494 235 q 504 406 494 328 q 525 533 514 483 l 314 0 l 90 0 l 90 738 l 297 738 l 297 500 q 288 337 297 417 q 260 191 278 257 l 478 738 l 702 738 l 702 194 l 842 194 z "},"к":{"ha":833,"x_min":101,"x_max":815,"o":"m 101 0 l 101 738 l 321 738 l 321 456 l 422 456 l 582 738 l 794 738 l 591 396 l 815 0 l 583 0 l 417 310 l 321 310 l 321 0 l 101 0 z "},"ќ":{"ha":833,"x_min":101,"x_max":815,"o":"m 101 0 l 101 738 l 321 738 l 321 456 l 422 456 l 582 738 l 794 738 l 591 396 l 815 0 l 583 0 l 417 310 l 321 310 l 321 0 l 101 0 m 550 1160 l 635 994 l 308 865 l 247 976 l 550 1160 z "},"л":{"ha":833,"x_min":19,"x_max":733,"o":"m 733 738 l 733 0 l 513 0 l 513 576 l 356 576 l 351 486 q 331 275 345 360 q 290 135 317 190 q 219 42 263 79 q 111 -28 176 4 l 19 111 q 66 152 46 130 q 100 213 85 175 q 125 314 115 250 q 143 478 135 377 l 163 738 l 733 738 z "},"м":{"ha":833,"x_min":28,"x_max":805,"o":"m 755 738 l 805 0 l 610 0 l 599 251 q 597 393 597 322 q 603 538 597 465 l 598 538 l 497 117 l 338 117 l 230 538 l 224 538 q 232 394 233 466 q 228 244 232 322 l 219 0 l 28 0 l 77 738 l 314 738 l 419 283 l 511 738 l 755 738 z "},"н":{"ha":833,"x_min":97,"x_max":736,"o":"m 517 0 l 517 294 l 317 294 l 317 0 l 97 0 l 97 738 l 317 738 l 317 456 l 517 456 l 517 738 l 736 738 l 736 0 l 517 0 z "},"о":{"ha":833,"x_min":58,"x_max":775,"o":"m 417 762 q 610 713 531 762 q 733 577 690 665 q 775 371 775 489 q 681 81 775 186 q 417 -24 586 -24 q 153 80 247 -24 q 58 369 58 183 q 101 575 58 487 q 224 713 144 663 q 417 762 304 762 m 417 600 q 317 545 349 600 q 285 369 285 490 q 317 192 285 247 q 417 138 349 138 q 516 192 484 138 q 549 371 549 247 q 516 545 549 490 q 417 600 484 600 z "},"п":{"ha":833,"x_min":97,"x_max":736,"o":"m 518 0 l 518 575 l 315 575 l 315 0 l 97 0 l 97 738 l 736 738 l 736 0 l 518 0 z "},"р":{"ha":833,"x_min":97,"x_max":775,"o":"m 506 762 q 713 656 650 762 q 775 371 775 551 q 742 168 775 257 q 645 27 708 78 q 492 -24 582 -24 q 317 53 384 -24 l 317 -285 l 97 -308 l 97 738 l 292 738 l 301 655 q 400 737 347 713 q 506 762 453 762 m 438 600 q 370 577 399 600 q 317 515 341 554 l 317 203 q 365 153 340 169 q 425 138 390 138 q 516 191 483 138 q 549 368 549 244 q 535 510 549 460 q 497 580 522 560 q 438 600 472 600 z "},"с":{"ha":833,"x_min":95,"x_max":751,"o":"m 488 149 q 573 167 533 149 q 653 213 613 185 l 751 74 q 632 4 702 32 q 476 -24 563 -24 q 272 25 358 -24 q 141 161 187 74 q 95 364 95 249 q 142 569 95 479 q 275 710 189 659 q 481 762 362 762 q 630 739 565 762 q 751 669 696 715 l 656 538 q 576 578 618 564 q 490 593 535 593 q 370 541 415 593 q 324 364 324 488 q 346 236 324 283 q 405 169 367 189 q 488 149 442 149 z "},"т":{"ha":833,"x_min":59,"x_max":783,"o":"m 783 738 l 756 575 l 526 575 l 526 0 l 307 0 l 307 575 l 59 575 l 59 738 l 783 738 z "},"у":{"ha":833,"x_min":39,"x_max":794,"o":"m 794 738 l 549 0 q 402 -223 500 -147 q 135 -309 303 -299 l 110 -154 q 228 -127 183 -145 q 300 -78 273 -109 q 348 0 328 -47 l 273 0 l 39 738 l 271 738 l 414 140 l 569 738 l 794 738 z "},"ў":{"ha":833,"x_min":39,"x_max":794,"o":"m 794 738 l 549 0 q 402 -223 500 -147 q 135 -309 303 -299 l 110 -154 q 228 -127 183 -145 q 300 -78 273 -109 q 348 0 328 -47 l 273 0 l 39 738 l 271 738 l 414 140 l 569 738 l 794 738 m 417 850 q 289 881 340 850 q 210 961 238 912 q 177 1065 183 1010 l 299 1085 q 339 1024 308 1046 q 417 1001 369 1001 q 495 1024 465 1001 q 535 1085 526 1046 l 656 1065 q 623 961 651 1010 q 544 881 595 912 q 417 850 492 850 z "},"ф":{"ha":833,"x_min":20,"x_max":813,"o":"m 338 1053 l 495 1036 l 495 694 q 557 746 524 731 q 630 762 590 762 q 747 714 708 762 q 800 578 786 667 q 813 368 813 490 q 768 82 813 188 q 615 -24 722 -24 q 495 41 542 -24 l 495 -290 l 338 -308 l 338 40 q 217 -24 291 -24 q 66 82 111 -24 q 20 368 20 188 q 37 578 20 490 q 97 714 54 667 q 215 762 139 762 q 338 695 290 762 l 338 1053 m 278 613 q 227 558 240 613 q 214 368 214 503 q 227 181 214 236 q 278 125 240 125 q 309 136 297 125 q 338 167 322 147 l 338 572 q 311 602 324 592 q 278 613 299 613 m 565 613 q 528 602 543 613 q 495 572 513 592 l 495 167 q 525 135 511 146 q 557 125 538 125 q 606 177 592 125 q 619 368 619 230 q 609 558 619 503 q 565 613 598 613 z "},"х":{"ha":833,"x_min":31,"x_max":803,"o":"m 268 0 l 31 0 l 283 388 l 54 738 l 300 738 l 418 501 l 532 738 l 765 738 l 549 396 l 803 0 l 554 0 l 408 276 l 268 0 z "},"ч":{"ha":833,"x_min":67,"x_max":731,"o":"m 731 738 l 731 0 l 511 0 l 511 274 q 419 225 473 243 q 299 206 365 206 q 126 268 186 206 q 67 435 67 330 l 67 738 l 286 738 l 286 463 q 312 389 286 410 q 380 368 338 368 q 451 382 416 368 q 511 416 486 395 l 511 738 l 731 738 z "},"ц":{"ha":833,"x_min":76,"x_max":813,"o":"m 497 738 l 715 738 l 715 0 l 76 0 l 76 738 l 294 738 l 294 162 l 497 162 l 497 738 m 813 162 l 813 -242 l 649 -242 l 621 0 l 565 0 l 536 162 l 813 162 z "},"ш":{"ha":833,"x_min":34,"x_max":799,"o":"m 799 738 l 799 0 l 34 0 l 34 738 l 221 738 l 221 162 l 335 162 l 335 738 l 498 738 l 498 162 l 611 162 l 611 738 l 799 738 z "},"щ":{"ha":833,"x_min":34,"x_max":869,"o":"m 799 738 l 799 0 l 34 0 l 34 738 l 221 738 l 221 162 l 335 162 l 335 738 l 498 738 l 498 162 l 611 162 l 611 738 l 799 738 m 869 162 l 869 -242 l 705 -242 l 677 0 l 622 0 l 592 162 l 869 162 z "},"џ":{"ha":833,"x_min":97,"x_max":736,"o":"m 518 738 l 736 738 l 736 0 l 97 0 l 97 738 l 315 738 l 315 162 l 518 162 l 518 738 m 510 162 l 510 -242 l 346 -242 l 318 0 l 263 0 l 233 162 l 510 162 z "},"ь":{"ha":833,"x_min":122,"x_max":773,"o":"m 342 738 l 342 517 l 419 517 q 773 261 773 517 q 727 103 773 160 q 601 23 681 47 q 423 0 522 0 l 122 0 l 122 738 l 342 738 m 421 373 l 342 373 l 342 151 l 428 151 q 516 176 485 151 q 547 265 547 201 q 517 348 547 322 q 421 373 487 373 z "},"ъ":{"ha":833,"x_min":19,"x_max":794,"o":"m 383 738 l 383 515 l 440 515 q 794 260 794 515 q 706 63 794 126 q 464 0 618 0 l 164 0 l 164 581 l 19 581 l 19 738 l 383 738 m 442 371 l 383 371 l 383 151 l 449 151 q 536 176 506 151 q 567 264 567 201 q 537 345 567 319 q 442 371 507 371 z "},"ы":{"ha":833,"x_min":36,"x_max":797,"o":"m 223 738 l 223 512 l 236 512 q 481 451 399 512 q 563 260 563 390 q 482 65 563 130 q 260 0 402 0 l 36 0 l 36 738 l 223 738 m 797 738 l 797 0 l 610 0 l 610 738 l 797 738 m 249 383 l 223 383 l 223 136 l 256 136 q 337 165 308 136 q 366 263 366 194 q 338 354 366 326 q 249 383 310 383 z "},"љ":{"ha":833,"x_min":-12,"x_max":835,"o":"m 530 738 l 530 508 l 542 508 q 766 446 696 508 q 835 256 835 384 q 760 64 835 128 q 559 0 684 0 l 353 0 l 353 592 l 270 592 l 265 444 q 248 247 260 325 q 213 118 236 168 q 152 34 190 67 q 58 -28 115 1 l -12 108 q 25 143 9 124 q 53 199 42 163 q 73 297 65 235 q 85 460 81 360 l 97 738 l 530 738 m 542 378 l 530 378 l 530 133 l 544 133 q 621 160 596 133 q 646 258 646 187 q 623 350 646 322 q 542 378 601 378 z "},"њ":{"ha":833,"x_min":46,"x_max":840,"o":"m 534 738 l 534 477 l 548 477 q 840 240 840 477 q 761 59 840 118 q 542 0 683 0 l 356 0 l 356 341 l 225 341 l 225 0 l 46 0 l 46 738 l 225 738 l 225 477 l 356 477 l 356 738 l 534 738 m 555 347 l 534 347 l 534 139 l 539 139 q 625 162 597 139 q 654 242 654 185 q 555 347 654 347 z "},"ѕ":{"ha":833,"x_min":66,"x_max":743,"o":"m 393 133 q 482 151 448 133 q 515 203 515 168 q 502 242 515 226 q 451 273 489 258 q 340 308 414 288 q 175 385 239 335 q 112 534 112 436 q 194 697 112 633 q 432 762 276 762 q 604 736 531 762 q 731 672 677 711 l 643 543 q 544 589 597 572 q 438 606 492 606 q 333 549 333 606 q 346 516 333 530 q 397 489 360 503 q 507 453 435 474 q 632 407 578 433 q 714 336 685 381 q 743 220 743 292 q 695 85 743 140 q 568 3 647 31 q 394 -24 489 -24 q 206 7 288 -24 q 66 88 124 38 l 176 211 q 274 156 219 178 q 393 133 328 133 z "},"є":{"ha":833,"x_min":95,"x_max":751,"o":"m 478 762 q 751 669 642 762 l 658 547 q 574 589 617 576 q 490 603 531 603 q 373 565 417 603 q 317 445 328 526 l 609 445 l 609 308 l 317 308 q 374 176 327 215 q 492 136 421 136 q 657 192 578 136 l 751 65 q 626 0 698 24 q 475 -24 553 -24 q 270 25 355 -24 q 140 161 185 74 q 95 364 95 249 q 142 569 95 479 q 275 710 190 659 q 478 762 361 762 z "},"э":{"ha":833,"x_min":95,"x_max":751,"o":"m 385 762 q 583 712 501 762 q 708 573 665 662 q 751 367 751 483 q 706 164 751 251 q 575 26 660 76 q 366 -24 489 -24 q 215 0 281 -24 q 95 72 149 24 l 193 189 q 272 149 233 161 q 360 136 310 136 q 474 175 431 136 q 528 308 518 214 l 256 308 l 256 445 l 526 445 q 476 565 517 528 q 367 603 435 603 q 278 590 319 603 q 199 551 238 576 l 105 672 q 230 740 167 717 q 385 762 294 762 z "},"і":{"ha":833,"x_min":119,"x_max":735,"o":"m 415 1124 q 508 1088 472 1124 q 544 1000 544 1053 q 508 911 544 947 q 415 876 472 876 q 321 911 358 876 q 285 1000 285 947 q 321 1088 285 1053 q 415 1124 358 1124 m 548 738 l 548 150 l 735 150 l 735 0 l 119 0 l 119 150 l 328 150 l 328 588 l 126 588 l 126 738 l 548 738 z "},"ї":{"ha":833,"x_min":119,"x_max":735,"o":"m 548 738 l 548 150 l 735 150 l 735 0 l 119 0 l 119 150 l 328 150 l 328 588 l 126 588 l 126 738 l 548 738 m 255 885 q 174 917 207 885 q 140 997 140 949 q 174 1075 140 1043 q 255 1107 207 1107 q 336 1075 303 1107 q 369 997 369 1043 q 336 917 369 949 q 255 885 303 885 m 576 885 q 495 917 529 885 q 462 997 462 949 q 495 1075 462 1043 q 576 1107 529 1107 q 657 1075 624 1107 q 690 997 690 1043 q 657 917 690 949 q 576 885 624 885 z "},"ј":{"ha":833,"x_min":97,"x_max":656,"o":"m 514 1124 q 607 1088 571 1124 q 643 1000 643 1053 q 607 911 643 947 q 514 876 571 876 q 420 911 456 876 q 383 1000 383 947 q 420 1088 383 1053 q 514 1124 456 1124 m 656 738 l 656 214 q 597 -49 656 54 q 420 -213 538 -152 q 131 -308 303 -274 l 97 -140 q 284 -76 208 -115 q 398 27 360 -38 q 437 200 437 93 l 437 588 l 172 588 l 172 738 l 656 738 z "},"ћ":{"ha":833,"x_min":12,"x_max":736,"o":"m 512 952 l 512 824 l 317 824 l 317 665 q 533 762 409 762 q 684 704 632 762 q 736 542 736 647 l 736 0 l 517 0 l 517 481 q 502 574 517 547 q 446 600 487 600 q 380 576 411 600 q 317 510 348 552 l 317 0 l 97 0 l 97 824 l 12 824 l 12 952 l 97 952 l 97 1031 l 317 1052 l 317 952 l 512 952 z "},"ю":{"ha":833,"x_min":44,"x_max":815,"o":"m 552 762 q 706 714 648 762 q 789 577 763 665 q 815 371 815 490 q 789 160 815 249 q 706 24 764 72 q 552 -24 649 -24 q 363 63 422 -24 q 294 301 303 149 l 228 301 l 228 0 l 44 0 l 44 738 l 228 738 l 228 448 l 296 448 q 366 675 306 589 q 552 762 426 762 m 552 617 q 494 560 508 617 q 480 369 480 502 q 493 180 480 238 q 552 121 507 121 q 613 180 599 121 q 626 371 626 239 q 612 558 626 499 q 552 617 597 617 z "},"я":{"ha":833,"x_min":28,"x_max":729,"o":"m 28 0 l 208 304 q 117 380 151 333 q 83 492 83 426 q 169 669 83 601 q 437 738 256 738 l 729 738 l 729 0 l 510 0 l 510 258 l 399 258 l 260 0 l 28 0 m 438 391 l 510 391 l 510 599 l 434 599 q 337 573 366 599 q 308 499 308 547 q 339 419 308 447 q 438 391 371 391 z "},"ђ":{"ha":833,"x_min":12,"x_max":736,"o":"m 317 1052 l 317 952 l 512 952 l 512 824 l 317 824 l 317 662 q 417 736 363 710 q 533 762 471 762 q 684 704 632 762 q 736 542 736 647 l 736 112 q 717 -56 736 12 q 660 -170 697 -124 q 568 -248 622 -216 q 442 -308 513 -280 l 366 -147 q 445 -103 412 -127 q 498 -41 479 -79 q 517 60 517 -2 l 517 515 q 498 581 517 562 q 446 600 479 600 q 380 576 411 600 q 317 510 348 552 l 317 0 l 97 0 l 97 824 l 12 824 l 12 952 l 97 952 l 97 1031 l 317 1052 z "},"ѡ":{"ha":833,"x_min":20,"x_max":813,"o":"m 740 738 q 791 542 768 645 q 813 336 813 439 q 601 -24 813 -24 q 482 9 528 -24 q 415 122 437 42 q 349 10 392 44 q 238 -24 306 -24 q 76 66 133 -24 q 20 336 20 156 q 43 543 20 439 q 93 738 65 647 l 265 738 q 226 540 240 635 q 213 348 213 446 q 226 188 213 239 q 278 138 240 138 q 327 179 315 138 q 338 325 338 221 l 338 476 l 497 503 l 497 332 q 508 180 497 222 q 559 138 519 138 q 610 188 599 138 q 621 348 621 239 q 607 541 621 445 q 568 738 592 636 l 740 738 z "},"ѣ":{"ha":833,"x_min":49,"x_max":780,"o":"m 357 935 l 357 760 l 542 760 l 523 633 l 357 633 l 357 512 l 426 512 q 780 258 780 512 q 699 66 780 132 q 463 0 618 0 l 138 0 l 138 633 l 49 633 l 49 760 l 138 760 l 138 913 l 357 935 m 428 367 l 357 367 l 357 151 l 435 151 q 523 176 492 151 q 553 263 553 200 q 523 342 553 317 q 428 367 493 367 z "},"ѥ":{"ha":833,"x_min":60,"x_max":799,"o":"m 244 738 l 244 448 l 312 448 q 404 675 328 588 q 611 762 479 762 q 715 741 669 762 q 799 681 761 720 l 710 585 q 669 608 690 599 q 619 617 648 617 q 539 577 569 617 q 501 445 508 538 l 701 445 l 701 308 l 501 308 q 536 161 504 203 q 619 120 567 120 q 673 131 649 120 q 715 159 696 142 l 799 65 q 713 1 763 26 q 604 -24 664 -24 q 395 65 468 -24 q 310 301 322 154 l 244 301 l 244 0 l 60 0 l 60 738 l 244 738 z "},"ѧ":{"ha":833,"x_min":23,"x_max":810,"o":"m 555 738 l 810 0 l 613 0 l 533 252 l 492 252 l 492 0 l 337 0 l 337 252 l 295 252 l 221 0 l 23 0 l 280 738 l 555 738 m 410 639 l 337 392 l 488 392 l 410 639 z "},"ѩ":{"ha":833,"x_min":19,"x_max":864,"o":"m 19 0 l 19 738 l 190 738 l 190 379 l 321 379 l 419 738 l 654 738 l 864 0 l 704 0 l 640 248 l 602 248 l 602 0 l 471 0 l 471 248 l 440 248 l 377 0 l 216 0 l 284 248 l 190 248 l 190 0 l 19 0 m 538 639 l 472 379 l 606 379 l 538 639 z "},"ѫ":{"ha":833,"x_min":8,"x_max":827,"o":"m 8 0 l 151 418 l 253 418 l 101 634 l 101 738 l 724 738 l 724 634 l 574 418 l 685 418 l 827 0 l 643 0 l 575 281 l 509 281 l 509 0 l 327 0 l 327 281 l 261 281 l 192 0 l 8 0 m 414 418 l 532 613 l 294 613 l 414 418 z "},"ѭ":{"ha":833,"x_min":-1,"x_max":878,"o":"m -1 0 l -1 738 l 171 738 l 171 424 l 389 424 l 258 634 l 258 738 l 817 738 l 817 634 l 685 424 l 777 424 l 878 0 l 712 0 l 667 291 l 624 291 l 624 0 l 465 0 l 465 291 l 418 291 l 372 0 l 206 0 l 276 291 l 171 291 l 171 0 l -1 0 m 539 424 l 639 619 l 437 619 l 539 424 z "},"ѯ":{"ha":833,"x_min":85,"x_max":747,"o":"m 297 -315 q 143 -228 201 -279 q 85 -103 85 -176 q 138 14 85 -33 q 321 93 190 61 q 438 128 397 113 q 494 160 478 143 q 510 200 510 176 q 492 238 510 226 q 431 250 474 250 l 206 250 l 206 378 l 451 579 l 106 579 l 106 738 l 705 738 l 705 583 l 461 396 l 513 396 q 685 343 623 396 q 747 197 747 290 q 713 78 747 124 q 617 4 679 32 q 468 -46 554 -24 q 362 -76 397 -63 q 316 -100 327 -88 q 305 -126 305 -111 q 357 -184 305 -157 l 297 -315 m 590 1133 l 669 1043 l 473 849 l 338 849 l 141 1043 l 222 1133 l 406 1002 l 590 1133 z "},"ѱ":{"ha":833,"x_min":40,"x_max":805,"o":"m 502 738 l 502 126 q 577 162 551 137 q 611 234 602 187 q 621 361 621 282 q 613 543 621 454 q 590 738 604 631 l 767 738 q 794 558 784 653 q 805 356 805 464 q 736 96 805 184 q 502 -18 667 8 l 502 -285 l 333 -308 l 333 -18 q 156 35 220 -6 q 66 139 92 76 q 40 281 40 203 l 40 738 l 222 738 l 222 285 q 249 174 222 213 q 333 126 276 136 l 333 738 l 502 738 z "},"ѳ":{"ha":833,"x_min":58,"x_max":775,"o":"m 417 762 q 610 713 531 762 q 733 577 690 665 q 775 371 775 489 q 681 81 775 186 q 417 -24 586 -24 q 153 80 247 -24 q 58 369 58 183 q 101 575 58 487 q 224 713 144 663 q 417 762 304 762 m 417 604 q 319 564 355 604 q 275 434 283 524 l 557 434 q 513 564 549 524 q 417 604 478 604 m 558 310 l 274 310 q 318 175 282 215 q 417 135 353 135 q 514 175 478 135 q 558 310 550 215 z "},"ѵ":{"ha":833,"x_min":26,"x_max":809,"o":"m 265 0 l 26 738 l 264 738 l 396 168 l 488 607 q 561 758 512 715 q 695 801 611 801 q 757 797 730 801 q 809 784 784 792 l 773 628 q 758 632 767 631 q 739 634 749 634 q 710 623 722 634 q 690 583 699 613 l 522 0 l 265 0 z "},"ѷ":{"ha":833,"x_min":26,"x_max":809,"o":"m 265 0 l 26 738 l 264 738 l 396 168 l 488 607 q 561 758 512 715 q 695 801 611 801 q 757 797 730 801 q 809 784 784 792 l 773 628 q 758 632 767 631 q 739 634 749 634 q 710 623 722 634 q 690 583 699 613 l 522 0 l 265 0 z "},"ѹ":{"ha":833,"x_min":-8,"x_max":850,"o":"m 222 -24 q 53 80 115 -24 q -8 369 -8 183 q 19 575 -8 487 q 99 713 47 663 q 222 762 151 762 q 396 655 340 762 q 452 371 452 548 q 396 81 452 186 q 222 -24 340 -24 m 501 -309 l 469 -208 q 573 -136 535 -181 q 624 0 610 -92 l 556 0 l 457 738 l 596 738 l 652 140 l 715 738 l 850 738 l 744 0 q 692 -166 729 -102 q 606 -262 656 -229 q 501 -309 556 -296 m 222 90 q 290 153 268 90 q 311 371 311 217 q 290 585 311 523 q 222 647 268 647 q 154 584 176 647 q 133 369 133 521 q 154 153 133 217 q 222 90 176 90 z "},"ғ":{"ha":833,"x_min":101,"x_max":784,"o":"m 425 0 l 206 0 l 206 295 l 101 295 l 101 433 l 206 433 l 206 738 l 784 738 l 760 569 l 425 569 l 425 433 l 587 433 l 587 295 l 425 295 l 425 0 z "},"ҕ":{"ha":833,"x_min":113,"x_max":747,"o":"m 113 0 l 113 738 l 649 738 l 617 578 l 333 578 l 333 391 q 423 457 371 433 q 536 481 476 481 q 691 421 635 481 q 747 248 747 362 l 747 0 l 747 0 l 747 -36 q 676 -243 747 -172 q 476 -315 606 -315 q 369 -297 413 -315 q 288 -253 325 -279 l 372 -128 q 409 -145 391 -138 q 455 -153 427 -153 q 508 -132 490 -153 q 527 -59 527 -110 l 527 1 l 528 1 l 528 234 q 510 300 528 281 q 457 319 493 319 q 390 298 420 319 q 333 246 359 277 l 333 0 l 113 0 z "},"җ":{"ha":833,"x_min":6,"x_max":856,"o":"m 342 0 l 342 323 l 306 323 l 203 0 l 6 0 l 162 396 l 10 738 l 202 738 l 303 444 l 342 444 l 342 738 l 491 738 l 491 444 l 530 444 l 637 738 l 823 738 l 673 396 l 765 162 l 856 162 l 856 -242 l 719 -242 l 692 0 l 636 0 l 527 323 l 491 323 l 491 0 l 342 0 z "},"ҙ":{"ha":833,"x_min":36,"x_max":745,"o":"m 234 449 l 367 449 q 457 472 426 449 q 487 532 487 494 q 454 590 487 571 q 363 610 421 610 q 254 596 308 610 q 154 555 199 583 l 60 672 q 205 739 124 717 q 376 762 286 762 q 547 738 472 762 q 665 669 622 715 q 708 557 708 623 q 661 453 708 494 q 531 390 615 413 q 688 339 631 379 q 745 214 745 299 q 697 83 745 136 q 564 3 648 31 q 373 -24 480 -24 q 179 3 263 -24 q 36 74 95 29 l 131 200 q 245 150 189 166 q 370 133 302 133 q 481 158 444 133 q 517 225 517 183 q 383 309 517 309 l 222 309 l 234 449 m 437 -201 q 405 -164 437 -174 q 309 -155 373 -155 l 328 22 l 451 22 l 451 -67 q 559 -111 524 -75 q 595 -204 595 -148 q 539 -320 595 -275 q 388 -365 482 -365 q 295 -351 338 -365 q 224 -322 253 -338 l 276 -221 q 319 -238 296 -231 q 365 -244 342 -244 q 417 -235 398 -244 q 437 -201 437 -225 z "},"қ":{"ha":833,"x_min":101,"x_max":831,"o":"m 101 0 l 101 738 l 321 738 l 321 456 l 422 456 l 582 738 l 794 738 l 591 396 l 815 0 l 583 0 l 417 310 l 321 310 l 321 0 l 101 0 m 831 162 l 831 -242 l 666 -242 l 638 0 l 583 0 l 553 162 l 831 162 z "},"ҝ":{"ha":833,"x_min":101,"x_max":815,"o":"m 101 0 l 101 738 l 308 738 l 308 442 l 356 442 l 356 601 l 428 601 l 428 442 l 453 442 l 583 738 l 794 738 l 625 396 l 815 0 l 585 0 l 453 326 l 428 326 l 428 163 l 356 163 l 356 326 l 308 326 l 308 0 l 101 0 z "},"ҟ":{"ha":833,"x_min":17,"x_max":815,"o":"m 590 396 l 815 0 l 582 0 l 416 310 l 347 310 l 347 0 l 127 0 l 127 785 l 17 785 l 17 913 l 127 913 l 127 1031 l 347 1053 l 347 913 l 517 913 l 517 785 l 347 785 l 347 456 l 422 456 l 581 738 l 794 738 l 590 396 z "},"ҡ":{"ha":833,"x_min":0,"x_max":833,"o":"m 146 0 l 146 581 l 0 581 l 0 738 l 365 738 l 365 456 l 453 456 l 600 738 l 813 738 l 622 396 l 833 0 l 601 0 l 448 310 l 365 310 l 365 0 l 146 0 z "},"ң":{"ha":833,"x_min":69,"x_max":806,"o":"m 489 0 l 489 294 l 289 294 l 289 0 l 69 0 l 69 738 l 289 738 l 289 456 l 489 456 l 489 738 l 708 738 l 708 0 l 489 0 m 806 162 l 806 -242 l 642 -242 l 614 0 l 558 0 l 529 162 l 806 162 z "},"ҥ":{"ha":833,"x_min":60,"x_max":844,"o":"m 438 0 l 438 294 l 279 294 l 279 0 l 60 0 l 60 738 l 279 738 l 279 456 l 438 456 l 438 738 l 844 738 l 812 574 l 658 574 l 658 0 l 438 0 z "},"ԥ":{"ha":833,"x_min":83,"x_max":820,"o":"m 504 0 l 504 575 l 301 575 l 301 0 l 83 0 l 83 738 l 722 738 l 722 0 l 504 0 m 820 162 l 820 -242 l 656 -242 l 628 0 l 572 0 l 543 162 l 820 162 z "},"ҧ":{"ha":833,"x_min":26,"x_max":840,"o":"m 26 0 l 26 738 l 531 738 l 531 440 q 588 470 557 460 q 658 481 619 481 q 789 423 738 481 q 840 262 840 365 l 840 -49 q 773 -246 840 -177 q 598 -315 705 -315 q 493 -297 537 -315 q 414 -253 450 -279 l 491 -141 q 529 -159 510 -151 q 580 -167 548 -167 q 630 -148 612 -167 q 649 -83 649 -128 l 649 263 q 592 329 649 329 q 531 310 560 329 l 531 0 l 340 0 l 340 585 l 217 585 l 217 0 l 26 0 z "},"ҩ":{"ha":833,"x_min":62,"x_max":799,"o":"m 683 -206 q 534 -14 592 -97 q 442 -24 490 -24 q 238 25 323 -24 q 107 161 153 74 q 62 364 62 249 q 109 569 62 479 q 241 710 156 659 q 443 762 326 762 q 626 717 545 762 l 554 567 q 506 586 531 579 q 453 593 481 593 q 335 541 383 593 q 288 364 288 488 q 330 202 288 249 q 436 150 371 155 q 398 301 398 234 q 451 442 398 391 q 598 492 505 492 q 741 443 683 492 q 799 293 799 394 q 762 152 799 222 q 654 37 724 83 q 776 -127 701 -32 l 683 -206 m 548 306 q 554 245 548 276 q 574 179 560 215 q 640 307 640 221 q 628 354 640 340 q 595 368 615 368 q 548 306 548 368 z "},"ҫ":{"ha":833,"x_min":95,"x_max":751,"o":"m 488 149 q 573 167 533 149 q 653 213 613 185 l 751 74 q 632 4 702 32 q 476 -24 563 -24 q 272 25 358 -24 q 141 161 187 74 q 95 364 95 249 q 142 569 95 479 q 275 710 189 659 q 481 762 362 762 q 630 739 565 762 q 751 669 696 715 l 656 538 q 576 578 618 564 q 490 593 535 593 q 370 541 415 593 q 324 364 324 488 q 346 236 324 283 q 405 169 367 189 q 488 149 442 149 m 406 39 q 586 -48 520 3 q 652 -189 652 -99 q 596 -312 652 -267 q 441 -358 540 -358 q 294 -323 357 -358 l 338 -214 q 376 -228 353 -222 q 424 -234 399 -234 q 484 -215 465 -234 q 502 -165 502 -195 q 477 -87 502 -130 q 374 0 452 -44 l 406 39 z "},"ҭ":{"ha":833,"x_min":59,"x_max":783,"o":"m 783 738 l 756 575 l 526 575 l 526 0 l 307 0 l 307 575 l 59 575 l 59 738 l 783 738 m 624 162 l 624 -242 l 460 -242 l 432 0 l 376 0 l 347 162 l 624 162 z "},"ү":{"ha":833,"x_min":33,"x_max":800,"o":"m 310 -308 l 310 6 l 33 738 l 272 738 l 421 192 l 576 738 l 800 738 l 524 8 l 524 -285 l 310 -308 z "},"ұ":{"ha":833,"x_min":33,"x_max":800,"o":"m 310 -308 l 310 -23 l 177 -23 l 177 100 l 274 100 l 33 738 l 272 738 l 421 192 l 576 738 l 800 738 l 558 100 l 658 100 l 658 -23 l 524 -23 l 524 -285 l 310 -308 z "},"ҳ":{"ha":833,"x_min":31,"x_max":803,"o":"m 268 0 l 31 0 l 283 388 l 54 738 l 300 738 l 418 501 l 532 738 l 765 738 l 549 396 l 803 0 l 554 0 l 408 276 l 268 0 m 510 162 l 510 -242 l 346 -242 l 318 0 l 263 0 l 233 162 l 510 162 z "},"ҵ":{"ha":833,"x_min":0,"x_max":787,"o":"m 787 162 l 787 -242 l 631 -242 l 603 0 l 119 0 l 119 596 l 0 596 l 0 738 l 451 738 l 417 596 l 324 596 l 324 162 l 499 162 l 499 738 l 703 738 l 703 162 l 787 162 z "},"ҷ":{"ha":833,"x_min":53,"x_max":813,"o":"m 717 738 l 717 0 l 497 0 l 497 274 q 405 225 459 243 q 285 206 351 206 q 113 268 172 206 q 53 435 53 330 l 53 738 l 272 738 l 272 463 q 298 389 272 410 q 366 368 324 368 q 437 382 402 368 q 497 416 472 395 l 497 738 l 717 738 m 813 162 l 813 -242 l 649 -242 l 621 0 l 565 0 l 536 162 l 813 162 z "},"ҹ":{"ha":833,"x_min":67,"x_max":731,"o":"m 436 555 l 436 376 q 511 416 479 390 l 511 738 l 731 738 l 731 0 l 511 0 l 511 274 q 436 231 478 248 l 436 113 l 353 113 l 353 210 q 299 206 326 206 q 126 268 186 206 q 67 435 67 330 l 67 738 l 286 738 l 286 463 q 304 397 286 419 q 353 370 322 376 l 353 555 l 436 555 z "},"һ":{"ha":833,"x_min":100,"x_max":733,"o":"m 100 0 l 100 1031 l 319 1052 l 319 599 q 410 664 358 640 q 522 688 463 688 q 678 629 622 688 q 733 455 733 569 l 733 0 l 514 0 l 514 441 q 497 508 514 489 q 443 526 479 526 q 376 506 407 526 q 319 453 346 485 l 319 0 l 100 0 z "},"ԧ":{"ha":833,"x_min":90,"x_max":822,"o":"m 90 0 l 90 1031 l 310 1052 l 310 599 q 400 664 348 640 q 513 688 453 688 q 668 629 613 688 q 724 455 724 569 l 724 0 l 504 0 l 504 441 q 487 508 504 489 q 433 526 469 526 q 367 506 397 526 q 310 453 336 485 l 310 0 l 90 0 m 822 162 l 822 -242 l 657 -242 l 629 0 l 574 0 l 544 162 l 822 162 z "},"ҽ":{"ha":833,"x_min":7,"x_max":799,"o":"m 7 494 q 20 569 7 537 q 49 628 34 602 l 165 581 q 152 543 158 563 q 147 497 147 524 q 162 453 147 469 q 212 437 178 437 l 213 437 q 260 603 223 529 q 359 719 297 676 q 510 762 422 762 q 726 662 653 762 q 799 383 799 562 q 798 343 799 365 q 795 305 797 322 l 408 305 q 449 168 412 208 q 547 128 485 128 q 632 143 597 128 q 695 178 668 159 l 781 69 q 681 5 740 34 q 538 -24 621 -24 q 364 17 433 -24 q 258 132 295 58 q 213 302 222 206 q 63 353 118 303 q 7 494 7 403 m 509 619 q 436 575 462 619 q 406 437 410 532 l 603 437 q 581 572 602 526 q 509 619 560 619 z "},"ҿ":{"ha":833,"x_min":7,"x_max":799,"o":"m 7 494 q 20 569 7 537 q 49 628 34 602 l 165 581 q 152 543 158 563 q 147 497 147 524 q 162 453 147 469 q 212 437 178 437 l 213 437 q 260 603 223 529 q 359 719 297 676 q 510 762 422 762 q 726 662 653 762 q 799 383 799 562 q 798 343 799 365 q 795 305 797 322 l 408 305 q 449 168 412 208 q 547 128 485 128 q 632 143 597 128 q 695 178 668 159 l 781 69 q 681 5 740 34 q 538 -24 621 -24 q 364 17 433 -24 q 258 132 295 58 q 213 302 222 206 q 63 353 118 303 q 7 494 7 403 m 509 619 q 436 575 462 619 q 406 437 410 532 l 603 437 q 581 572 602 526 q 509 619 560 619 m 645 72 l 669 0 q 541 -72 573 -34 q 510 -153 510 -110 q 532 -204 510 -187 q 590 -221 553 -221 q 630 -218 613 -221 q 665 -211 648 -215 l 649 -341 q 610 -349 630 -346 q 567 -352 591 -352 q 418 -308 478 -352 q 357 -181 357 -263 q 395 -61 357 -108 q 499 17 433 -14 q 645 72 565 47 z "},"ӏ":{"ha":833,"x_min":45,"x_max":734,"o":"m 482 1031 l 482 232 q 507 168 482 188 q 577 149 533 149 q 632 156 606 149 q 681 172 658 163 l 734 25 q 644 -9 697 6 q 521 -24 591 -24 q 325 53 388 -24 q 263 259 263 130 l 263 881 l 45 881 l 45 1031 l 482 1031 z "},"ӂ":{"ha":833,"x_min":-8,"x_max":842,"o":"m 342 0 l 342 323 l 306 323 l 189 0 l -8 0 l 162 396 l -3 738 l 188 738 l 303 444 l 342 444 l 342 738 l 491 738 l 491 444 l 530 444 l 651 738 l 836 738 l 673 396 l 842 0 l 649 0 l 527 323 l 491 323 l 491 0 l 342 0 m 417 850 q 289 881 340 850 q 210 961 238 912 q 177 1065 183 1010 l 299 1085 q 339 1024 308 1046 q 417 1001 369 1001 q 495 1024 465 1001 q 535 1085 526 1046 l 656 1065 q 623 961 651 1010 q 544 881 595 912 q 417 850 492 850 z "},"ӄ":{"ha":833,"x_min":97,"x_max":775,"o":"m 97 0 l 97 738 l 317 738 l 317 434 l 403 434 l 568 738 l 775 738 l 595 420 q 714 350 672 406 q 755 202 755 294 l 755 -36 q 684 -243 755 -172 q 485 -315 614 -315 q 377 -297 421 -315 q 297 -253 333 -279 l 381 -128 q 417 -145 399 -138 q 463 -153 435 -153 q 517 -132 498 -153 q 535 -59 535 -110 l 535 213 q 458 288 535 288 l 317 288 l 317 0 l 97 0 z "},"ӆ":{"ha":833,"x_min":11,"x_max":821,"o":"m 821 194 l 683 -242 l 505 -242 l 560 0 l 463 0 l 463 576 l 348 576 l 343 486 q 322 275 336 360 q 281 135 308 190 q 211 42 254 79 q 103 -28 167 4 l 11 111 q 57 152 38 130 q 92 213 77 175 q 117 314 106 250 q 135 478 127 377 l 154 738 l 683 738 l 683 194 l 821 194 z "},"ӈ":{"ha":833,"x_min":97,"x_max":736,"o":"m 517 0 l 517 294 l 317 294 l 317 0 l 97 0 l 97 738 l 317 738 l 317 456 l 517 456 l 517 738 l 736 738 l 736 0 l 517 0 m 466 -315 q 358 -297 402 -315 q 278 -253 315 -279 l 362 -128 q 399 -145 381 -138 q 444 -153 417 -153 q 498 -132 479 -153 q 517 -59 517 -110 l 517 1 l 736 1 l 736 -36 q 666 -243 736 -172 q 466 -315 595 -315 z "},"ӊ":{"ha":833,"x_min":92,"x_max":826,"o":"m 470 0 l 470 294 l 311 294 l 311 0 l 92 0 l 92 738 l 311 738 l 311 456 l 470 456 l 470 738 l 690 738 l 690 194 l 826 194 l 689 -242 l 510 -242 l 566 0 l 470 0 z "},"ӌ":{"ha":833,"x_min":67,"x_max":731,"o":"m 406 162 l 511 162 l 511 315 q 419 266 473 284 q 299 247 365 247 q 126 309 186 247 q 67 476 67 371 l 67 738 l 286 738 l 286 503 q 312 430 286 451 q 380 409 338 409 q 451 422 416 409 q 511 457 486 435 l 511 738 l 731 738 l 731 0 l 598 0 l 570 -242 l 406 -242 l 406 162 z "},"ӎ":{"ha":833,"x_min":29,"x_max":855,"o":"m 855 194 l 717 -242 l 566 -242 l 622 0 l 541 0 l 531 251 q 525 396 528 322 q 522 562 523 470 l 456 117 l 297 117 l 224 562 q 226 397 228 472 q 222 244 225 322 l 213 0 l 29 0 l 78 738 l 315 738 l 378 283 l 429 738 l 679 738 l 716 194 l 855 194 z "},"ӑ":{"ha":833,"x_min":49,"x_max":767,"o":"m 718 213 q 730 152 718 171 q 767 124 741 133 l 722 -21 q 611 8 656 -15 q 541 76 567 31 q 433 1 499 26 q 298 -24 367 -24 q 116 41 184 -24 q 49 208 49 106 q 143 394 49 328 q 408 459 237 459 l 507 459 l 507 487 q 361 600 507 600 q 270 590 326 600 q 159 561 215 580 l 108 707 q 257 748 180 734 q 396 762 335 762 q 639 695 560 762 q 718 501 718 628 l 718 213 m 374 133 q 448 155 409 133 q 507 215 487 176 l 507 334 l 453 334 q 318 306 361 334 q 275 224 275 278 q 301 157 275 181 q 374 133 327 133 m 407 850 q 280 881 331 850 q 201 961 228 912 q 167 1065 173 1010 l 289 1085 q 329 1024 299 1046 q 407 1001 359 1001 q 485 1024 455 1001 q 525 1085 516 1046 l 647 1065 q 613 961 641 1010 q 534 881 585 912 q 407 850 483 850 z "},"ӓ":{"ha":833,"x_min":49,"x_max":767,"o":"m 718 213 q 730 152 718 171 q 767 124 741 133 l 722 -21 q 611 8 656 -15 q 541 76 567 31 q 433 1 499 26 q 298 -24 367 -24 q 116 41 184 -24 q 49 208 49 106 q 143 394 49 328 q 408 459 237 459 l 507 459 l 507 487 q 361 600 507 600 q 270 590 326 600 q 159 561 215 580 l 108 707 q 257 748 180 734 q 396 762 335 762 q 639 695 560 762 q 718 501 718 628 l 718 213 m 374 133 q 448 155 409 133 q 507 215 487 176 l 507 334 l 453 334 q 318 306 361 334 q 275 224 275 278 q 301 157 275 181 q 374 133 327 133 m 247 885 q 165 917 199 885 q 132 997 132 949 q 165 1075 132 1043 q 247 1107 199 1107 q 328 1075 295 1107 q 360 997 360 1043 q 328 917 360 949 q 247 885 295 885 m 567 885 q 487 917 521 885 q 453 997 453 949 q 487 1075 453 1043 q 567 1107 521 1107 q 649 1075 616 1107 q 682 997 682 1043 q 649 917 682 949 q 567 885 616 885 z "},"ӕ":{"ha":833,"x_min":-8,"x_max":833,"o":"m 594 762 q 779 664 725 762 q 833 383 833 566 q 829 314 833 347 l 495 314 q 629 121 513 121 q 691 133 663 121 q 750 166 720 144 l 833 56 q 740 -1 792 22 q 617 -24 687 -24 q 485 7 540 -24 q 395 94 431 38 q 312 5 355 34 q 199 -24 269 -24 q 47 42 102 -24 q -8 211 -8 108 q 61 392 -8 329 q 273 454 130 454 l 330 454 l 330 487 q 298 592 330 558 q 206 627 266 627 q 145 620 173 627 q 76 592 118 613 l 27 713 q 127 749 81 736 q 228 762 173 762 q 349 735 304 762 q 419 664 394 708 q 488 735 444 708 q 594 762 532 762 m 587 624 q 522 583 544 624 q 495 433 499 542 l 668 433 q 651 578 667 531 q 587 624 635 624 m 330 335 l 300 335 q 203 305 231 335 q 175 221 175 275 q 191 147 175 174 q 238 119 208 119 q 291 141 268 119 q 335 206 315 163 q 331 270 333 237 q 330 335 330 304 z "},"ӗ":{"ha":833,"x_min":64,"x_max":769,"o":"m 288 305 q 347 175 299 215 q 465 136 394 136 q 563 153 515 136 q 653 197 610 169 l 742 78 q 616 5 690 33 q 447 -24 542 -24 q 235 27 321 -24 q 107 165 150 77 q 64 368 64 253 q 106 566 64 477 q 227 709 147 656 q 424 762 308 762 q 607 717 529 762 q 727 587 684 672 q 769 383 769 502 q 768 343 769 365 q 765 305 767 322 l 288 305 m 424 615 q 328 572 365 615 q 285 437 292 530 l 556 437 q 524 566 555 517 q 424 615 494 615 m 426 850 q 299 881 350 850 q 220 961 248 912 q 187 1065 192 1010 l 308 1085 q 348 1024 318 1046 q 426 1001 378 1001 q 505 1024 474 1001 q 544 1085 535 1046 l 666 1065 q 633 961 660 1010 q 553 881 605 912 q 426 850 502 850 z "},"ә":{"ha":833,"x_min":58,"x_max":775,"o":"m 407 762 q 614 712 533 762 q 735 574 695 662 q 775 371 775 485 q 734 172 775 261 q 612 29 692 82 q 414 -24 531 -24 q 155 76 251 -24 q 58 356 58 176 q 59 395 58 374 q 63 434 60 417 l 563 434 q 515 565 558 524 q 397 607 471 607 q 294 592 342 607 q 201 542 247 576 l 111 665 q 239 735 165 709 q 407 762 314 762 m 414 132 q 521 171 483 132 q 563 302 559 210 l 264 302 l 264 294 q 305 175 267 218 q 414 132 342 132 z "},"ӛ":{"ha":833,"x_min":58,"x_max":775,"o":"m 407 762 q 614 712 533 762 q 735 574 695 662 q 775 371 775 485 q 734 172 775 261 q 612 29 692 82 q 414 -24 531 -24 q 155 76 251 -24 q 58 356 58 176 q 59 395 58 374 q 63 434 60 417 l 563 434 q 515 565 558 524 q 397 607 471 607 q 294 592 342 607 q 201 542 247 576 l 111 665 q 239 735 165 709 q 407 762 314 762 m 414 132 q 521 171 483 132 q 563 302 559 210 l 264 302 l 264 294 q 305 175 267 218 q 414 132 342 132 m 271 885 q 190 917 223 885 q 156 997 156 949 q 190 1075 156 1043 q 271 1107 223 1107 q 352 1075 319 1107 q 385 997 385 1043 q 352 917 385 949 q 271 885 319 885 m 592 885 q 511 917 545 885 q 478 997 478 949 q 511 1075 478 1043 q 592 1107 545 1107 q 673 1075 640 1107 q 706 997 706 1043 q 673 917 706 949 q 592 885 640 885 z "},"ӝ":{"ha":833,"x_min":-8,"x_max":842,"o":"m 342 0 l 342 323 l 306 323 l 189 0 l -8 0 l 162 396 l -3 738 l 188 738 l 303 444 l 342 444 l 342 738 l 491 738 l 491 444 l 530 444 l 651 738 l 836 738 l 673 396 l 842 0 l 649 0 l 527 323 l 491 323 l 491 0 l 342 0 m 256 885 q 175 917 208 885 q 142 997 142 949 q 175 1075 142 1043 q 256 1107 208 1107 q 338 1075 305 1107 q 370 997 370 1043 q 338 917 370 949 q 256 885 305 885 m 577 885 q 497 917 531 885 q 463 997 463 949 q 497 1075 463 1043 q 577 1107 531 1107 q 659 1075 626 1107 q 692 997 692 1043 q 659 917 692 949 q 577 885 626 885 z "},"ӟ":{"ha":833,"x_min":36,"x_max":745,"o":"m 234 449 l 367 449 q 457 472 426 449 q 487 532 487 494 q 454 590 487 571 q 363 610 421 610 q 254 596 308 610 q 154 555 199 583 l 60 672 q 205 739 124 717 q 376 762 286 762 q 547 738 472 762 q 665 669 622 715 q 708 557 708 623 q 661 453 708 494 q 531 390 615 413 q 688 339 631 379 q 745 214 745 299 q 697 83 745 136 q 564 3 648 31 q 373 -24 480 -24 q 179 3 263 -24 q 36 74 95 29 l 131 200 q 245 150 189 166 q 370 133 302 133 q 481 158 444 133 q 517 225 517 183 q 383 309 517 309 l 222 309 l 234 449 m 237 880 q 156 912 189 880 q 122 991 122 944 q 156 1069 122 1038 q 237 1101 189 1101 q 318 1069 285 1101 q 351 991 351 1038 q 318 912 351 944 q 237 880 285 880 m 558 880 q 477 912 511 880 q 444 991 444 944 q 477 1069 444 1038 q 558 1101 511 1101 q 639 1069 606 1101 q 672 991 672 1038 q 639 912 672 944 q 558 880 606 880 z "},"ӡ":{"ha":833,"x_min":49,"x_max":756,"o":"m 210 293 l 470 575 l 95 575 l 95 738 l 712 738 l 712 589 l 440 298 l 450 298 q 604 268 535 298 q 715 177 674 238 q 756 24 756 117 q 710 -144 756 -69 q 578 -264 663 -219 q 375 -308 492 -308 q 235 -292 294 -308 q 132 -249 176 -276 q 49 -188 88 -222 l 154 -67 q 247 -125 199 -103 q 363 -146 295 -146 q 482 -106 437 -146 q 528 13 528 -66 q 478 127 528 95 q 356 159 428 159 l 210 159 l 210 293 z "},"ӣ":{"ha":833,"x_min":97,"x_max":736,"o":"m 736 738 l 736 0 l 529 0 l 529 235 q 540 408 529 328 q 566 546 550 487 l 324 0 l 97 0 l 97 738 l 304 738 l 304 500 q 294 336 304 417 q 266 190 284 256 l 508 738 l 736 738 m 628 913 l 205 913 l 205 1066 l 628 1066 l 628 913 z "},"ӥ":{"ha":833,"x_min":97,"x_max":736,"o":"m 736 738 l 736 0 l 529 0 l 529 235 q 540 408 529 328 q 566 546 550 487 l 324 0 l 97 0 l 97 738 l 304 738 l 304 500 q 294 336 304 417 q 266 190 284 256 l 508 738 l 736 738 m 256 885 q 175 917 208 885 q 142 997 142 949 q 175 1075 142 1043 q 256 1107 208 1107 q 338 1075 305 1107 q 370 997 370 1043 q 338 917 370 949 q 256 885 305 885 m 577 885 q 497 917 531 885 q 463 997 463 949 q 497 1075 463 1043 q 577 1107 531 1107 q 659 1075 626 1107 q 692 997 692 1043 q 659 917 692 949 q 577 885 626 885 z "},"ӧ":{"ha":833,"x_min":58,"x_max":775,"o":"m 417 762 q 610 713 531 762 q 733 577 690 665 q 775 371 775 489 q 681 81 775 186 q 417 -24 586 -24 q 153 80 247 -24 q 58 369 58 183 q 101 575 58 487 q 224 713 144 663 q 417 762 304 762 m 417 600 q 317 545 349 600 q 285 369 285 490 q 317 192 285 247 q 417 138 349 138 q 516 192 484 138 q 549 371 549 247 q 516 545 549 490 q 417 600 484 600 m 256 885 q 175 917 208 885 q 142 997 142 949 q 175 1075 142 1043 q 256 1107 208 1107 q 338 1075 305 1107 q 370 997 370 1043 q 338 917 370 949 q 256 885 305 885 m 577 885 q 497 917 531 885 q 463 997 463 949 q 497 1075 463 1043 q 577 1107 531 1107 q 659 1075 626 1107 q 692 997 692 1043 q 659 917 692 949 q 577 885 626 885 z "},"ө":{"ha":833,"x_min":58,"x_max":775,"o":"m 417 762 q 610 713 531 762 q 733 577 690 665 q 775 371 775 489 q 681 81 775 186 q 417 -24 586 -24 q 153 80 247 -24 q 58 369 58 183 q 101 575 58 487 q 224 713 144 663 q 417 762 304 762 m 417 604 q 319 564 355 604 q 275 434 283 524 l 557 434 q 513 564 549 524 q 417 604 478 604 m 558 310 l 274 310 q 318 175 282 215 q 417 135 353 135 q 514 175 478 135 q 558 310 550 215 z "},"ӫ":{"ha":833,"x_min":58,"x_max":775,"o":"m 417 762 q 610 713 531 762 q 733 577 690 665 q 775 371 775 489 q 681 81 775 186 q 417 -24 586 -24 q 153 80 247 -24 q 58 369 58 183 q 101 575 58 487 q 224 713 144 663 q 417 762 304 762 m 417 604 q 319 564 355 604 q 275 434 283 524 l 557 434 q 513 564 549 524 q 417 604 478 604 m 558 310 l 274 310 q 318 175 282 215 q 417 135 353 135 q 514 175 478 135 q 558 310 550 215 m 258 885 q 176 917 210 885 q 143 997 143 949 q 176 1075 143 1043 q 258 1107 210 1107 q 339 1075 306 1107 q 372 997 372 1043 q 339 917 372 949 q 258 885 306 885 m 578 885 q 498 917 532 885 q 465 997 465 949 q 498 1075 465 1043 q 578 1107 532 1107 q 660 1075 627 1107 q 693 997 693 1043 q 660 917 693 949 q 578 885 627 885 z "},"ӭ":{"ha":833,"x_min":95,"x_max":751,"o":"m 385 762 q 583 712 501 762 q 708 573 665 662 q 751 367 751 483 q 706 164 751 251 q 575 26 660 76 q 366 -24 489 -24 q 215 0 281 -24 q 95 72 149 24 l 193 189 q 272 149 233 161 q 360 136 310 136 q 474 175 431 136 q 528 308 518 214 l 256 308 l 256 445 l 526 445 q 476 565 517 528 q 367 603 435 603 q 278 590 319 603 q 199 551 238 576 l 105 672 q 230 740 167 717 q 385 762 294 762 m 258 885 q 176 917 210 885 q 143 997 143 949 q 176 1075 143 1043 q 258 1107 210 1107 q 339 1075 306 1107 q 372 997 372 1043 q 339 917 372 949 q 258 885 306 885 m 578 885 q 498 917 532 885 q 465 997 465 949 q 498 1075 465 1043 q 578 1107 532 1107 q 660 1075 627 1107 q 693 997 693 1043 q 660 917 693 949 q 578 885 627 885 z "},"ӯ":{"ha":833,"x_min":39,"x_max":794,"o":"m 794 738 l 549 0 q 402 -223 500 -147 q 135 -309 303 -299 l 110 -154 q 228 -127 183 -145 q 300 -78 273 -109 q 348 0 328 -47 l 273 0 l 39 738 l 271 738 l 414 140 l 569 738 l 794 738 m 628 913 l 205 913 l 205 1066 l 628 1066 l 628 913 z "}}}
